<svg viewBox="0 0 124 116" xmlns="http://www.w3.org/2000/svg" xmlns:xlink="http://www.w3.org/1999/xlink">
    <style>
        :root>svg{display:none}:root>svg:target{display:block}
    </style>
    <svg fill="none" viewBox="0 0 71 71" id="about-us-1" xmlns="http://www.w3.org/2000/svg">
        <path d="M66.733 0H5.139A4.564 4.564 0 00.576 4.557v45.565c0 1.68.924 3.133 2.282 3.923V67.21a3.424 3.424 0 003.422 3.418h59.312a3.424 3.424 0 003.422-3.418V54.045c1.357-.79 2.281-2.244 2.281-3.923V4.557A4.564 4.564 0 0066.733 0zm0 67.21a1.14 1.14 0 01-1.14 1.138H6.28a1.14 1.14 0 01-1.141-1.139V54.68h61.594v12.53zm2.281-17.088a2.282 2.282 0 01-2.281 2.278H5.139a2.282 2.282 0 01-2.281-2.278V4.557a2.282 2.282 0 012.281-2.279h61.594a2.282 2.282 0 012.281 2.279v45.565z" fill="#fff"/>
        <path d="M14.264 66.07a4.564 4.564 0 004.563-4.556 4.564 4.564 0 00-4.563-4.557 4.564 4.564 0 00-4.563 4.557 4.564 4.564 0 004.563 4.556zm0-6.835a2.282 2.282 0 012.281 2.279 2.282 2.282 0 01-4.562 0 2.282 2.282 0 012.281-2.279zM7.42 47.844h57.031V6.835H7.421v41.009zm2.281-38.73h52.47v36.452H9.7V9.113zm25.094 50.121H23.39v6.835h11.406v-6.835zm-2.281 4.557H25.67v-2.278h6.844v2.278zm15.969-4.557H37.077v6.835h11.406v-6.835zm-2.281 4.557h-6.844v-2.278h6.844v2.278zm15.968-4.557H50.764v6.835H62.17v-6.835zm-2.281 4.557h-6.844v-2.278h6.844v2.278z" fill="#fff"/>
        <path d="M45.95 19.304l-4.223 15.813-5.618-24.684-6.715 21.463h-1.76l-5.469-16.384-5.34 18.662h-4.842v2.278h6.563l3.786-13.233 3.656 10.955h5.083l4.692-14.99 5.788 25.438 4.903-18.36 2.418 5.634h11.017v-2.278h-9.514l-4.426-10.314z" fill="#fff"/>
        <path d="M18.826 38.73h2.282v2.279h-2.282v-2.278zm4.563 0h2.281v2.279h-2.28v-2.278zm4.562 0h2.282v2.279H27.95v-2.278z" fill="#fff"/>
    </svg>
    <svg fill="none" viewBox="0 0 100 100" id="about-us-2" xmlns="http://www.w3.org/2000/svg">
        <path d="M79.167 41.667c0 22.948-24.576 42.385-28.61 45.421a.901.901 0 01-1.114 0c-4.034-3.036-28.61-22.473-28.61-45.421C20.833 25.558 33.892 12.5 50 12.5c16.108 0 29.167 13.058 29.167 29.167z" stroke="#fff" stroke-width="3"/>
        <circle cx="50" cy="41.667" stroke="#fff" stroke-width="3" r="12.5"/>
    </svg>
    <svg fill="none" viewBox="0 0 78 79" id="about-us-3" xmlns="http://www.w3.org/2000/svg">
        <g clip-path="url(#acclip0)" fill="#fff">
            <path d="M19.5 23.474a1.219 1.219 0 100-2.437 1.219 1.219 0 000 2.437zm7.313 0a1.219 1.219 0 100-2.437 1.219 1.219 0 000 2.437zm.961 3.24l.128-.258-2.18-1.09-.128.258a2.71 2.71 0 01-2.438 1.507 2.71 2.71 0 01-2.437-1.507l-.128-.257-2.18 1.09.127.258a5.135 5.135 0 004.618 2.853 5.133 5.133 0 004.618-2.854zm28.289-2.021c-8.065 0-14.626 6.56-14.626 14.625 0 8.064 6.561 14.625 14.626 14.625 8.064 0 14.624-6.56 14.624-14.625 0-8.065-6.56-14.625-14.624-14.625zm-10.97 19.5c0-.33.125-.629.358-.862l2.437-2.437c.234-.233.532-.357.862-.357.33 0 .628.124.862.357.232.233.357.531.357.861 0 .33-.125.63-.357.862l-2.438 2.438a1.235 1.235 0 01-1.723 0 1.196 1.196 0 01-.357-.862zm10.994 3.896a1.223 1.223 0 01.964-1.435c.61-.125 1.298.31 1.427.957l.695 3.476a12.07 12.07 0 01-2.41.382l-.676-3.38zm5.396 2.128l-.616-3.082a3.662 3.662 0 00-3.58-2.942 3.66 3.66 0 00-3.59 4.375l.557 2.789a12.153 12.153 0 01-7.004-3.643 3.628 3.628 0 001.648-.935l2.437-2.437a3.634 3.634 0 001.071-2.587 3.63 3.63 0 00-1.071-2.585c-1.38-1.38-3.79-1.38-5.17 0l-2.116 2.116a12.053 12.053 0 01-.174-1.968c0-6.72 5.467-12.188 12.188-12.188 6.72 0 12.187 5.468 12.187 12.188 0 .308-.023.61-.046.913a3.627 3.627 0 00-2.391-.913 3.66 3.66 0 00-3.657 3.656 3.659 3.659 0 003.635 3.654 12.252 12.252 0 01-4.307 3.59zm4.33-6.024a1.22 1.22 0 010-2.438 1.22 1.22 0 010 2.438z"/>
            <path d="M75.563 39.318c0-10.752-8.749-19.5-19.5-19.5-10.095 0-18.422 7.712-19.402 17.553-.034-.007-.067-.02-.1-.028l-7.534-1.506-.72-2.88a9.796 9.796 0 003.881-4.607h.718a4.88 4.88 0 004.875-4.875c0-1.127-.4-2.153-1.045-2.98l.653-2.611c.26-1.044.392-2.117.392-3.192 0-6.581-5.355-11.937-11.936-11.937H22.42a11.995 11.995 0 00-9.549 4.775l-.315.42-.186.125a8.605 8.605 0 00-3.84 7.175c0 .704.087 1.409.257 2.091l.788 3.153a4.833 4.833 0 00-1.045 2.98 4.88 4.88 0 004.875 4.875h.718a9.796 9.796 0 003.882 4.607l-.72 2.88-7.534 1.508a12.156 12.156 0 00-7.094 4.316A12.184 12.184 0 000 49.24v9.578h2.438v19.5h41.437v-19.5h2.438v-2.639a19.355 19.355 0 004.874 1.997v15.267a4.88 4.88 0 004.876 4.875 4.88 4.88 0 004.874-4.875V58.176c8.397-2.173 14.626-9.792 14.626-18.858zm-45.609-.81l-1.44 5.041-3.393-2.035 3.31-3.31 1.523.305zm2.952-12.596h-.084c.05-.4.084-.806.084-1.22v-3.655a2.44 2.44 0 012.438 2.437 2.44 2.44 0 01-2.438 2.438zm-19.5 0a2.44 2.44 0 01-2.437-2.438 2.44 2.44 0 012.437-2.437v3.656c0 .413.034.819.084 1.219h-.084zm.134-7.313h-.134c-.603 0-1.175.124-1.708.325l-.544-2.175a6.176 6.176 0 012.57-6.647l.532-.355.565-.755a9.548 9.548 0 017.6-3.8h3.424c5.237 0 9.499 4.262 9.499 9.5 0 .876-.108 1.751-.32 2.6l-.41 1.632a4.829 4.829 0 00-1.708-.325v-.34a3.32 3.32 0 00-4.365-3.146l-1.124.376a13.138 13.138 0 01-4.151.673 2.55 2.55 0 01-2.547-2.548c0-.97.54-1.845 1.406-2.277l.356-.178-1.087-2.183-.357.178a4.956 4.956 0 00-2.712 3.794l-.875.437a7.261 7.261 0 00-3.91 5.214zm2.304 6.094v-4.765a4.845 4.845 0 012.694-4.36l.117-.058a4.993 4.993 0 004.61 3.09c1.675 0 3.33-.27 4.924-.8l1.117-.373a.887.887 0 011.163.832v6.434a7.32 7.32 0 01-7.313 7.312 7.32 7.32 0 01-7.312-7.312zm7.312 9.75c1.01 0 1.983-.155 2.9-.44l.626 2.504-3.526 3.525-3.524-3.525.626-2.504c.915.285 1.89.44 2.898.44zm-5.276 3.76l3.31 3.311-3.393 2.035-1.44-5.04 1.523-.305zM4.875 58.819H9.75V75.88H4.875V58.818zM41.438 75.88h-4.876V58.818h4.876V75.88zm2.437-19.5h-7.313v-2.15c0-1.595.377-3.191 1.091-4.617l-2.18-1.091a12.824 12.824 0 00-1.348 5.709v21.65H12.187V54.23c0-1.971-.465-3.946-1.346-5.71l-2.18 1.092A10.38 10.38 0 019.75 54.23v2.15H2.437v-7.14a9.73 9.73 0 012.125-6.056 9.705 9.705 0 015.67-3.45l3.728-.746 2.366 8.286 5.611-3.366v7.597h2.438v-7.597l5.611 3.366 2.367-8.286 3.728.745c.172.035.339.096.51.14.168 5.915 2.968 11.175 7.284 14.644v1.863zM58.5 73.443a2.44 2.44 0 01-2.438 2.437 2.44 2.44 0 01-2.437-2.437V58.649c.8.1 1.61.169 2.438.169.827 0 1.636-.068 2.437-.17v14.795zM56.062 56.38C46.654 56.38 39 48.727 39 39.318c0-9.409 7.654-17.063 17.063-17.063 9.408 0 17.062 7.654 17.062 17.063 0 9.409-7.654 17.062-17.063 17.062z"/>
            <path d="M64.594 35.662a3.63 3.63 0 00-1.071-2.585l-2.438-2.438c-1.38-1.38-3.79-1.38-5.17 0a3.63 3.63 0 00-1.071 2.585c0 .976.38 1.895 1.071 2.585l2.438 2.438a3.63 3.63 0 002.584 1.07c.977 0 1.896-.38 2.586-1.07a3.63 3.63 0 001.07-2.585zm-2.795.861a1.235 1.235 0 01-1.723 0l-2.438-2.437a1.197 1.197 0 01-.357-.862c0-.33.125-.629.357-.861a1.2 1.2 0 01.862-.358c.33 0 .628.125.862.357l2.437 2.438c.233.233.357.531.357.862 0 .33-.124.629-.357.861zM48.75 33.224h2.438v2.438H48.75v-2.438zm6.094 6.094h2.437v2.437h-2.437v-2.437z"/>
        </g>
        <defs>
            <clipPath id="acclip0">
                <path fill="#fff" transform="translate(0 .618)" d="M0 0h78v78H0z"/>
            </clipPath>
        </defs>
    </svg>
    <svg fill="none" viewBox="0 0 86 86" id="about-us-4" xmlns="http://www.w3.org/2000/svg">
        <path d="M84.567 83.133h-8.6v-47.3c0-.791-.642-1.433-1.434-1.433H54.467V1.433C54.467.642 53.825 0 53.033 0H15.767c-.792 0-1.434.642-1.434 1.433v81.7h-12.9a1.433 1.433 0 000 2.867h83.134a1.433 1.433 0 000-2.867zm-54.467 0h-5.733v-12.9c0-.791.641-1.433 1.433-1.433h2.867c.791 0 1.433.642 1.433 1.433v12.9zm5.733-47.3v47.3h-2.866v-12.9a4.3 4.3 0 00-4.3-4.3H25.8a4.3 4.3 0 00-4.3 4.3v12.9h-4.3V2.867h34.4V34.4H37.267c-.792 0-1.434.642-1.434 1.433zm37.267 47.3H38.7V37.267h34.4v45.866z" fill="#fff"/>
        <path d="M45.867 20.067h-8.6c-.792 0-1.434.641-1.434 1.433v8.6c0 .791.642 1.433 1.434 1.433h8.6c.791 0 1.433-.642 1.433-1.433v-8.6c0-.792-.642-1.433-1.433-1.433zm-1.434 8.6H38.7v-5.734h5.733v5.734zm1.434-22.934h-8.6c-.792 0-1.434.642-1.434 1.434v8.6c0 .791.642 1.433 1.434 1.433h8.6c.791 0 1.433-.642 1.433-1.433v-8.6c0-.792-.642-1.434-1.433-1.434zm-1.434 8.6H38.7V8.6h5.733v5.733zm-12.9 5.734h-8.6c-.791 0-1.433.641-1.433 1.433v8.6c0 .791.642 1.433 1.433 1.433h8.6c.792 0 1.434-.642 1.434-1.433v-8.6c0-.792-.642-1.433-1.434-1.433zm-1.433 8.6h-5.733v-5.734H30.1v5.734zm1.433-22.934h-8.6c-.791 0-1.433.642-1.433 1.434v8.6c0 .791.642 1.433 1.433 1.433h8.6c.792 0 1.434-.642 1.434-1.433v-8.6c0-.792-.642-1.434-1.434-1.434zm-1.433 8.6h-5.733V8.6H30.1v5.733zM31.533 34.4h-8.6c-.791 0-1.433.642-1.433 1.434v8.6c0 .791.642 1.433 1.433 1.433h8.6c.792 0 1.434-.642 1.434-1.433v-8.6c0-.792-.642-1.434-1.434-1.434zM30.1 43h-5.733v-5.733H30.1V43zm1.433 5.733h-8.6c-.791 0-1.433.642-1.433 1.434v8.6c0 .791.642 1.433 1.433 1.433h8.6c.792 0 1.434-.642 1.434-1.433v-8.6c0-.792-.642-1.434-1.434-1.434zm-1.433 8.6h-5.733V51.6H30.1v5.733zm28.667 8.6h8.6c.791 0 1.433-.641 1.433-1.433v-8.6c0-.791-.642-1.433-1.433-1.433h-8.6c-.792 0-1.434.642-1.434 1.433v8.6c0 .792.642 1.433 1.434 1.433zm1.433-8.6h5.733v5.734H60.2v-5.733zM58.767 51.6h8.6c.791 0 1.433-.642 1.433-1.433v-8.6c0-.792-.642-1.434-1.433-1.434h-8.6c-.792 0-1.434.642-1.434 1.434v8.6c0 .791.642 1.433 1.434 1.433zM60.2 43h5.733v5.733H60.2V43zm-1.433 37.267h8.6c.791 0 1.433-.642 1.433-1.434v-8.6c0-.791-.642-1.433-1.433-1.433h-8.6c-.792 0-1.434.642-1.434 1.433v8.6c0 .792.642 1.434 1.434 1.434zm1.433-8.6h5.733V77.4H60.2v-5.733zm-15.767-5.734h8.6c.792 0 1.434-.641 1.434-1.433v-8.6c0-.791-.642-1.433-1.434-1.433h-8.6c-.791 0-1.433.642-1.433 1.433v8.6c0 .792.642 1.433 1.433 1.433zm1.434-8.6H51.6v5.734h-5.733v-5.733zM44.433 51.6h8.6c.792 0 1.434-.642 1.434-1.433v-8.6c0-.792-.642-1.434-1.434-1.434h-8.6c-.791 0-1.433.642-1.433 1.434v8.6c0 .791.642 1.433 1.433 1.433zm1.434-8.6H51.6v5.733h-5.733V43zm-1.434 37.267h8.6c.792 0 1.434-.642 1.434-1.434v-8.6c0-.791-.642-1.433-1.434-1.433h-8.6c-.791 0-1.433.642-1.433 1.433v8.6c0 .792.642 1.434 1.433 1.434zm1.434-8.6H51.6V77.4h-5.733v-5.733z" fill="#fff"/>
    </svg>
    <svg fill="none" viewBox="0 0 71 71" id="about-us-5" xmlns="http://www.w3.org/2000/svg">
        <g clip-path="url(#aeclip0)" fill="#fff">
            <path d="M59.212.279H11.787c-4.435 0-8.043 3.572-8.043 7.963v50.803c0 2.27 1.866 4.119 4.16 4.119h18.212a1.38 1.38 0 001.387-1.373 1.38 1.38 0 00-1.387-1.373H7.904a1.381 1.381 0 01-1.386-1.373V8.242c0-2.877 2.364-5.217 5.27-5.217h41.356a7.884 7.884 0 00-1.975 5.217v44.249c0 1.267-1.04 2.297-2.32 2.297-1 0-1.884-.631-2.201-1.57l-2.09-6.21a4.319 4.319 0 00-4.106-2.93c-2.387 0-4.328 1.923-4.328 4.286v1.07h-7.188a1.38 1.38 0 00-1.386 1.372c0 .759.62 1.373 1.386 1.373h7.188v6.831c0 2.028.4 4.005 1.187 5.875l2.04 4.848a1.387 1.387 0 001.813.74 1.368 1.368 0 00.747-1.796l-2.04-4.848a12.36 12.36 0 01-.974-4.818V48.364c0-.849.698-1.54 1.555-1.54.67 0 1.263.424 1.475 1.053l2.09 6.209a5.084 5.084 0 004.832 3.448c2.809 0 5.094-2.262 5.094-5.043V28.95l1.853 1.83c3.306 3.268 5.127 7.615 5.127 12.24v14.595c0 3.78-.865 7.585-2.501 11a1.367 1.367 0 00.659 1.83 1.392 1.392 0 001.847-.653 28.367 28.367 0 002.768-12.177V43.021c0-5.36-2.11-10.397-5.94-14.184l-3.813-3.767v-1.312h9.152c2.294 0 4.16-1.848 4.16-4.12V8.242c0-4.39-3.607-7.963-8.043-7.963zm5.27 19.36c0 .756-.622 1.373-1.387 1.373h-9.152V8.242c0-2.877 2.364-5.217 5.27-5.217 2.905 0 5.269 2.34 5.269 5.217v11.396z"/>
            <path d="M32.172 60.417a1.378 1.378 0 00-1.387 1.373 1.376 1.376 0 001.387 1.374c.364 0 .722-.147.98-.403.258-.255.407-.609.407-.97a1.378 1.378 0 00-1.387-1.373zM22.835 10.44c0-1.515-1.244-2.747-2.774-2.747H13.96c-1.53 0-2.774 1.232-2.774 2.746v6.042c0 1.514 1.244 2.746 2.774 2.746h6.101c1.53 0 2.774-1.232 2.774-2.746v-6.042zm-2.774 6.04H13.96v-6.04h6.101l.002 6.04h-.002zm2.774 10.436c0-1.514-1.244-2.746-2.774-2.746H13.96c-1.53 0-2.774 1.232-2.774 2.746v6.041c0 1.514 1.244 2.746 2.774 2.746h6.101c1.53 0 2.774-1.232 2.774-2.746v-6.041zm-2.774 6.041H13.96v-6.041h6.101l.002 6.041h-.002zm0 7.689H13.96c-1.53 0-2.774 1.232-2.774 2.746v6.041c0 1.515 1.244 2.746 2.774 2.746h6.101c1.53 0 2.774-1.231 2.774-2.746v-6.04c0-1.515-1.244-2.747-2.774-2.747zm0 8.787H13.96v-6.04h6.101l.002 6.04h-.002zm24.776-30.206a1.38 1.38 0 001.387-1.373 1.38 1.38 0 00-1.387-1.373h-9.56a1.38 1.38 0 00-1.386 1.372c0 .759.62 1.374 1.386 1.374h9.56zm-15.901 0c.366 0 .723-.147.98-.403.259-.255.407-.61.407-.97a1.377 1.377 0 00-1.387-1.373c-.366 0-.722.146-.98.402-.259.255-.406.61-.406.97 0 .361.147.716.406.971a1.4 1.4 0 00.98.403zm0 16.476h15.901a1.38 1.38 0 001.387-1.373 1.38 1.38 0 00-1.387-1.373H28.936a1.38 1.38 0 00-1.387 1.373 1.38 1.38 0 001.387 1.373z"/>
        </g>
        <defs>
            <clipPath id="aeclip0">
                <path fill="#fff" transform="translate(0 .279)" d="M0 0h71v70.3H0z"/>
            </clipPath>
        </defs>
    </svg>
    <svg fill="none" viewBox="0 0 76 70" id="about-us-6" xmlns="http://www.w3.org/2000/svg">
        <path d="M43 38.207h18m0 0L53.884 32M61 38.207L53.884 44" stroke="#fff" stroke-width="3" stroke-linecap="round" stroke-linejoin="round"/>
        <rect x="1.5" y="1.5" width="73" height="67" rx="4.5" stroke="#fff" stroke-width="3"/>
        <path stroke="#fff" stroke-width="3" d="M2 13.5h73"/>
        <circle cx="25" cy="33" r="3.5" stroke="#fff" stroke-width="3"/>
        <path d="M35 51v-3a7 7 0 00-7-7h-6a7 7 0 00-7 7v3" stroke="#fff" stroke-width="3" stroke-linecap="round"/>
    </svg>
    <svg fill="none" viewBox="0 0 7 6" id="arrow" xmlns="http://www.w3.org/2000/svg">
        <path d="M3.92 5.354a.5.5 0 01-.84 0L.106.772A.5.5 0 01.524 0h5.952a.5.5 0 01.42.772L3.918 5.354z" fill="#fff"/>
    </svg>
    <svg fill="none" viewBox="0 0 15 16" id="arrow-double" xmlns="http://www.w3.org/2000/svg">
        <path d="M1 1l7 7.412L1 15" stroke="#EFAF22" stroke-width="2" stroke-linecap="round" stroke-linejoin="round"/>
        <path d="M7 1l7 7.412L7 15" stroke="#EFAF22" stroke-width="2" stroke-linecap="round" stroke-linejoin="round"/>
    </svg>
    <svg fill="none" viewBox="0 0 20 20" id="arrow-pagination-left" xmlns="http://www.w3.org/2000/svg">
        <path d="M10.071 3l-7.07 7.071 7.07 7.071" stroke="#727075" stroke-width="3" stroke-linecap="round" stroke-linejoin="round"/>
    </svg>
    <svg fill="none" viewBox="0 0 20 20" id="arrow-pagination-right" xmlns="http://www.w3.org/2000/svg">
        <path d="M10.072 3l7.07 7.071-7.07 7.071" stroke="#E89A04" stroke-width="3" stroke-linecap="round" stroke-linejoin="round"/>
    </svg>
    <svg fill="none" viewBox="0 0 20 20" id="pagination-arrow" xmlns="http://www.w3.org/2000/svg">
        <path d="M10.072 3l7.07 7.071-7.07 7.071" stroke-width="3" stroke-linecap="round" stroke-linejoin="round"/>
    </svg>
    <svg fill="none" viewBox="0 0 54 54" id="call" xmlns="http://www.w3.org/2000/svg">
        <path d="M35.762 15.216l2.558 1.48c.51.295.956.7 1.143 1.26.611 1.833 1.149 6.767-5.906 14.782-7.054 8.015-12.017 8.108-13.913 7.735-.579-.114-1.037-.505-1.395-.974l-1.792-2.35a3.984 3.984 0 00-5.584-.75l-6.656 5.077a3.984 3.984 0 00-1.138 4.966l1.03 2.034a7.32 7.32 0 003.68 3.436c1.332.563 2.724.977 4.17.953 4.558-.076 15.69-1.786 27.365-15.05C51 24.548 51.282 13.29 50.78 8.76c-.16-1.438-.747-2.766-1.475-4.016a7.32 7.32 0 00-3.876-3.214L43.282.767a3.984 3.984 0 00-4.782 1.76l-4.191 7.246a3.984 3.984 0 001.454 5.443z" fill="#fff"/>
    </svg>
    <svg fill="none" viewBox="0 0 77 77" id="chat" xmlns="http://www.w3.org/2000/svg">
        <path d="M63 31.286C63 43.594 49.952 53.57 33.857 53.57c-4.278 0-8.34-.704-12-1.97-2.867-.993-14.242 3.5-17.793 4.956a.512.512 0 01-.678-.64c1.202-3.423 4.728-13.922 3.562-16.06-1.44-2.639-2.234-5.534-2.234-8.571C4.714 18.978 17.762 9 33.857 9S63 18.978 63 31.286z" stroke="#fff" stroke-width="4"/>
        <circle cx="23.5" cy="32.5" r="2.5" fill="#fff"/>
        <circle cx="32.5" cy="32.5" r="2.5" fill="#fff"/>
        <circle cx="41.5" cy="32.5" r="2.5" fill="#fff"/>
    </svg>
    <svg fill="none" viewBox="0 0 20 20" id="clock" xmlns="http://www.w3.org/2000/svg">
        <circle cx="10" cy="10" r="10" fill="#E89A04"/>
        <path d="M10 7a1 1 0 112 0v4a1 1 0 01-1 1H7a1 1 0 110-2h3V7z" fill="#fff"/>
    </svg>
    <svg fill="none" viewBox="0 0 20 20" id="clock-w" xmlns="http://www.w3.org/2000/svg">
        <circle cx="10" cy="10" r="10" fill="#fff"/>
        <path d="M10 7a1 1 0 112 0v4a1 1 0 01-1 1H7a1 1 0 110-2h3V7z" fill="#414042"/>
    </svg>
    <svg fill="none" viewBox="0 0 30 30" id="close" xmlns="http://www.w3.org/2000/svg">
        <rect x="21.363" y="7.221" width="2" height="20" rx=".5" transform="rotate(45 21.363 7.22)" fill="#E7E7E7"/>
        <rect x="22.777" y="21.363" width="2" height="20" rx=".5" transform="rotate(135 22.777 21.363)" fill="#E7E7E7"/>
    </svg>
    <svg fill="none" viewBox="0 0 47 47" id="fb" xmlns="http://www.w3.org/2000/svg">
        <path d="M29.014 10.82l-3.338-.005c-3.75 0-6.173 2.554-6.173 6.507v3h-3.355a.532.532 0 00-.525.54v4.346c0 .298.235.539.525.539h3.355v10.968c0 .298.235.539.525.539h4.379c.29 0 .524-.241.524-.54V25.748h3.924c.29 0 .525-.241.525-.539l.002-4.347a.547.547 0 00-.154-.38.518.518 0 00-.372-.159h-3.925V17.78c0-1.223.284-1.843 1.834-1.843h2.248c.29 0 .525-.242.525-.54V11.36a.532.532 0 00-.524-.54z" fill="#fff"/>
        <circle cx="23.434" cy="23.434" r="22.434" stroke="#fff" stroke-width="2"/>
    </svg>
    <svg fill="none" viewBox="0 0 17 18" id="human" xmlns="http://www.w3.org/2000/svg">
        <path d="M8 8a4 4 0 100-8 4 4 0 000 8zm0 2a9.985 9.985 0 00-8 4 9.985 9.985 0 008 4 9.985 9.985 0 008.002-4A9.985 9.985 0 008 10z" fill="#fff"/>
    </svg>
    <svg fill="none" viewBox="0 0 47 47" id="inst" xmlns="http://www.w3.org/2000/svg">
        <path fill-rule="evenodd" clip-rule="evenodd" d="M12.403 21.303c0-4.124 0-6.187 1.05-7.633a5.51 5.51 0 011.218-1.216c1.445-1.05 3.508-1.05 7.633-1.05h4.235c4.124 0 6.187 0 7.632 1.05.467.339.878.75 1.217 1.216 1.05 1.446 1.05 3.509 1.05 7.633v4.235c0 4.125 0 6.188-1.05 7.633a5.51 5.51 0 01-1.217 1.217c-1.445 1.05-3.508 1.05-7.632 1.05h-4.236c-4.124 0-6.187 0-7.632-1.05a5.5 5.5 0 01-1.217-1.217c-1.05-1.445-1.05-3.508-1.05-7.633v-4.235zm12.018-4.244a6.363 6.363 0 100 12.725 6.363 6.363 0 000-12.725zm0 10.338a3.982 3.982 0 01-3.976-3.976 3.98 3.98 0 013.976-3.976 3.98 3.98 0 013.976 3.976 3.982 3.982 0 01-3.976 3.976zm7.687-10.816a.848.848 0 11-1.695 0 .848.848 0 011.695 0z" fill="#fff"/>
        <circle cx="23.566" cy="23.434" r="22.434" stroke="#fff" stroke-width="2"/>
    </svg>
    <svg fill="none" viewBox="0 0 20 20" id="mail" xmlns="http://www.w3.org/2000/svg">
        <circle cx="10" cy="10" r="10" fill="#E89A04"/>
        <path d="M13.362 6H6.638a1.013 1.013 0 00-.633 1.804l1.996 1.597c.713.57 1.07.856 1.466.965.349.097.717.097 1.066 0 .396-.11.753-.394 1.466-.965l1.996-1.597A1.013 1.013 0 0013.362 6z" fill="#fff"/>
        <path d="M8.825 14h2.35c1.12 0 1.68 0 2.108-.218a2 2 0 00.874-.874c.218-.428.218-.988.218-2.108V8.25l-1.377 1.101c-1.07.856-1.605 1.284-2.198 1.448a3 3 0 01-1.6 0c-.593-.164-1.128-.592-2.199-1.448L5.625 8.25v2.55c0 1.12 0 1.68.218 2.108a2 2 0 00.874.874c.428.218.988.218 2.108.218z" fill="#fff"/>
    </svg>
    <svg id="mail-w" width="20" height="20" viewBox="0 0 20 20" fill="none" xmlns="http://www.w3.org/2000/svg">
        <circle cx="10" cy="10" r="10" fill="white"/>
        <path d="M13.3619 6H6.63809C6.07857 6 5.625 6.45357 5.625 7.01309C5.625 7.32084 5.7649 7.61192 6.00522 7.80417L8.00098 9.40078L8.00098 9.40078C8.71441 9.97153 9.07113 10.2569 9.46674 10.3663C9.81569 10.4629 10.1843 10.4629 10.5333 10.3663C10.9289 10.2569 11.2856 9.97153 11.999 9.40078L13.9948 7.80417C14.2351 7.61192 14.375 7.32084 14.375 7.01309C14.375 6.45357 13.9214 6 13.3619 6Z" fill="#414042"/>
        <path d="M8.825 14H11.175C12.2951 14 12.8552 14 13.283 13.782C13.6593 13.5903 13.9653 13.2843 14.157 12.908C14.375 12.4802 14.375 11.9201 14.375 10.8V8.25L12.9985 9.35117C11.9284 10.2073 11.3933 10.6354 10.7999 10.7995C10.2765 10.9443 9.72354 10.9443 9.20011 10.7995C8.6067 10.6354 8.07162 10.2073 7.00147 9.35117L7.00146 9.35117L5.625 8.25V10.8C5.625 11.9201 5.625 12.4802 5.84299 12.908C6.03473 13.2843 6.34069 13.5903 6.71702 13.782C7.14484 14 7.70489 14 8.825 14Z" fill="#414042"/>
    </svg>
    <svg fill="none" viewBox="0 0 20 20" id="phone" xmlns="http://www.w3.org/2000/svg">
        <path fill-rule="evenodd" clip-rule="evenodd" d="M10 20c5.523 0 10-4.477 10-10S15.523 0 10 0 0 4.477 0 10s4.477 10 10 10zm3.232-8.639l1.544 1.548c.307.309.297.82-.02 1.14l-.442.432-.01-.009a2.606 2.606 0 01-1.274.52c-.1.011-2.435.23-5.333-2.674-2.097-2.101-2.87-3.65-2.665-5.344.023-.212.075-.422.16-.643.09-.232.212-.448.358-.634l-.012-.012.435-.439c.319-.32.829-.329 1.135-.021l1.545 1.548c.307.308.298.818-.02 1.138l-.258.257-.522.523.072.128.012.022.001.003c.273.493.647 1.167 1.355 1.876.708.71 1.38 1.084 1.872 1.357l.153.086.778-.78c.319-.32.828-.329 1.136-.021z" fill="#E89A04"/>
    </svg>
    <svg fill="none" viewBox="0 0 20 20" id="phone-w" xmlns="http://www.w3.org/2000/svg">
        <path fill-rule="evenodd" clip-rule="evenodd" d="M10 20c5.523 0 10-4.477 10-10S15.523 0 10 0 0 4.477 0 10s4.477 10 10 10zm3.232-8.639l1.544 1.548c.307.309.297.82-.02 1.14l-.442.432-.01-.009a2.606 2.606 0 01-1.274.52c-.1.011-2.435.23-5.333-2.674-2.097-2.101-2.87-3.65-2.665-5.344.023-.212.075-.422.16-.643.09-.232.212-.448.358-.634l-.012-.012.435-.439c.319-.32.829-.329 1.135-.021l1.545 1.548c.307.308.298.818-.02 1.138l-.258.257-.522.523.072.128.012.022.001.003c.273.493.647 1.167 1.355 1.876.708.71 1.38 1.084 1.872 1.357l.153.086.778-.78c.319-.32.828-.329 1.136-.021z" fill="#fff"/>
    </svg>
    <svg fill="none" viewBox="0 0 111 111" id="play" xmlns="http://www.w3.org/2000/svg">
        <circle cx="55.5" cy="55.5" r="53.5" stroke="#fff" stroke-width="4"/>
        <path d="M79.5 52.902c2 1.155 2 4.041 0 5.196L45.75 77.584c-2 1.154-4.5-.289-4.5-2.598V36.014c0-2.309 2.5-3.752 4.5-2.598L79.5 52.902z" fill="#fff"/>
    </svg>
    <svg fill="none" viewBox="0 0 20 20" id="point" xmlns="http://www.w3.org/2000/svg">
        <circle cx="10" cy="10" r="10" fill="#E89A04"/>
        <path fill-rule="evenodd" clip-rule="evenodd" d="M14 9.023a4.02 4.02 0 01-.715 2.296l-2.803 4.416a.57.57 0 01-.964 0l-2.79-4.398A4.02 4.02 0 016 9.023C6 6.8 7.79 5 10 5s4 1.801 4 4.023zm-4 2.298a2.292 2.292 0 002.286-2.298A2.292 2.292 0 0010 6.724a2.292 2.292 0 00-2.286 2.299A2.292 2.292 0 0010 11.32z" fill="#fff"/>
    </svg>
    <svg fill="none" viewBox="0 0 20 20" id="point-w" xmlns="http://www.w3.org/2000/svg">
        <circle cx="10" cy="10" r="10" fill="#fff"/>
        <path fill-rule="evenodd" clip-rule="evenodd" d="M14 9.023a4.02 4.02 0 01-.715 2.296l-2.803 4.416a.57.57 0 01-.964 0l-2.79-4.398A4.02 4.02 0 016 9.023C6 6.8 7.79 5 10 5s4 1.801 4 4.023zm-4 2.298a2.292 2.292 0 002.286-2.298A2.292 2.292 0 0010 6.724a2.292 2.292 0 00-2.286 2.299A2.292 2.292 0 0010 11.32z" fill="#414042"/>
    </svg>
    <svg fill="none" viewBox="0 0 24 25" id="search" xmlns="http://www.w3.org/2000/svg">
        <path fill-rule="evenodd" clip-rule="evenodd" d="M19.263 10.19c0 5.33-4.267 9.65-9.531 9.65S.2 15.52.2 10.19 4.468.537 9.732.537s9.531 4.321 9.531 9.651zm-16.68 0c0 3.997 3.2 7.237 7.149 7.237 3.948 0 7.148-3.24 7.148-7.238 0-3.997-3.2-7.238-7.148-7.238-3.948 0-7.15 3.24-7.15 7.238z" fill="#414042"/>
        <path fill-rule="evenodd" clip-rule="evenodd" d="M21.379 24.29a1.181 1.181 0 001.684.044 1.217 1.217 0 00.043-1.706l-6.553-6.985a1.181 1.181 0 00-1.684-.043 1.217 1.217 0 00-.043 1.705l6.553 6.985z" fill="#414042"/>
    </svg>
    <svg viewBox="0 0 105 105" id="service-1" xmlns="http://www.w3.org/2000/svg">
        <g clip-path="url(#baclip0)">
            <path d="M80.407 7a24.912 24.912 0 01-12.285-3.245A30.68 30.68 0 0052.99-.001c-.165 0-.326.014-.49.018-.164.003-.325-.018-.49-.018a30.68 30.68 0 00-15.132 3.756 24.544 24.544 0 01-12.311 3.244H24.5C10.99 7 0 14.458 0 23.624a13.29 13.29 0 004.154 9.29 7.09 7.09 0 00-.654 2.96c0 5.397 6.15 9.625 14 9.625s14-4.228 14-9.625a8.358 8.358 0 00-3.932-6.743 8.4 8.4 0 012.931-3.087 3.707 3.707 0 014.858 1.033c.962 1.53 1.199 8.479 1.386 14.063.273 8.092.555 16.46 2.502 20.578a1.75 1.75 0 003.165-1.498c-1.637-3.46-1.925-11.82-2.17-19.197-.282-8.358-.525-13.594-1.925-15.812a7.192 7.192 0 00-9.522-2.224 11.966 11.966 0 00-4.31 4.515A19.32 19.32 0 0017.5 26.25a16.653 16.653 0 00-11.224 3.824 9.56 9.56 0 01-2.776-6.45c0-7.238 9.42-13.125 21.082-13.125h.074a28.205 28.205 0 006.92-.875 11.486 11.486 0 00-1.826 6.125 1.75 1.75 0 103.5 0c0-6.65 8.594-12.075 19.25-12.234 10.656.16 19.25 5.584 19.25 12.234a1.75 1.75 0 103.5 0 11.467 11.467 0 00-1.827-6.125 28.69 28.69 0 007 .875h.077c11.58 0 21 5.887 21 13.125a9.561 9.561 0 01-2.775 6.449A16.653 16.653 0 0087.5 26.249a19.373 19.373 0 00-6.918 1.225 11.954 11.954 0 00-4.292-4.487 7.2 7.2 0 00-9.526 2.224c-1.4 2.218-1.641 7.454-1.925 15.812-.248 7.376-.525 15.736-2.168 19.197a1.75 1.75 0 103.164 1.498c1.946-4.118 2.23-12.486 2.503-20.578.187-5.584.423-12.534 1.387-14.063a3.705 3.705 0 014.86-1.03 8.342 8.342 0 012.903 3.04 8.377 8.377 0 00-3.988 6.787c0 5.397 6.15 9.625 14 9.625s14-4.228 14-9.625a7.084 7.084 0 00-.655-2.96 13.288 13.288 0 004.155-9.29C105 14.458 94.01 7 80.407 7zM17.5 29.75c2.4-.03 4.774.51 6.927 1.574l.014.01h.012A5.6 5.6 0 0128 35.875C28 39.2 23.191 42 17.5 42S7 39.2 7 35.874a3.85 3.85 0 01.7-2.128v-.014c1.53-2.3 5.395-3.983 9.8-3.983zM87.5 42C81.809 42 77 39.2 77 35.873c0-3.892 6.023-6.125 10.5-6.125 4.405 0 8.269 1.684 9.8 3.981l.009.014a3.85 3.85 0 01.691 2.13C98 39.2 93.191 42 87.5 42z"/>
            <path d="M52.5 82.25a1.75 1.75 0 001.75-1.75V47.901a8.766 8.766 0 007-8.575v-7a8.75 8.75 0 10-17.5 0v7a8.766 8.766 0 007 8.575V80.5c0 .966.783 1.75 1.75 1.75zm-5.25-42.922v-7a5.25 5.25 0 1110.5 0v7a5.25 5.25 0 01-5.233 5.25h-.034a5.25 5.25 0 01-5.233-5.25z"/>
        </g>
        <defs>
            <clipPath id="baclip0">
                <path fill="#fff" d="M0 0h105v105H0z"/>
            </clipPath>
        </defs>
    </svg>
    <svg viewBox="0 0 107 107" id="service-10" xmlns="http://www.w3.org/2000/svg">
        <g clip-path="url(#bbclip0)">
            <path d="M58.315 15.654a1.783 1.783 0 10-2.522 2.522l7.917 7.916a3.51 3.51 0 00.91 3.433c3.14 3.14 5.493 5.956 10.89 6.598a17.774 17.774 0 0110.636 4.838l8.738 8.739a7.135 7.135 0 009.874-10.3l-8.526-8.527a17.777 17.777 0 01-4.836-10.636c-.664-5.528-3.76-8.048-6.599-10.89a3.567 3.567 0 00-3.43-.908L73.45.522a1.783 1.783 0 00-2.522 2.522l7.567 7.567-2.525 2.521-7.563-7.564a1.783 1.783 0 00-2.522 2.521l7.565 7.565-2.522 2.522-7.566-7.565a1.783 1.783 0 00-2.522 2.521l7.567 7.565-2.523 2.524-7.569-7.567zm29.54 5.01a21.3 21.3 0 005.856 12.732l8.526 8.526a3.796 3.796 0 01.394 5.063 3.68 3.68 0 01-5.225.195l-8.739-8.739a21.297 21.297 0 00-12.733-5.858c-4.205-.5-6.063-2.853-8.793-5.58l15.137-15.128c2.82 2.816 5.077 4.592 5.58 8.788h-.004z"/>
            <path d="M80.624 73.202c-2.155-6.256.616-14.69 1.372-28.556a1.786 1.786 0 00-3.567-.197c-.734 13.52-3.447 21.818-1.464 29.008-7.338.672-16.332 2.502-16.332 6.793a4.176 4.176 0 002.426 3.388l.872 4.36c-2.122.298-4.434.535-6.905.714V76.376a33.477 33.477 0 007.903-14.127c2.854-.754 8.188-3.37 8.188-12.387 0-4.171-.963-6.686-2.946-7.688a4.303 4.303 0 00-3.164-.228c0-1.136-.04-2.261-.12-3.328a1.784 1.784 0 00-.511-1.122c-6.88-6.937-9.844-7.18-22.684-7.18-8.539 0-11.744-4.879-12.894-7.789a1.783 1.783 0 00-2.746-.756c-5.093 3.923-7.599 10.521-7.668 20.176a4.308 4.308 0 00-3.162.227c-1.992 1.002-2.955 3.517-2.955 7.688 0 8.988 5.298 11.615 8.157 12.376a33.115 33.115 0 007.959 14.213v12.26C12.127 87.382 7.478 83.36 5.04 80.606c11.77-5.629 2.08-28.325 3.798-46.248 1.753-18.197 17.02-19.033 21.666-18.867.383.042.77-.032 1.111-.213a43.617 43.617 0 0124.177-4.338 1.784 1.784 0 00.383-3.547 47.634 47.634 0 00-25.835 4.524c-11.043-.284-23.435 5.321-25.054 22.099C3.492 52.742 13.21 75.34 1.737 77.983a1.801 1.801 0 00-.88 3.301c2.908 2.675 5.064 9.302 29.72 11.025a5.371 5.371 0 005.186 4.002h15.943a5.263 5.263 0 005.13-4.006c2.8-.194 5.41-.463 7.796-.804 1.622 8.11 1.351 5.885 1.351 10.149a5.35 5.35 0 005.35 5.35H96.3a5.35 5.35 0 005.35-5.35c0-4.523-.476-1.013 2.925-18.012A4.177 4.177 0 00107 80.25c0-6.44-19.829-7.358-26.376-7.048zM68.56 45.357c.041.02.99.535.99 4.505 0 4.77-1.783 7.073-3.652 8.18a74.914 74.914 0 001.091-12.235c.82-.47 1.375-.551 1.571-.45zm-50.727 4.505c0-3.96.95-4.485.99-4.505.196-.098.75-.018 1.57.451a75.96 75.96 0 001.07 12.223c-1.864-1.11-3.63-3.413-3.63-8.17zm9.932 16.515c-3.196-6.823-3.838-14.234-3.838-23.978 0-7.515 1.53-12.88 4.669-16.305 1.994 3.34 6.302 7.79 15.096 7.79 12.34 0 14.18.187 19.682 5.654.056.924.082 1.883.082 2.854 0 9.722-.649 17.12-3.882 23.976-3.745 7.974-9.084 12.017-15.882 12.017-6.852.007-12.209-4.034-15.927-12.008zm23.941 26.367H35.763a1.783 1.783 0 01-1.794-2.01c0-.09-.02 1.275-.02-11.476a18.795 18.795 0 0019.51-.042V90.95a1.756 1.756 0 01-1.753 1.794zm32.11-16.06c10.861 0 18.246 2.253 19.512 3.566-1.266 1.313-8.65 3.567-19.511 3.567-10.86 0-18.246-2.254-19.512-3.567 1.266-1.313 8.651-3.567 19.512-3.567zm14.267 24.966c0 .985-.798 1.783-1.783 1.783H71.333a1.783 1.783 0 01-1.783-1.783v-1.783h17.833a1.783 1.783 0 100-3.567H69.23l-2.2-10.998a69.675 69.675 0 0033.576 0c-3.007 15.032-2.522 11.355-2.522 16.348z"/>
        </g>
        <defs>
            <clipPath id="bbclip0">
                <path fill="#fff" d="M0 0h107v107H0z"/>
            </clipPath>
        </defs>
    </svg>
    <svg viewBox="0 0 106 106" id="service-11" xmlns="http://www.w3.org/2000/svg">
        <g clip-path="url(#bcclip0)">
            <path d="M51.288 64.937L47.755 79.07a1.77 1.77 0 002.143 2.141l7.066-1.766a1.767 1.767 0 00-.859-3.428l-4.207 1.06 2.818-11.278a1.768 1.768 0 10-3.428-.855v-.007zm-6.686-4.815a1.767 1.767 0 00-2.147 1.276c-.014.057-1.509 5.733-5.353 5.733-3.843 0-5.338-5.676-5.352-5.733a1.768 1.768 0 00-3.428.861c.087.344 2.177 8.405 8.78 8.405 6.604 0 8.694-8.06 8.78-8.405a1.767 1.767 0 00-1.28-2.137zm24.299 10.542c6.603 0 8.694-8.06 8.78-8.405a1.768 1.768 0 00-3.427-.86c-.014.056-1.509 5.732-5.353 5.732s-5.338-5.676-5.352-5.733a1.768 1.768 0 00-3.428.861c.087.344 2.177 8.405 8.78 8.405zM58.302 14.133a5.3 5.3 0 10-10.6 0 5.3 5.3 0 0010.6 0zm-7.067 0a1.767 1.767 0 113.534 0 1.767 1.767 0 01-3.534 0z"/>
            <path d="M90.1 51.446V40.632c0-4.897-11.166-7.097-21.199-8.086V5.3a5.3 5.3 0 00-5.3-5.3H42.402a5.3 5.3 0 00-5.3 5.3v27.246c-10.033.99-21.199 3.189-21.199 8.086v10.814c-4.026.986-7.066 5.262-7.066 10.385 0 5.19 3.126 9.511 7.243 10.423C17.805 91.364 33.823 106 53.009 106c19.186 0 35.204-14.637 36.93-33.746 4.101-.912 7.228-5.232 7.228-10.423 0-5.123-3.04-9.4-7.067-10.385zM15.903 68.463a7.217 7.217 0 01-3.533-6.632 7.217 7.217 0 013.533-6.631v13.263zM40.636 5.3c0-.976.79-1.767 1.766-1.767h21.2c.975 0 1.766.791 1.766 1.767v32.473l-11.577-5.789a1.765 1.765 0 00-1.578 0l-11.578 5.79V5.3zm45.931 63.598c0 18.538-15.027 33.565-33.565 33.565-18.538 0-33.566-15.027-33.566-33.565V44.804c9.026 4.592 32.345 4.661 33.566 4.661 1.22 0 24.54-.069 33.565-4.66v24.093zM53.002 45.932c-20.846 0-32.723-3.43-33.566-5.2v-.036c.454-1.006 5.346-3.338 17.666-4.593v4.529a1.768 1.768 0 002.556 1.581l13.344-6.672 13.343 6.68a1.767 1.767 0 002.556-1.589v-4.533c12.398 1.268 17.277 3.614 17.678 4.449-.78 1.932-12.668 5.384-33.577 5.384zM90.1 68.463V55.2a7.217 7.217 0 013.534 6.631 7.217 7.217 0 01-3.534 6.632z"/>
        </g>
        <defs>
            <clipPath id="bcclip0">
                <path fill="#fff" d="M0 0h106v106H0z"/>
            </clipPath>
        </defs>
    </svg>
    <svg viewBox="0 0 97 97" id="service-12" xmlns="http://www.w3.org/2000/svg">
        <g clip-path="url(#bdclip0)">
            <path d="M10.99 39.942c3.768-7.706 9.776-12.644 16.92-13.903 4.732-.835 10.62-.485 16.578.985.433.107.87.194 1.31.266-1.244-4.087-4.73-12.281-13.855-19.337a2.088 2.088 0 012.554-3.303c4.209 3.254 7.33 6.726 9.642 10.008.56-3.106 1.823-6.824 4.616-9.618C54.437-.64 63.945.006 64.348.037a2.088 2.088 0 011.925 1.925c.03.402.678 9.91-5.004 15.593-3.83 3.83-9.398 4.783-12.745 4.989.84 2.004 1.35 3.69 1.651 4.88a16.663 16.663 0 002.337-.4c5.958-1.47 11.846-1.82 16.578-.985 7.144 1.26 13.153 6.197 16.92 13.903 3.658 7.484 4.768 16.736 3.125 26.054-1.643 9.318-5.85 17.633-11.848 23.415C72.134 94.377 66.173 97 60.19 97a20.47 20.47 0 01-3.557-.311 19.028 19.028 0 01-1.705-.386 24.352 24.352 0 00-12.856 0c-.579.158-1.152.288-1.705.385-1.183.209-2.37.312-3.557.312-5.983 0-11.944-2.622-17.097-7.59-5.998-5.78-10.205-14.096-11.848-23.414-1.643-9.317-.533-18.57 3.125-26.054zm47.326-25.34c3.001-3.001 3.665-7.756 3.789-10.397-2.643.124-7.397.787-10.397 3.788-3.002 3.001-3.665 7.756-3.79 10.397 2.643-.124 7.398-.787 10.398-3.788zm-46.34 50.67c3.036 17.21 15.448 29.459 27.666 27.304a14.7 14.7 0 001.327-.3 28.528 28.528 0 0115.062 0c.453.124.9.225 1.327.3 12.22 2.154 24.63-10.094 27.665-27.305 1.491-8.455.509-16.799-2.765-23.495C79.093 35.3 74.16 31.173 68.365 30.15c-1.422-.25-3-.374-4.677-.374-3.17 0-6.692.442-10.176 1.301a20.97 20.97 0 01-4.98.607l-.034.002-.063-.003a20.93 20.93 0 01-4.947-.606c-5.327-1.314-10.74-1.652-14.853-.927-5.794 1.022-10.728 5.15-13.893 11.625-3.274 6.696-4.256 15.04-2.765 23.495z"/>
        </g>
        <defs>
            <clipPath id="bdclip0">
                <path fill="#fff" transform="matrix(-1 0 0 1 97 0)" d="M0 0h97v97H0z"/>
            </clipPath>
        </defs>
    </svg>
    <svg viewBox="0 0 108 106" id="service-13" xmlns="http://www.w3.org/2000/svg">
        <g clip-path="url(#beclip0)">
            <path d="M106.239 45.553v-31.59a14.127 14.127 0 00-2.537-7.87A14.055 14.055 0 0097.2 1.005c-6.65-2.593-13.676.254-18.022 3.759-5.967 4.848-8.617 12.215-8.102 22.551.259 4.499.94 8.963 2.032 13.334l.066.3c.496 2.199.843 3.693 1.199 4.698a5.272 5.272 0 00-1.593 3.759v8.833a5.303 5.303 0 00.826 2.893 5.28 5.28 0 002.266 1.974c0 1.672.103 3.326.206 4.933.112 1.785.224 3.627.224 5.421 0 .47.186.918.516 1.25a1.759 1.759 0 003.006-1.25c0-1.879-.121-3.805-.234-5.637-.084-1.381-.159-2.82-.187-4.21h20.954l.159 1.767a53.866 53.866 0 01-.684 18.247c-2.285 9.18-7.381 15.035-15.156 17.337-8.533 2.555-17.628 1.221-26.424-.076l-1.376-.197c-2.501-.366-5.724-.752-9.068-1.156-4.814-.582-9.788-1.184-13.32-1.785-1.142-.197-2.285-.413-3.446-.63a64.25 64.25 0 00-14.369-1.569h-4.075a1.766 1.766 0 01-1.583-.94l-4.973-9.48a1.517 1.517 0 01.29-1.785l2.098-2.152 5.498 8.193a1.776 1.776 0 001.827.741 1.771 1.771 0 001.381-1.41 1.785 1.785 0 00-.276-1.332l-5.742-8.541-.103-.17c-.271-.479-.58-.995-.852-1.522-.843-1.569-1.05-2.574-.703-3.354a2.263 2.263 0 011.967-1.316 3.409 3.409 0 012.51.94 461.17 461.17 0 014.993 4.623c2.464 2.293 4.993 4.698 7.578 6.925 4.403 3.862 10.79 4.294 16.945 4.341 6.13.11 12.26-.1 18.368-.63a1.75 1.75 0 001.186-.609c.3-.351.45-.808.416-1.27a1.743 1.743 0 00-1.193-1.546 1.728 1.728 0 00-.68-.08 171.91 171.91 0 01-18.013.63c-5.508-.075-11.175-.404-14.687-3.439-2.53-2.198-5.04-4.557-7.494-6.83-1.686-1.589-3.353-3.186-5.048-4.69a6.9 6.9 0 00-5.227-1.879 5.711 5.711 0 00-2.884 1.02 5.737 5.737 0 00-1.95 2.363 6.596 6.596 0 00.394 5.638l-2.81 2.819a5.051 5.051 0 00-.937 5.91l4.965 9.537a5.302 5.302 0 001.951 2.062c.825.497 1.77.759 2.732.757h4.14c4.594 0 9.174.508 13.657 1.513 1.171.216 2.333.432 3.494.629 3.616.63 8.636 1.241 13.498 1.814 3.306.404 6.5.789 8.973 1.146l1.377.197a110.976 110.976 0 0016.055 1.57 41.335 41.335 0 0011.886-1.607c8.927-2.669 14.987-9.537 17.563-19.864a56.67 56.67 0 00.787-19.413l-.14-1.588a5.28 5.28 0 002.969-1.857 5.303 5.303 0 001.161-3.31v-8.833a5.28 5.28 0 00-1.76-3.919h.037zm-28.644-1.39c-.187-.667-.496-1.88-.937-3.984l-.075-.357a67.647 67.647 0 01-1.939-12.685c-.468-9.237 1.687-15.467 6.791-19.61 3.42-2.82 9.274-5.29 14.528-3.242a10.535 10.535 0 014.872 3.791 10.578 10.578 0 011.919 5.878v30.209H77.595zm26.883 14.094a1.762 1.762 0 01-1.761 1.767H78.063c-.467 0-.915-.186-1.245-.518a1.77 1.77 0 01-.516-1.249v-8.832a1.762 1.762 0 011.761-1.767h24.654a1.767 1.767 0 011.761 1.767v8.832z"/>
            <path d="M75.872 92.338a1.759 1.759 0 00-3.008 1.25c0 .468.186.918.516 1.25A7.935 7.935 0 0079 97.171c2.108 0 4.13-.84 5.62-2.335a7.986 7.986 0 002.328-5.638 7.986 7.986 0 00-2.328-5.637 1.761 1.761 0 00-3.007 1.25 1.773 1.773 0 00.516 1.249 4.438 4.438 0 011.295 3.138 4.45 4.45 0 01-1.295 3.139 4.424 4.424 0 01-3.129 1.3 4.414 4.414 0 01-3.128-1.3z"/>
            <path d="M30.545 21.555l-3.447 3.458-7.428-7.423.113-.103a3.341 3.341 0 000-4.698l-1.78-1.786a3.32 3.32 0 00-4.683 0L.937 23.406a3.317 3.317 0 00-.972 2.35 3.326 3.326 0 00.972 2.349l1.77 1.775a3.32 3.32 0 004.683 0l.103-.103 7.494 7.433-3.447 3.457a3.341 3.341 0 000 4.699l1.78 1.776a3.306 3.306 0 002.341.975 3.298 3.298 0 002.342-.975l2.005-2.04c.14.204.296.396.468.574l26.958 27.042a3.806 3.806 0 005.376 0l.403-.404 5.199.63a1.503 1.503 0 001.246-.432l.29-.254 17.338 17.43a1.505 1.505 0 002.487-1.09 1.516 1.516 0 00-.36-1.043l-17.376-17.43.262-.263a1.512 1.512 0 00.459-1.269l-.628-5.215.394-.394a3.758 3.758 0 001.137-2.697 3.768 3.768 0 00-1.137-2.697l-26.93-27.024a3.438 3.438 0 00-.58-.47l2.05-2.057a3.341 3.341 0 000-4.698l-1.77-1.776a3.334 3.334 0 00-2.372-1.002 3.325 3.325 0 00-2.377.992zM4.871 27.757L3.1 25.98a.31.31 0 010-.442l12.364-12.384a.31.31 0 01.459 0l1.78 1.785a.31.31 0 010 .442L5.31 27.757a.309.309 0 01-.44 0zm5.086.188l7.906-7.93 7.109 7.131-7.906 7.93-7.109-7.131zm49.7 40.3l-1.582 1.617-2.136-.254 3.484-3.495.235 2.133zm.712-7.385l-.936.94-7.859 7.883-.937.94a.795.795 0 01-1.124 0L26.077 46.982l10.81-10.806 4.159 4.228-2.642 2.64a1.516 1.516 0 00.08 2.054 1.506 1.506 0 002.046.08l2.68-2.688 3.194 3.195-2.68 2.687a1.516 1.516 0 001.088 2.495c.38.015.75-.114 1.039-.362l2.679-2.687 3.194 3.204-2.68 2.688a1.506 1.506 0 000 2.133 1.515 1.515 0 002.127 0l2.68-2.688 3.184 3.195-2.707 2.687a1.525 1.525 0 000 2.133 1.5 1.5 0 001.639.329 1.5 1.5 0 00.487-.329l2.679-2.687 1.246 1.259a.787.787 0 01.164.863.789.789 0 01-.174.255zM33.421 32.671l1.34 1.344-10.81 10.871-1.349-1.343a.81.81 0 01-.122-.884l10.06-10.12a.795.795 0 01.881.16v-.028zm1.47-7.235a.31.31 0 010 .442l-4.28 4.294a3.248 3.248 0 00-.44.366l-9.695 9.744a4.162 4.162 0 00-.356.451l-4.28 4.285a.31.31 0 01-.44 0l-1.78-1.795a.309.309 0 01-.069-.34.309.309 0 01.068-.101l3.447-3.458 12.177-12.215 3.447-3.458a.318.318 0 01.45 0l1.752 1.785z"/>
        </g>
        <defs>
            <clipPath id="beclip0">
                <path fill="#fff" d="M0 0h108v106H0z"/>
            </clipPath>
        </defs>
    </svg>
    <svg viewBox="0 0 124 101" id="service-14" xmlns="http://www.w3.org/2000/svg">
        <path d="M92.973 3.263c11.934 0 13.078 12.332 13.184 13.31v7.472a7.968 7.968 0 00-3.715 1.827 7.939 7.939 0 00-2.292 3.442l-3.785 10.995a8.05 8.05 0 001.071 7.298 8.08 8.08 0 006.572 3.378h7.56a8.092 8.092 0 006.571-3.378 8.046 8.046 0 001.071-7.298l-3.784-10.995a7.95 7.95 0 00-5.999-5.27V16.42C109.075 10.709 105.185 0 92.982 0S77.232 10.913 77.1 16.72v24.2c0 4.078-1.12 7.178-3.342 9.193a12.038 12.038 0 01-7.357 2.773V35.48a8.143 8.143 0 00-2.394-5.767 8.176 8.176 0 00-5.78-2.39H8.174c-2.167 0-4.246.86-5.779 2.39A8.148 8.148 0 000 35.48v49.917c0 2.163.861 4.238 2.394 5.767a8.182 8.182 0 005.78 2.39H31.55v4.183H3.629a1.636 1.636 0 00-1.635 1.632A1.63 1.63 0 003.63 101h59.119a1.636 1.636 0 001.635-1.631 1.63 1.63 0 00-1.635-1.632h-27.93v-4.184h23.376c2.168 0 4.247-.86 5.78-2.389a8.148 8.148 0 002.394-5.767v-29.24a15.328 15.328 0 009.57-3.614c2.943-2.659 4.43-6.574 4.43-11.623V16.753c.017-.546.45-13.49 12.604-13.49zm19.363 27.111l3.777 10.987a4.794 4.794 0 01-4.545 6.362h-7.56a4.817 4.817 0 01-3.911-2.01 4.789 4.789 0 01-.634-4.344l3.776-10.995a4.808 4.808 0 014.549-3.23c1 0 1.976.311 2.791.89a4.796 4.796 0 011.757 2.34zM63.099 85.397a4.889 4.889 0 01-1.436 3.46 4.91 4.91 0 01-3.468 1.434H8.173a4.91 4.91 0 01-3.467-1.434 4.889 4.889 0 01-1.437-3.46V35.48c0-1.298.517-2.543 1.437-3.46a4.91 4.91 0 013.467-1.434h50.022c1.3 0 2.548.516 3.468 1.434a4.889 4.889 0 011.436 3.46v49.917z"/>
        <path d="M117.567 56.711a1.636 1.636 0 00.478-1.157 1.62 1.62 0 00-.482-1.155 1.635 1.635 0 00-1.786-.352 1.638 1.638 0 00-.531.356 10.581 10.581 0 01-14.933 0 1.637 1.637 0 00-2.792 1.154 1.629 1.629 0 00.48 1.154 13.862 13.862 0 009.779 4.036 13.86 13.86 0 009.779-4.036h.008z"/>
        <path d="M118.516 59.541a15.133 15.133 0 01-10.695 4.423 15.15 15.15 0 01-10.695-4.423 1.633 1.633 0 00-1.859-.522 1.637 1.637 0 00-1.061 1.61 1.63 1.63 0 00.606 1.188 18.411 18.411 0 0026 0 1.625 1.625 0 00-.159-2.132 1.636 1.636 0 00-2.137-.144z"/>
        <path d="M123.518 64.712a1.634 1.634 0 00-1.783-.354 1.63 1.63 0 00-.53.354 19.017 19.017 0 01-13.417 5.537 19.015 19.015 0 01-13.417-5.537 1.637 1.637 0 00-2.792 1.155c0 .432.172.848.479 1.154a22.29 22.29 0 0015.73 6.494 22.29 22.29 0 0015.73-6.494 1.632 1.632 0 000-2.308zM42.437 47.16a1.63 1.63 0 00-1.527-1.177 1.638 1.638 0 00-.672.125 21.398 21.398 0 01-8.067 1.631 20.586 20.586 0 01-7.912-1.631 1.638 1.638 0 00-2.19 1.199l-5.297 24.469a1.628 1.628 0 00.973 1.843 39.884 39.884 0 0014.786 3.05h.637a40.474 40.474 0 0015.464-3.099 1.633 1.633 0 00.94-1.957L42.437 47.16zm-9.85 26.247a36.552 36.552 0 01-12.325-2.34l4.569-21.264a23.92 23.92 0 007.356 1.166 23.437 23.437 0 007.602-1.215l6.228 21.345a37.119 37.119 0 01-13.43 2.308z"/>
    </svg>
    <svg viewBox="0 0 107 107" id="service-15" xmlns="http://www.w3.org/2000/svg">
        <path d="M45.844 78.098a1.783 1.783 0 00-2.522 0c-.167.169-17.087 16.684-38.82 3.308a1.783 1.783 0 00-1.87 3.031A36.043 36.043 0 0021.73 90.2a37.206 37.206 0 0024.114-9.587 1.783 1.783 0 000-2.514zm-7.408 18.996c-.203.101-20.403 9.972-33.609-3.232a1.783 1.783 0 00-2.521 2.522 27.282 27.282 0 0019.93 7.887 44.743 44.743 0 0017.795-3.987 1.784 1.784 0 10-1.595-3.19zm65.932-12.65a1.784 1.784 0 00-1.869-3.031c-12.138 8.052-28.224 6.68-38.823-3.31a1.783 1.783 0 00-2.52 2.523 37.195 37.195 0 0024.114 9.587 36.044 36.044 0 0019.098-5.769zm-37.398 15.84a44.725 44.725 0 0017.794 3.987 27.281 27.281 0 0019.93-7.887 1.783 1.783 0 00-2.521-2.522c-13.172 13.17-33.406 3.33-33.611 3.232a1.783 1.783 0 00-1.593 3.19z"/>
        <path d="M49.933 2.675h-21.4c-.87 0-1.614.63-1.758 1.49l-1.273 7.605a7.133 7.133 0 01-2.265 4.132c-9.76 8.738-10.051 9.325-10.238 9.701L.869 48.223a6.523 6.523 0 005.246 9.71l-1.774 3.303a6.5 6.5 0 005.54 9.794 6.46 6.46 0 006.062 8.328 6.29 6.29 0 005.571-3.252l.209-.33a6.338 6.338 0 0011.09-.207L42.39 57.85l.089 6.765a6.38 6.38 0 0011.021 4.35 6.393 6.393 0 0011.026-4.35l.09-6.765 9.57 17.725a6.342 6.342 0 0011.09.194l.135.214a6.343 6.343 0 009.184 2.265 6.625 6.625 0 002.52-7.219 6.5 6.5 0 005.55-9.78l-1.784-3.317a6.524 6.524 0 005.243-9.717L94.026 25.65c-.212-.423-.503-1.004-10.263-9.748a7.133 7.133 0 01-2.265-4.132l-1.273-7.606a1.783 1.783 0 00-1.758-1.489h-21.4c-.985 0-1.784.798-1.784 1.783 0 4.913-.258 32.575-.975 35.528-.264.877-.535 1.808-.808 2.73-.26-.891-.535-1.797-.783-2.64-.763-3.123-1-30.102-1-35.618 0-.985-.799-1.783-1.784-1.783zm5.543 46.533c.073-.69 1.223-4.79 2.27-8.286.865-3.536 1.104-30.368 1.104-34.68h18.106l1.018 6.113a10.727 10.727 0 003.41 6.206c6.47 5.796 9.184 8.382 9.475 8.738l12.127 22.606a3.095 3.095 0 01-1.151 4.187 2.74 2.74 0 01-3.566-1.015l-7.75-14.528a1.784 1.784 0 10-3.148 1.68c10.948 20.519 5.123 9.63 12.17 22.733A3.069 3.069 0 0198.732 67a2.832 2.832 0 01-4.006-1.004c-1.023-1.935 3.811 7.388-10.878-20.33a1.784 1.784 0 10-3.151 1.67c5.813 10.974 10.905 20.607 12.7 23.933a3.11 3.11 0 01-.798 4.043 2.812 2.812 0 01-4.102-1.106c-4.776-7.527-1.512-1.728-13.89-25.091a1.783 1.783 0 00-3.152 1.67c9.031 17.046 10.627 20.099 10.85 20.41a3.082 3.082 0 01-.91 3.693 2.832 2.832 0 01-4.07-1.003l-12.84-23.773a1.783 1.783 0 00-3.353.825l-.179 13.623a2.902 2.902 0 01-.861 2.033 2.837 2.837 0 01-4.81-2.084l.193-15.301zm-3.76 15.3a2.837 2.837 0 01-4.814 2.092 2.9 2.9 0 01-.862-2.03l-.178-13.625a1.783 1.783 0 00-3.353-.826L29.67 73.868a2.83 2.83 0 01-4.076 1.007 3.083 3.083 0 01-.908-3.693c.223-.31 1.819-3.364 10.85-20.409a1.783 1.783 0 10-3.151-1.67C20.06 72.366 23.1 66.936 18.425 74.315a2.814 2.814 0 01-4.027.984 3.11 3.11 0 01-.8-4.042c1.806-3.344 7.592-14.29 12.702-23.934a1.783 1.783 0 10-3.151-1.67c-14.588 27.551-9.844 18.4-10.868 20.33a2.839 2.839 0 01-4 1.008 3.076 3.076 0 01-.806-4.055c6.884-12.808 1.471-2.675 12.162-22.72a1.784 1.784 0 00-3.147-1.68L8.74 53.068a2.766 2.766 0 01-3.567 1.015 3.098 3.098 0 01-1.154-4.182L16.09 27.387c.497-.589 3.237-3.19 9.528-8.826a10.728 10.728 0 003.41-6.206l1.015-6.113H48.15c0 4.125.239 31.147 1.127 34.775 1.024 3.402 2.174 7.504 2.243 8.123l.197 15.372v-.003z"/>
    </svg>
    <svg viewBox="0 0 89 116" id="service-16" xmlns="http://www.w3.org/2000/svg">
        <g clip-path="url(#bhclip0)">
            <path d="M74.144 35.273l-4.635-2.676 5.744-9.948.164.095a3.65 3.65 0 004.98-1.34l1.379-2.39a3.65 3.65 0 00-1.333-4.974L63.778 4.418a3.65 3.65 0 00-4.975 1.333l-1.38 2.39a3.65 3.65 0 001.33 4.982l.143.082-5.744 9.949-4.642-2.68a3.65 3.65 0 00-4.979 1.34l-1.38 2.389a3.65 3.65 0 001.334 4.975l2.76 1.594a3.733 3.733 0 00-.484.674L24.826 67.707a4.18 4.18 0 001.547 5.662l.558.322.808 5.702a1.652 1.652 0 00.816 1.196l.344.198-13.499 23.38a1.653 1.653 0 001.858 2.422 1.656 1.656 0 001.003-.77L31.747 82.46l.35.202a1.653 1.653 0 001.437.105l5.32-2.145.53.306a4.179 4.179 0 005.683-1.487L66.031 43.13c.138-.24.252-.494.342-.757l2.753 1.59a3.65 3.65 0 004.983-1.329l1.37-2.374a3.65 3.65 0 00-1.335-4.987zM60.256 9.775l1.38-2.388a.339.339 0 01.49-.108L78.791 16.9a.347.347 0 01.124.463l-1.38 2.389a.346.346 0 01-.466.13l-16.665-9.62a.337.337 0 01-.12-.47l-.028-.017zm1.233 5.48l10.663 6.157-5.504 9.534-10.635-6.14 5.476-9.55zM33.025 79.421l-2.146-1.238-.35-2.367 4.685 2.704-2.19.901zm8.01-1.354l-13.031-7.524a.826.826 0 01-.338-1.148l18.272-31.649 14.54 8.395-3.233 5.6-3.576-2.064a1.652 1.652 0 00-1.652 2.86l3.576 2.065-2.477 4.292-3.576-2.065a1.651 1.651 0 10-1.652 2.86l3.576 2.065-2.477 4.292-3.577-2.065a1.652 1.652 0 00-1.651 2.86l3.576 2.066-2.478 4.29-3.576-2.064a1.652 1.652 0 10-1.652 2.861l3.577 2.065-.97 1.68a.87.87 0 01-1.2.328zm22.136-36.589L62.13 43.28l-14.54-8.395 1.04-1.802a.825.825 0 01.892-.438l13.59 7.845a.825.825 0 01.059.988zm8.069-.481a.347.347 0 01-.47.12l-5.722-3.304a4.046 4.046 0 00-.517-.375l-13.06-7.54a3.95 3.95 0 00-.577-.257l-5.722-3.303a.346.346 0 01-.16-.483l1.38-2.39a.347.347 0 01.466-.13l25.634 14.799a.347.347 0 01.127.474l-1.38 2.389z"/>
        </g>
        <defs>
            <clipPath id="bhclip0">
                <path fill="#fff" transform="rotate(30 28.063 104.731)" d="M0 0h36.891v112.251H0z"/>
            </clipPath>
        </defs>
    </svg>
    <svg viewBox="0 0 112 112" id="service-2" xmlns="http://www.w3.org/2000/svg">
        <g clip-path="url(#biclip0)">
            <path d="M54.278 99.976l-.227-.045a13.888 13.888 0 01-8.21-5.239 13.992 13.992 0 01-2.777-9.36 20.55 20.55 0 011.463-5.575 22.64 22.64 0 001.054-3.358c.228-1.068 5.453-26.38 10.296-42.886 4.871-16.68 23.536-30.476 25.217-31.698.691-.648 2.218-1.935 3.517-.657 1.3 1.277.282 2.673-1.817 5.347-1.954 2.436-5.27 6.387-9.86 11.597-15.684 17.911-9.25 55.203-8.77 57.877 3.009 7.91 3.1 14.116.283 18.45-3.399 5.2-9.66 5.53-9.933 5.538l-.236.01zm11.15-77.34a40.475 40.475 0 00-6.061 11.918c-4.77 16.36-9.996 41.525-10.223 42.584a26.616 26.616 0 01-1.209 3.887 17.453 17.453 0 00-1.245 4.608 10.295 10.295 0 001.994 6.787 10.22 10.22 0 005.894 3.88c.909-.101 4.78-.712 6.843-3.897 2.062-3.184 1.871-8.559-.71-15.265l-.081-.31c-.29-1.497-6.28-33.287 4.798-54.191z"/>
            <path d="M110.183 44.517H76.705a12.314 12.314 0 00-4.719 2.084 12.375 12.375 0 00-3.46 3.838c-2.19 4.006-1.844 9.307.937 15.704 4.034 9.288 10.786 24.8 5.388 33.688-2.89 4.772-9.16 7.509-18.628 8.129h-.446c-9.432-.593-15.739-3.33-18.628-8.13-5.398-8.887 1.354-24.398 5.388-33.687 2.79-6.388 3.108-11.67.964-15.676a12.373 12.373 0 00-3.46-3.838 12.316 12.316 0 00-4.719-2.084H1.817c-.482 0-.944.192-1.285.534a1.829 1.829 0 000 2.581c.341.342.803.535 1.285.535h32.987a8.726 8.726 0 013.156 1.457 8.763 8.763 0 012.342 2.576c1.59 2.965 1.227 7.163-1.09 12.482-4.599 10.557-11.55 26.516-5.162 37.046 3.535 5.839 10.768 9.17 21.491 9.882h.118c.115.014.23.014.346 0 .111.014.224.014.336 0h.118c10.723-.712 17.956-4.043 21.5-9.882 6.361-10.53-.572-26.461-5.161-37.046-2.308-5.292-2.726-9.49-1.118-12.446a8.73 8.73 0 012.36-2.625 8.69 8.69 0 013.201-1.472h32.978c.482 0 .944-.192 1.285-.534a1.828 1.828 0 00-1.285-3.116h-.036z"/>
            <path d="M17.547 63.87a2.677 2.677 0 002.672-2.682 2.677 2.677 0 00-2.672-2.683 2.677 2.677 0 00-2.671 2.683 2.677 2.677 0 002.671 2.683zM3.517 79.893a2.677 2.677 0 002.671-2.682 2.677 2.677 0 00-2.671-2.683 2.677 2.677 0 00-2.672 2.683 2.677 2.677 0 002.672 2.682zm15.221 17.456a2.677 2.677 0 002.672-2.683 2.677 2.677 0 00-2.672-2.683 2.677 2.677 0 00-2.672 2.683 2.677 2.677 0 002.672 2.683zm75.996-.712a2.677 2.677 0 002.672-2.683 2.677 2.677 0 00-2.672-2.682 2.677 2.677 0 00-2.671 2.682 2.677 2.677 0 002.671 2.683zm14.022-16.032a2.678 2.678 0 002.672-2.683 2.678 2.678 0 00-2.672-2.682 2.677 2.677 0 00-2.672 2.682 2.677 2.677 0 002.672 2.683zM93.535 63.15a2.677 2.677 0 002.671-2.683 2.677 2.677 0 00-2.671-2.682 2.677 2.677 0 00-2.672 2.682 2.677 2.677 0 002.672 2.683z"/>
        </g>
        <defs>
            <clipPath id="biclip0">
                <path fill="#fff" transform="translate(0 .61)" d="M0 0h112v111H0z"/>
            </clipPath>
        </defs>
    </svg>
    <svg viewBox="0 0 73 102" id="service-3" xmlns="http://www.w3.org/2000/svg">
        <g clip-path="url(#bjclip0)">
            <path d="M65.94 51.46a18.27 18.27 0 00-5.63-5.3c.407-1.294.612-2.643.61-4v-.81h1.38a2 2 0 000-4H60a13.43 13.43 0 00-2.1-3.61l.9-.89a2 2 0 10-2.8-2.76l-1 1a13.08 13.08 0 00-5.46-2.08C52.14 27 55.6 26 59.81 26.1a2 2 0 002-2v-7.55a2 2 0 00-1.82-2 47.533 47.533 0 00-8.87.27 20 20 0 00-8.7-9l1.4-2.1a2 2 0 10-3.29-2.21l-2 3A15.08 15.08 0 0036 4.29c-.51 0-1 0-1.52.08V2a2 2 0 10-4 0v3.4a17 17 0 00-5.26 3.4A21.331 21.331 0 0022 12.7a4.51 4.51 0 00-4-2.48h-5.43a4.51 4.51 0 00-4.51 4.51V35a20.364 20.364 0 00-2.88 2.73C.83 42.71 0 49.22 0 53.8.05 59 1.3 64.26 3.28 67.65c.3.8.57 1.57.83 2.32a34 34 0 007.07 12.71A53.37 53.37 0 0039.4 99.85l5.26 1.24c1.448.343 2.932.518 4.42.52a19.078 19.078 0 0011.33-3.7l1.34-1a26.341 26.341 0 0010.77-19.43 41.918 41.918 0 00-.26-8.38 37 37 0 00-5.21-15.83v-.07l-1.11-1.74zM57 42.18c0 .783-.1 1.563-.3 2.32a17.781 17.781 0 00-8.75-.58 19.462 19.462 0 00-4.29-2.14A22.06 22.06 0 0146.19 33c.486-.08.977-.12 1.47-.12a9.299 9.299 0 019.34 9.3zm.94-23.71v3.67A17.74 17.74 0 0045.81 27c-4.36 4.27-5.67 10.2-6.07 13.56a56.184 56.184 0 00-6.82-1.22c-.6-.55-1.2-1.08-1.8-1.58v-.14c0-5.33 1.73-9.62 5.12-12.76 6.46-5.92 17.35-6.44 21.65-6.39h.05zm-35.47 2.74l.09-.25c2.19-7.59 7.57-12.7 13.44-12.7a10.44 10.44 0 012.93.43A14.52 14.52 0 0147 15.54c-4.61 1-9.6 2.88-13.45 6.42a19.75 19.75 0 00-6.28 13 23.999 23.999 0 00-4.81-2.32l.01-11.43zM12 14.73a.54.54 0 01.54-.54H18a.54.54 0 01.54.54v17.1a14.605 14.605 0 00-2 0 14.06 14.06 0 00-4.49.94L12 14.73zM6.12 64.5c-2.51-5.56-3.86-17.4 2-24.13 2.57-2.93 5.44-4.48 8.53-4.62 3.95-.18 8.5 2 13.18 6.22a24.37 24.37 0 01-11.42 10.89C10.81 56.31 7.57 61 6.19 64.33a1.22 1.22 0 00-.07.17zm62.42 7.23c.14 1.817.14 3.643 0 5.46a22.392 22.392 0 01-9.15 16.53l-1.34 1a15.16 15.16 0 01-9 2.94 15.37 15.37 0 01-3.51-.41L40.31 96a49.36 49.36 0 01-26.1-15.88 28.312 28.312 0 01-5.33-8.64 2 2 0 00.12-.85c0-.09-1-8.66 11.1-14.16a28 28 0 0013.52-13c9.09 1.25 12.21 3.81 12.45 4a1.84 1.84 0 001.82.52l.5-.11c6.35-1.33 12.68 2.17 15.59 8 .3.59.48.51.84 1.28a29.05 29.05 0 013.46 10.7"/>
        </g>
        <defs>
            <clipPath id="bjclip0">
                <path fill="#fff" d="M0 0h72.63v101.61H0z"/>
            </clipPath>
        </defs>
    </svg>
    <svg viewBox="0 0 95 101" id="service-4" xmlns="http://www.w3.org/2000/svg">
        <g clip-path="url(#bkclip0)">
            <path d="M92.044 51.341c1.002-2.503 3.267-9.14.511-14.697-1.523-3.084-4.289-5.267-8.176-6.548a14.197 14.197 0 001.643-6.939c0-4.134-1.212-7.418-3.607-9.751a13.121 13.121 0 00-8.678-3.394 2.005 2.005 0 00-.891.25C71.373 5.737 67.475 0 59.589 0a13.225 13.225 0 00-12.094 7.489A13.204 13.204 0 0035.411 0c-7.886 0-11.784 5.737-13.257 10.232a2.006 2.006 0 00-.892-.25 13.162 13.162 0 00-8.687 3.424c-2.385 2.333-3.557 5.617-3.557 9.751a14.198 14.198 0 001.643 6.939c-3.938 1.281-6.653 3.464-8.216 6.548-2.756 5.556-.531 12.194.5 14.697C0 56.637-.73 61.613.702 66.129c1.724 5.456 6.183 8.6 8.317 9.841.21 4.816 1.743 8.49 4.55 10.933a13.253 13.253 0 008.306 3.004c1.142 4.595 4.9 11.013 13.387 11.013 2.545.045 5.05-.638 7.22-1.968a13.34 13.34 0 005.024-5.541 13.373 13.373 0 0012.255 7.509c8.477 0 12.244-6.448 13.386-11.013a13.283 13.283 0 008.307-3.004c2.805-2.443 4.329-6.117 4.549-10.933 2.124-1.241 6.573-4.385 8.307-9.841 1.413-4.516.661-9.492-2.265-14.788zM45.301 87.744c-.2 1.172-1.864 9.251-10.02 9.251-8.517 0-9.7-8.94-9.75-9.32l-.24-2.003-2.004.26s-4.169.5-7.085-2.062c-2.174-1.863-3.176-4.926-3.176-9.121v-1.292l-1.182-.53s-5.561-2.563-7.285-8.01c-1.192-3.634-.38-7.85 2.355-12.445l.551-.94-.451-.972c0-.07-3.457-7.098-.942-12.154 1.203-2.413 3.678-4.075 7.345-4.946a14.755 14.755 0 006.623 3.083 16.327 16.327 0 00-.781 7.3 15.01 15.01 0 001.593 4.935 12.278 12.278 0 00-2.425 8.42c.651 4.756 4.83 7.549 5.01 7.67a2.005 2.005 0 002.043.08 2.005 2.005 0 001.012-2.166 2.002 2.002 0 00-.86-1.269s-2.836-1.932-3.227-4.856a7.284 7.284 0 01.922-4.265 20.373 20.373 0 003.727 3.434 2.006 2.006 0 003.005-1.1 2 2 0 00-.8-2.244c-.06 0-5.321-3.594-6.083-9.18-.761-5.587 3.347-10.633 3.417-10.723a2.002 2.002 0 00-2.445-3.163c-.24.162-.441.373-.59.62a20.239 20.239 0 00-1.834 2.743c-2.305-.26-8.738-1.662-8.738-9.602 0-3.003.792-5.316 2.365-6.858a9.022 9.022 0 015.821-2.302c.104.01.208.01.311 0v4.685a2.002 2.002 0 002.004 2.003 2.005 2.005 0 002.004-2.003v-5.446c.23-1.162 1.944-9.251 9.92-9.251s9.69 8.11 9.89 9.25v74.49zm45.18-22.857c-1.693 5.416-7.244 8.01-7.295 8.01l-1.172.53v1.292c0 4.195-1.072 7.258-3.176 9.11a10.025 10.025 0 01-7.075 2.063l-2.004-.28-.25 2.002c0 .38-1.222 9.321-9.74 9.321-8.136 0-9.85-8.11-10.02-9.25v-74.43c.15-1.16 1.864-9.25 9.84-9.25s9.69 8.11 9.89 9.25v5.387a2.002 2.002 0 002.004 2.003 2.005 2.005 0 002.004-2.003v-4.625c.113.01.227.01.34 0a9.113 9.113 0 015.792 2.282c1.583 1.552 2.395 3.865 2.395 6.889 0 7.939-6.443 9.35-8.737 9.6a20.239 20.239 0 00-1.834-2.752 2.003 2.003 0 10-3.076 2.563c0 .05 4.178 5.066 3.407 10.723-.772 5.656-6.013 9.14-6.073 9.17a2.003 2.003 0 00-.57 2.754 2.004 2.004 0 001.673.9c.39.004.774-.108 1.102-.32a20.733 20.733 0 003.777-3.434 7.364 7.364 0 01.922 4.265c-.4 2.924-3.206 4.846-3.226 4.856a2.003 2.003 0 00.686 3.638c.52.109 1.063.007 1.508-.284.18-.12 4.359-2.913 5.01-7.67a12.278 12.278 0 00-2.435-8.42 14.818 14.818 0 001.603-4.935 16.176 16.176 0 00-.791-7.299 14.654 14.654 0 006.643-3.083c3.668.87 6.153 2.533 7.355 4.946 2.515 5.006-.912 12.084-.942 12.154l-.49 1.001.55.941c2.736 4.566 3.547 8.75 2.405 12.385z"/>
        </g>
        <defs>
            <clipPath id="bkclip0">
                <path fill="#fff" d="M0 0h95v101H0z"/>
            </clipPath>
        </defs>
    </svg>
    <svg viewBox="0 0 88 108" id="service-5" xmlns="http://www.w3.org/2000/svg">
        <g clip-path="url(#blclip0)">
            <path d="M68.139 67.642H56.217a7.47 7.47 0 00-2.76-4.074 26.208 26.208 0 0011.69-9.124 26.624 26.624 0 004.94-14.067 9.102 9.102 0 005.244-3.267 9.275 9.275 0 001.99-5.891 9.269 9.269 0 00-2.171-5.826 9.094 9.094 0 00-5.342-3.1A26.48 26.48 0 0060.974 6.33 25.969 25.969 0 0043.995-.005 25.969 25.969 0 0027.016 6.33a26.48 26.48 0 00-8.833 15.964 9.098 9.098 0 00-5.216 3.137 9.27 9.27 0 00-2.11 5.751 9.276 9.276 0 001.93 5.816 9.106 9.106 0 005.116 3.3 26.647 26.647 0 004.828 13.947 26.236 26.236 0 0011.474 9.157 7.458 7.458 0 00-2.894 4.211H19.87a19.7 19.7 0 00-7.612 1.535 19.868 19.868 0 00-6.45 4.364 20.107 20.107 0 00-4.305 6.526A20.276 20.276 0 000 87.733v20.286h88V87.733a20.2 20.2 0 00-5.816-14.2 19.776 19.776 0 00-14.045-5.89zm-22.186-1.618h3.203a3.439 3.439 0 012.573.959 3.542 3.542 0 010 5.092 3.44 3.44 0 01-2.573.958h-3.222l.02-7.009zm-3.858 7.01h-3.743a3.44 3.44 0 01-2.572-.96 3.542 3.542 0 010-5.092 3.466 3.466 0 012.572-.958h3.724l.019 7.01zM73.464 31.36a5.372 5.372 0 01-.916 2.994 5.286 5.286 0 01-2.422 1.958v-9.895a5.286 5.286 0 012.42 1.954c.594.88.914 1.922.918 2.989zm-58.744 0a5.355 5.355 0 01.857-2.913 5.272 5.272 0 012.297-1.961v9.748a5.301 5.301 0 01-2.292-1.965 5.383 5.383 0 01-.862-2.91zm7.012 7.633V26.408a22.721 22.721 0 011.56-8.757 22.533 22.533 0 014.796-7.461 22.262 22.262 0 017.282-5 22.07 22.07 0 0117.26 0 22.264 22.264 0 017.282 5 22.534 22.534 0 014.796 7.461 22.72 22.72 0 011.56 8.757v12.585a22.652 22.652 0 01-5.856 15.203 22.196 22.196 0 01-14.478 7.217V40.582h5.99a1.92 1.92 0 001.364-.572 1.96 1.96 0 000-2.757 1.919 1.919 0 00-1.364-.57h-9.848v24.73A22.196 22.196 0 0127.59 54.2a22.651 22.651 0 01-5.859-15.206zm62.41 65.137h-15.25V90.297a1.96 1.96 0 00-.566-1.378 1.919 1.919 0 00-2.728 0 1.96 1.96 0 00-.565 1.378v13.804H22.398V90.297a1.96 1.96 0 00-.565-1.378 1.92 1.92 0 00-1.364-.572 1.92 1.92 0 00-1.364.572 1.96 1.96 0 00-.566 1.378v13.804H3.86V87.733a16.28 16.28 0 014.689-11.445 15.937 15.937 0 0111.323-4.746H31.3a7.422 7.422 0 002.633 3.888 7.29 7.29 0 004.418 1.502h3.724v8.004l-7.07 7.36a1.962 1.962 0 00.038 2.758 1.919 1.919 0 002.73-.039l6.25-6.521 6.54 6.55c.362.363.85.566 1.36.566a1.915 1.915 0 001.07-.333c.317-.216.563-.521.708-.878a1.969 1.969 0 00-.427-2.123l-7.341-7.36v-7.984h3.203a7.29 7.29 0 004.418-1.502 7.422 7.422 0 002.633-3.888h11.951a15.938 15.938 0 0111.317 4.749 16.28 16.28 0 014.686 11.442v16.397z"/>
        </g>
        <defs>
            <clipPath id="blclip0">
                <path fill="#fff" d="M0 0h88v108H0z"/>
            </clipPath>
        </defs>
    </svg>
    <svg viewBox="0 0 101 99" id="service-6" xmlns="http://www.w3.org/2000/svg">
        <g clip-path="url(#bmclip0)">
            <path d="M14.87 86.361c2.561 0 4.637-2.09 4.637-4.668 0-2.578-2.076-4.668-4.636-4.668s-4.637 2.09-4.637 4.668c0 2.578 2.076 4.668 4.637 4.668z"/>
            <path d="M98.172 12.149a17.792 17.792 0 00-6.342-6.266 17.642 17.642 0 00-8.564-2.382V2.334c0-.619-.244-1.213-.678-1.65a2.31 2.31 0 00-3.279 0 2.342 2.342 0 00-.679 1.65v6.664c0 .619.245 1.213.68 1.65a2.31 2.31 0 003.278 0 2.342 2.342 0 00.678-1.65v-.829c2.211.041 4.375.649 6.287 1.766a13.048 13.048 0 014.643 4.618 17.448 17.448 0 010 16.922L85.573 47.85a15.873 15.873 0 01-5.818 6.19 15.728 15.728 0 01-8.154 2.28c-2.874 0-5.693-.788-8.155-2.28a15.872 15.872 0 01-5.818-6.19L49.04 31.51c-3.118-5.952-3.257-12.662-.348-17.506a12.035 12.035 0 014.358-4.267 11.933 11.933 0 015.876-1.568v.829c0 .619.244 1.213.68 1.65a2.31 2.31 0 003.278 0 2.342 2.342 0 00.678-1.65V2.334c0-.619-.244-1.213-.678-1.65a2.31 2.31 0 00-3.279 0 2.342 2.342 0 00-.679 1.65v1.167a16.417 16.417 0 00-8.161 2.136 16.558 16.558 0 00-6.049 5.917c-3.732 6.255-3.65 14.728.22 22.173l8.6 16.339a20.317 20.317 0 008.844 8.8l6.955 15.066v8.473c0 3.17-1.25 6.209-3.477 8.45a11.828 11.828 0 01-8.392 3.5 11.825 11.825 0 01-8.392-3.5 11.992 11.992 0 01-3.477-8.45V57.383a16.672 16.672 0 00-4.984-11.465 16.446 16.446 0 00-11.515-4.713 16.445 16.445 0 00-11.515 4.713 16.672 16.672 0 00-4.984 11.465v9.535a14.85 14.85 0 00-9.356 5.515A15.044 15.044 0 00.092 82.88a15.013 15.013 0 004.73 9.823 14.814 14.814 0 0010.095 3.98c3.743 0 7.348-1.422 10.096-3.98a15.013 15.013 0 004.73-9.823 15.044 15.044 0 00-3.152-10.446 14.85 14.85 0 00-9.356-5.515v-9.535a11.988 11.988 0 013.603-8.208 11.826 11.826 0 018.26-3.369c3.084 0 6.046 1.209 8.26 3.37a11.988 11.988 0 013.603 8.207v24.998c0 4.408 1.739 8.635 4.834 11.751A16.448 16.448 0 0057.465 99c4.378 0 8.576-1.75 11.672-4.868a16.677 16.677 0 004.834-11.75v-8.473l6.954-15.067a20.34 20.34 0 008.855-8.8l8.589-16.338a22.143 22.143 0 00-.197-21.555zM25.105 81.693c0 2.038-.6 4.03-1.725 5.725a10.25 10.25 0 01-4.593 3.795 10.17 10.17 0 01-5.913.587 10.213 10.213 0 01-5.24-2.82 10.327 10.327 0 01-2.801-5.277 10.37 10.37 0 01.582-5.954 10.29 10.29 0 013.77-4.624 10.185 10.185 0 015.686-1.737 10.21 10.21 0 017.233 3.021 10.353 10.353 0 013.001 7.284zm46.501-13.876l-3.222-7.073c2.147.343 4.333.343 6.48 0l-3.258 7.073z"/>
        </g>
        <defs>
            <clipPath id="bmclip0">
                <path fill="#fff" d="M0 0h101v99H0z"/>
            </clipPath>
        </defs>
    </svg>
    <svg viewBox="0 0 75 109" id="service-7" xmlns="http://www.w3.org/2000/svg">
        <g clip-path="url(#bnclip0)">
            <path d="M63.569 109a1.827 1.827 0 01-1.595-.916 1.844 1.844 0 01-.18-1.42c0-.119 3.174-12.431 7.966-34.114 4.572-20.781-2.415-31.264-2.488-31.328l-.128-.211L47.372 2.685A1.851 1.851 0 0148.16.202a1.823 1.823 0 011.397-.119c.463.149.849.476 1.072.91l19.717 38.261c.915 1.343 7.746 12.589 2.981 34.124-4.8 21.756-7.956 34.114-7.983 34.243a1.841 1.841 0 01-.653.995 1.82 1.82 0 01-1.121.384zm-46.824 0c-.125.009-.25.009-.375 0a1.824 1.824 0 01-1.159-.794 1.843 1.843 0 01-.259-1.385c0-.203 4.18-19.972 5.9-28.579.85-4.322.53-9.315-.961-14.841-.915-3.366-2.835-6.326-4.874-9.471a92.023 92.023 0 01-2.177-3.458L.256 29.287a1.85 1.85 0 01.636-2.524 1.822 1.822 0 012.51.639L15.977 48.55a92.292 92.292 0 002.103 3.337c2.104 3.237 4.28 6.584 5.34 10.51 1.647 6.079 1.985 11.642 1.016 16.552-1.72 8.625-5.862 28.413-5.899 28.615a1.837 1.837 0 01-.645 1.035 1.82 1.82 0 01-1.147.4z"/>
            <path d="M43.147 65.8a12.664 12.664 0 01-3.969-.578 7.304 7.304 0 01-2.78-1.518 7.352 7.352 0 01-1.884-2.556c-.613-1.453-.43-3.457-.265-5.223.064-.643.119-1.241.119-1.664v-3.945c0-3.43-1.71-6.528-3.521-9.802l-.064-.12c-5.176-9.415-13.526-24.403-13.526-24.403l3.192-1.84S28.78 29.195 33.984 38.62l.064.12c1.957 3.558 3.978 7.236 3.978 11.576v3.936c0 .597-.064 1.278-.128 2.004-.175 1.14-.175 2.3 0 3.44a3.775 3.775 0 002.432 2.022c3.256 1.076 8.615-.11 13.325-2.869a3.482 3.482 0 001.26-1.147 3.51 3.51 0 00.57-1.611c.456-4.184-4.958-11.402-10.527-16.69C38.447 33.222 30.92 10.317 30.6 9.342a1.86 1.86 0 01.597-1.964 1.836 1.836 0 012.033-.198c.43.232.75.626.89 1.096 2.086 6.344 8.552 23.907 13.435 28.505C50.5 39.539 60.02 49.24 59.206 56.55a7.151 7.151 0 01-1.162 3.186 7.102 7.102 0 01-2.496 2.285 25.142 25.142 0 01-12.4 3.779z"/>
            <path d="M41.007 57.277a1.821 1.821 0 01-1.445-.708 1.846 1.846 0 01.302-2.575c2.14-1.682 7.444-3.926 12.264-.377a1.836 1.836 0 01.728 1.203A1.85 1.85 0 0152 56.672a1.821 1.821 0 01-2.03-.086c-3.777-2.758-7.682.184-7.847.304-.32.249-.712.385-1.116.386zM40.01 109a1.82 1.82 0 01-1.042-.331 1.842 1.842 0 01-.458-2.556c1.62-2.345 1.162-6.18.595-9.26a19.482 19.482 0 00-2.945-6.547c-.704-1.159-1.436-2.363-2.085-3.678a30.652 30.652 0 01-2.981-9.95c0-.064-.695-7.116 2.606-9.277a4.035 4.035 0 014.472.156c3.155 1.84 8.23 1.84 12.291 1.84h2.744c2.14 0 4.572 0 6.246 3.153 1.271 2.428 1.518 5.343 1.582 7.88a46.522 46.522 0 01-1.509 12.037 92.391 92.391 0 01-4.655 14.363 1.823 1.823 0 01-3.381-.017 1.849 1.849 0 01.007-1.408 89.193 89.193 0 004.463-13.793 42.999 42.999 0 001.408-11.099c-.055-2.106-.238-4.496-1.162-6.243-.612-1.168-1.015-1.205-3.008-1.205h-2.744c-4.508 0-10.124 0-14.138-2.335a1.395 1.395 0 00-.65-.258c-.612.331-1.216 3.393-.914 5.793a27.05 27.05 0 002.652 8.717c.576 1.186 1.253 2.317 1.92 3.402a22.583 22.583 0 013.412 7.78c.704 3.779 1.207 8.569-1.18 12.036a1.824 1.824 0 01-1.546.8z"/>
            <path d="M46.357 82.463a13.547 13.547 0 01-8.066-2.465 1.85 1.85 0 01-.297-2.588 1.826 1.826 0 012.574-.299c.21.165 4.573 3.42 11.313.46a1.824 1.824 0 012.589.853 1.847 1.847 0 01-.462 2.116c-.193.172-.419.3-.664.378a17.351 17.351 0 01-6.987 1.545zM65.635 69.59a1.75 1.75 0 01-1.079-.36 1.847 1.847 0 01-.393-2.566 3.5 3.5 0 00-.183-4.072 1.847 1.847 0 01.338-2.575 1.822 1.822 0 012.543.313 7.145 7.145 0 01.247 8.506 1.831 1.831 0 01-1.473.753z"/>
        </g>
        <defs>
            <clipPath id="bnclip0">
                <path fill="#fff" d="M0 0h75v109H0z"/>
            </clipPath>
        </defs>
    </svg>
    <svg viewBox="0 0 95 95" id="service-8" xmlns="http://www.w3.org/2000/svg">
        <g clip-path="url(#boclip0)">
            <path d="M57.043 22.106c-.025-.024-.05-.049-.074-.049-7.109-5.148-8.653-17.135-8.678-17.306a1.96 1.96 0 00-2.181-1.716 1.96 1.96 0 00-1.716 2.181c.073.54 1.667 13.287 9.732 19.611-.245.883-1.177 2.599-1.52 3.211-.27.49-.49.883-.638 1.202a.412.412 0 00-.049.122c-.392 1.103-.76 2.207-1.127 3.285-1.3 3.898-2.525 7.55-4.756 10.81-2.892 4.094-6.25 7.698-8.972 9.61-1.814 1.25-3.824 2.157-5.932 3.089-1.937.882-3.971 1.765-5.883 2.99a28.525 28.525 0 00-2.942 2.182c-1.863 1.52-3.628 2.942-5.81 3.162-.367.025-.71.074-1.054.098-2.23.197-4.56.393-7.035 1.839C-.27 71.55-.074 83.34.024 89.004a1.962 1.962 0 001.961 1.937h.025a1.983 1.983 0 001.936-1.986v-.025c-.171-7.918.515-15.688 6.398-19.145 1.692-.98 3.334-1.127 5.393-1.299.368-.025.736-.074 1.103-.098 3.334-.319 5.737-2.28 7.894-3.996a24.995 24.995 0 012.574-1.912c1.691-1.078 3.48-1.887 5.393-2.72 2.181-.981 4.461-1.986 6.57-3.457 4.46-3.138 8.432-8.433 9.952-10.59 2.55-3.726 3.947-7.845 5.27-11.816.344-1.03.711-2.083 1.079-3.137.098-.172.27-.515.466-.834 1.397-2.525 3.31-5.981 1.005-7.82z"/>
            <path d="M90.48 28.48c-4.045-7.501-10.517-12.036-18.705-13.115h-.098c-.49-.049-.956-.049-1.397-.049-.907-.025-1.74-.025-2.23-.319-.025 0-.025-.024-.05-.024-1.569-.883-7.746-7.967-8.09-12.992A1.95 1.95 0 0057.828.167a1.95 1.95 0 00-1.814 2.083c.417 6.52 7.33 14.586 10.05 16.155 1.374.809 2.844.833 4.168.858.392 0 .76 0 1.103.049 6.962.907 12.233 4.657 15.689 11.104 2.868 5.393 4.314 12.429 4.045 19.856-.76 18.729-10.026 32.31-26.107 38.266-4.56 1.716-20.42 5.173-33.192-1.446 0 0-.024 0-.024-.025-2.354-1.176-4.51-3.137-6.864-6.201l-.025-.05c-1.838-2.475-4.339-5.883-9.266-3.946-5.466 2.059-5.466 9.977-5.466 13.335 0 1.079.882 1.961 1.96 1.961a1.967 1.967 0 001.962-1.96c0-2.354 0-8.556 2.942-9.684h.024c1.937-.76 2.672-.147 4.707 2.599l.049.049.024.024c2.697 3.555 5.32 5.884 8.212 7.33 5.54 2.868 12.012 4.314 19.219 4.314 1.005 0 2.01-.024 3.04-.073 6.618-.368 11.987-1.814 14.07-2.623 8.874-3.285 15.86-8.678 20.813-16.057 4.78-7.133 7.427-15.811 7.82-25.739.294-8.114-1.3-15.86-4.487-21.866z"/>
            <path d="M84.596 47.184c-.319-.736-1.422-2.868-3.554-3.163h-.074c-1.054-.098-3.089.172-4.829 3.236-4.094 6.3-10.418 9.708-15.027 11.473-7.305 2.843-14.708 3.333-22.553 3.824-2.01.122-4.363.367-6.618 1.274-3.555 1.349-6.055 4.045-6.84 7.403-.784 3.359.221 6.889 2.795 9.708 1.74 1.863 4.216 3.358 7.55 4.584a36.454 36.454 0 0012.65 2.206c3.137 0 6.275-.392 9.339-1.127 6.913-1.667 13.556-5.369 19.194-10.713 4.266-4.118 7.06-8.335 8.555-12.919 1.913-5.32 1.692-11.055-.588-15.786zM81.458 61.67c0 .025-.024.05-.024.05-1.3 3.97-3.75 7.672-7.55 11.325-5.124 4.878-11.154 8.236-17.405 9.756-6.741 1.618-13.556 1.3-19.709-.956-2.697-1.005-4.731-2.206-6.006-3.58-1.667-1.813-2.353-4.044-1.863-6.128.49-2.083 2.108-3.775 4.437-4.657.025 0 .025 0 .05-.025 1.764-.71 3.725-.907 5.417-1.005 7.77-.49 15.836-1.005 23.68-4.069 9.34-3.554 14.365-9.045 16.939-13.041a.534.534 0 00.073-.123c.221-.466.564-.882.956-1.226.221.246.393.515.515.81 0 .024.025.048.05.073 1.838 3.8 2.01 8.457.44 12.796z"/>
        </g>
        <defs>
            <clipPath id="boclip0">
                <path fill="#fff" d="M0 0h95v95H0z"/>
            </clipPath>
        </defs>
    </svg>
    <svg viewBox="0 0 99 99" id="service-9" xmlns="http://www.w3.org/2000/svg">
        <path d="M96.688 81.396l-12.98-12.98A8.301 8.301 0 0077.877 66h-5.689v-7.956c0-5.831-3.347-10.838-8.733-13.07-5.378-2.23-11.287-1.06-15.412 3.068-3.485 3.486-7.932 3.414-10.917 2.173-2.993-1.239-6.188-4.322-6.188-9.259V33h5.689c2.17 0 4.298-.88 5.833-2.417l12.979-12.981a7.947 7.947 0 002.312-5.581c0-4.355-3.54-7.896-7.895-7.896h-.735C48.266 1.73 45.998 0 43.313 0H14.438C11.752 0 9.484 1.73 8.63 4.125h-.734C3.54 4.125 0 7.665 0 12.02c0 2.076.842 4.11 2.312 5.583l12.98 12.98A8.301 8.301 0 0021.124 33h5.688v7.956c0 5.831 3.347 10.838 8.733 13.07 5.382 2.225 11.291 1.06 15.412-3.068 3.485-3.486 7.932-3.412 10.917-2.173 2.993 1.239 6.188 4.322 6.188 9.259V66h-5.689c-2.17 0-4.298.88-5.833 2.417L43.562 81.398a7.947 7.947 0 00-2.312 5.581c0 4.355 3.54 7.896 7.895 7.896h.735C50.734 97.27 53.002 99 55.687 99h28.875c2.686 0 4.954-1.73 5.808-4.125h.734c4.355 0 7.896-3.54 7.896-7.895a7.955 7.955 0 00-2.312-5.584zM14.438 4.125h28.874c1.137 0 2.063.924 2.063 2.063a2.065 2.065 0 01-2.063 2.062H14.439a2.065 2.065 0 01-2.063-2.063c0-1.137.927-2.062 2.063-2.062zm6.687 24.75a4.161 4.161 0 01-2.917-1.209L5.228 14.69a3.814 3.814 0 01-1.103-2.668 3.775 3.775 0 013.77-3.77h.735c.854 2.395 3.122 4.124 5.808 4.124h28.874c2.686 0 4.954-1.73 5.808-4.125h.734a3.775 3.775 0 013.77 3.77c0 .992-.402 1.964-1.103 2.667l-12.979 12.98a4.161 4.161 0 01-2.916 1.208H21.125zm63.437 66H55.688a2.065 2.065 0 01-2.063-2.063c0-1.137.926-2.062 2.063-2.062h28.874c1.136 0 2.063.924 2.063 2.063a2.065 2.065 0 01-2.063 2.062zm6.543-4.125h-.735c-.854-2.396-3.122-4.125-5.808-4.125H55.688c-2.686 0-4.954 1.73-5.808 4.125h-.734a3.775 3.775 0 01-3.77-3.77c0-.992.402-1.964 1.103-2.667l12.979-12.98a4.161 4.161 0 012.916-1.208h15.502c1.083 0 2.147.44 2.916 1.208l12.98 12.978a3.815 3.815 0 011.103 2.668 3.775 3.775 0 01-3.77 3.77z"/>
    </svg>
    <svg fill="none" viewBox="0 0 32 48" id="slider-arrow" xmlns="http://www.w3.org/2000/svg">
        <path d="M2.372 2.952l26.794 21.436L2.372 45.823" stroke-width="4" stroke-linecap="round" stroke-linejoin="round"/>
    </svg>
</svg>
