<svg width="107" height="107" fill="none" xmlns="http://www.w3.org/2000/svg"><g clip-path="url(#clip0)" fill="#87AD3B"><path d="M58.315 15.654a1.783 1.783 0 10-2.522 2.522l7.917 7.916a3.51 3.51 0 00.91 3.433c3.14 3.14 5.493 5.956 10.89 6.598a17.774 17.774 0 0110.636 4.838l8.738 8.739a7.135 7.135 0 009.874-10.3l-8.526-8.527a17.777 17.777 0 01-4.836-10.636c-.664-5.528-3.76-8.048-6.599-10.89a3.567 3.567 0 00-3.43-.908L73.45.522a1.783 1.783 0 00-2.522 2.522l7.567 7.567-2.525 2.521-7.563-7.564a1.783 1.783 0 00-2.522 2.521l7.565 7.565-2.522 2.522-7.566-7.565a1.783 1.783 0 00-2.522 2.521l7.567 7.565-2.523 2.524-7.569-7.567zm29.54 5.01a21.3 21.3 0 005.856 12.732l8.526 8.526a3.796 3.796 0 01.394 5.063 3.68 3.68 0 01-5.225.195l-8.739-8.739a21.297 21.297 0 00-12.733-5.858c-4.205-.5-6.063-2.853-8.793-5.58l15.137-15.128c2.82 2.816 5.077 4.592 5.58 8.788h-.004z"/><path d="M80.624 73.202c-2.155-6.256.616-14.69 1.372-28.556a1.786 1.786 0 00-3.567-.197c-.734 13.52-3.447 21.818-1.464 29.008-7.338.672-16.332 2.502-16.332 6.793a4.176 4.176 0 002.426 3.388l.872 4.36c-2.122.298-4.434.535-6.905.714V76.376a33.477 33.477 0 007.903-14.127c2.854-.754 8.188-3.37 8.188-12.387 0-4.171-.963-6.686-2.946-7.688a4.303 4.303 0 00-3.164-.228c0-1.136-.04-2.261-.12-3.328a1.784 1.784 0 00-.511-1.122c-6.88-6.937-9.844-7.18-22.684-7.18-8.539 0-11.744-4.879-12.894-7.789a1.783 1.783 0 00-2.746-.756c-5.093 3.923-7.599 10.521-7.668 20.176a4.308 4.308 0 00-3.162.227c-1.992 1.002-2.955 3.517-2.955 7.688 0 8.988 5.298 11.615 8.157 12.376a33.115 33.115 0 007.959 14.213v12.26C12.127 87.382 7.478 83.36 5.04 80.606c11.77-5.629 2.08-28.325 3.798-46.248 1.753-18.197 17.02-19.033 21.666-18.867.383.042.77-.032 1.111-.213a43.617 43.617 0 0124.177-4.338 1.784 1.784 0 00.383-3.547 47.634 47.634 0 00-25.835 4.524c-11.043-.284-23.435 5.321-25.054 22.099C3.492 52.742 13.21 75.34 1.737 77.983a1.801 1.801 0 00-.88 3.301c2.908 2.675 5.064 9.302 29.72 11.025a5.371 5.371 0 005.186 4.002h15.943a5.263 5.263 0 005.13-4.006c2.8-.194 5.41-.463 7.796-.804 1.622 8.11 1.351 5.885 1.351 10.149a5.35 5.35 0 005.35 5.35H96.3a5.35 5.35 0 005.35-5.35c0-4.523-.476-1.013 2.925-18.012A4.177 4.177 0 00107 80.25c0-6.44-19.829-7.358-26.376-7.048zM68.56 45.357c.041.02.99.535.99 4.505 0 4.77-1.783 7.073-3.652 8.18a74.914 74.914 0 001.091-12.235c.82-.47 1.375-.551 1.571-.45zm-50.727 4.505c0-3.96.95-4.485.99-4.505.196-.098.75-.018 1.57.451a75.96 75.96 0 001.07 12.223c-1.864-1.11-3.63-3.413-3.63-8.17zm9.932 16.515c-3.196-6.823-3.838-14.234-3.838-23.978 0-7.515 1.53-12.88 4.669-16.305 1.994 3.34 6.302 7.79 15.096 7.79 12.34 0 14.18.187 19.682 5.654.056.924.082 1.883.082 2.854 0 9.722-.649 17.12-3.882 23.976-3.745 7.974-9.084 12.017-15.882 12.017-6.852.007-12.209-4.034-15.927-12.008zm23.941 26.367H35.763a1.783 1.783 0 01-1.794-2.01c0-.09-.02 1.275-.02-11.476a18.795 18.795 0 0019.51-.042V90.95a1.756 1.756 0 01-1.753 1.794zm32.11-16.06c10.861 0 18.246 2.253 19.512 3.566-1.266 1.313-8.65 3.567-19.511 3.567-10.86 0-18.246-2.254-19.512-3.567 1.266-1.313 8.651-3.567 19.512-3.567zm14.267 24.966c0 .985-.798 1.783-1.783 1.783H71.333a1.783 1.783 0 01-1.783-1.783v-1.783h17.833a1.783 1.783 0 100-3.567H69.23l-2.2-10.998a69.675 69.675 0 0033.576 0c-3.007 15.032-2.522 11.355-2.522 16.348z"/></g><defs><clipPath id="clip0"><path fill="#fff" d="M0 0h107v107H0z"/></clipPath></defs></svg>