<svg width="106" height="106" fill="none" xmlns="http://www.w3.org/2000/svg"><g clip-path="url(#clip0)" fill="#87AD3B"><path d="M51.288 64.937L47.755 79.07a1.77 1.77 0 002.143 2.141l7.066-1.766a1.767 1.767 0 00-.859-3.428l-4.207 1.06 2.818-11.278a1.768 1.768 0 10-3.428-.855v-.007zm-6.686-4.815a1.767 1.767 0 00-2.147 1.276c-.014.057-1.509 5.733-5.353 5.733-3.843 0-5.338-5.676-5.352-5.733a1.768 1.768 0 00-3.428.861c.087.344 2.177 8.405 8.78 8.405 6.604 0 8.694-8.06 8.78-8.405a1.767 1.767 0 00-1.28-2.137zm24.299 10.542c6.603 0 8.694-8.06 8.78-8.405a1.768 1.768 0 00-3.427-.86c-.014.056-1.509 5.732-5.353 5.732s-5.338-5.676-5.352-5.733a1.768 1.768 0 00-3.428.861c.087.344 2.177 8.405 8.78 8.405zM58.302 14.133a5.3 5.3 0 10-10.6 0 5.3 5.3 0 0010.6 0zm-7.067 0a1.767 1.767 0 113.534 0 1.767 1.767 0 01-3.534 0z"/><path d="M90.1 51.446V40.632c0-4.897-11.166-7.097-21.199-8.086V5.3a5.3 5.3 0 00-5.3-5.3H42.402a5.3 5.3 0 00-5.3 5.3v27.246c-10.033.99-21.199 3.189-21.199 8.086v10.814c-4.026.986-7.066 5.262-7.066 10.385 0 5.19 3.126 9.511 7.243 10.423C17.805 91.364 33.823 106 53.009 106c19.186 0 35.204-14.637 36.93-33.746 4.101-.912 7.228-5.232 7.228-10.423 0-5.123-3.04-9.4-7.067-10.385zM15.903 68.463a7.217 7.217 0 01-3.533-6.632 7.217 7.217 0 013.533-6.631v13.263zM40.636 5.3c0-.976.79-1.767 1.766-1.767h21.2c.975 0 1.766.791 1.766 1.767v32.473l-11.577-5.789a1.765 1.765 0 00-1.578 0l-11.578 5.79V5.3zm45.931 63.598c0 18.538-15.027 33.565-33.565 33.565-18.538 0-33.566-15.027-33.566-33.565V44.804c9.026 4.592 32.345 4.661 33.566 4.661 1.22 0 24.54-.069 33.565-4.66v24.093zM53.002 45.932c-20.846 0-32.723-3.43-33.566-5.2v-.036c.454-1.006 5.346-3.338 17.666-4.593v4.529a1.768 1.768 0 002.556 1.581l13.344-6.672 13.343 6.68a1.767 1.767 0 002.556-1.589v-4.533c12.398 1.268 17.277 3.614 17.678 4.449-.78 1.932-12.668 5.384-33.577 5.384zM90.1 68.463V55.2a7.217 7.217 0 013.534 6.631 7.217 7.217 0 01-3.534 6.632z"/></g><defs><clipPath id="clip0"><path fill="#fff" d="M0 0h106v106H0z"/></clipPath></defs></svg>