<svg width="97" height="97" fill="none" xmlns="http://www.w3.org/2000/svg"><g clip-path="url(#clip0)"><path d="M10.99 39.942c3.768-7.706 9.776-12.644 16.92-13.903 4.732-.835 10.62-.485 16.578.985.433.107.87.194 1.31.266-1.244-4.087-4.73-12.281-13.855-19.337a2.088 2.088 0 012.554-3.303c4.209 3.254 7.33 6.726 9.642 10.008.56-3.106 1.823-6.824 4.616-9.618C54.437-.64 63.945.006 64.348.037a2.088 2.088 0 011.925 1.925c.03.402.678 9.91-5.004 15.593-3.83 3.83-9.398 4.783-12.745 4.989.84 2.004 1.35 3.69 1.651 4.88a16.663 16.663 0 002.337-.4c5.958-1.47 11.846-1.82 16.578-.985 7.144 1.26 13.153 6.197 16.92 13.903 3.658 7.484 4.768 16.736 3.125 26.054-1.643 9.318-5.85 17.633-11.848 23.415C72.134 94.377 66.173 97 60.19 97a20.47 20.47 0 01-3.557-.311 19.028 19.028 0 01-1.705-.386 24.352 24.352 0 00-12.856 0c-.579.158-1.152.288-1.705.385-1.183.209-2.37.312-3.557.312-5.983 0-11.944-2.622-17.097-7.59-5.998-5.78-10.205-14.096-11.848-23.414-1.643-9.317-.533-18.57 3.125-26.054zm47.326-25.34c3.001-3.001 3.665-7.756 3.789-10.397-2.643.124-7.397.787-10.397 3.788-3.002 3.001-3.665 7.756-3.79 10.397 2.643-.124 7.398-.787 10.398-3.788zm-46.34 50.67c3.036 17.21 15.448 29.459 27.666 27.304a14.7 14.7 0 001.327-.3 28.528 28.528 0 0115.062 0c.453.124.9.225 1.327.3 12.22 2.154 24.63-10.094 27.665-27.305 1.491-8.455.509-16.799-2.765-23.495C79.093 35.3 74.16 31.173 68.365 30.15c-1.422-.25-3-.374-4.677-.374-3.17 0-6.692.442-10.176 1.301a20.97 20.97 0 01-4.98.607l-.034.002-.063-.003a20.93 20.93 0 01-4.947-.606c-5.327-1.314-10.74-1.652-14.853-.927-5.794 1.022-10.728 5.15-13.893 11.625-3.274 6.696-4.256 15.04-2.765 23.495z" fill="#87AD3B"/></g><defs><clipPath id="clip0"><path fill="#fff" transform="matrix(-1 0 0 1 97 0)" d="M0 0h97v97H0z"/></clipPath></defs></svg>