<svg width="108" height="106" fill="none" xmlns="http://www.w3.org/2000/svg"><g clip-path="url(#clip0)" fill="#87AD3B"><path d="M106.239 45.553v-31.59a14.127 14.127 0 00-2.537-7.87A14.055 14.055 0 0097.2 1.005c-6.65-2.593-13.676.254-18.022 3.759-5.967 4.848-8.617 12.215-8.102 22.551.259 4.499.94 8.963 2.032 13.334l.066.3c.496 2.199.843 3.693 1.199 4.698a5.272 5.272 0 00-1.593 3.759v8.833a5.303 5.303 0 00.826 2.893 5.28 5.28 0 002.266 1.974c0 1.672.103 3.326.206 4.933.112 1.785.224 3.627.224 5.421 0 .47.186.918.516 1.25a1.759 1.759 0 003.006-1.25c0-1.879-.121-3.805-.234-5.637-.084-1.381-.159-2.82-.187-4.21h20.954l.159 1.767a53.866 53.866 0 01-.684 18.247c-2.285 9.18-7.381 15.035-15.156 17.337-8.533 2.555-17.628 1.221-26.424-.076l-1.376-.197c-2.501-.366-5.724-.752-9.068-1.156-4.814-.582-9.788-1.184-13.32-1.785-1.142-.197-2.285-.413-3.446-.63a64.25 64.25 0 00-14.369-1.569h-4.075a1.766 1.766 0 01-1.583-.94l-4.973-9.48a1.517 1.517 0 01.29-1.785l2.098-2.152 5.498 8.193a1.776 1.776 0 001.827.741 1.771 1.771 0 001.381-1.41 1.785 1.785 0 00-.276-1.332l-5.742-8.541-.103-.17c-.271-.479-.58-.995-.852-1.522-.843-1.569-1.05-2.574-.703-3.354a2.263 2.263 0 011.967-1.316 3.409 3.409 0 012.51.94 461.17 461.17 0 014.993 4.623c2.464 2.293 4.993 4.698 7.578 6.925 4.403 3.862 10.79 4.294 16.945 4.341 6.13.11 12.26-.1 18.368-.63a1.75 1.75 0 001.186-.609c.3-.351.45-.808.416-1.27a1.743 1.743 0 00-1.193-1.546 1.728 1.728 0 00-.68-.08 171.91 171.91 0 01-18.013.63c-5.508-.075-11.175-.404-14.687-3.439-2.53-2.198-5.04-4.557-7.494-6.83-1.686-1.589-3.353-3.186-5.048-4.69a6.9 6.9 0 00-5.227-1.879 5.711 5.711 0 00-2.884 1.02 5.737 5.737 0 00-1.95 2.363 6.596 6.596 0 00.394 5.638l-2.81 2.819a5.051 5.051 0 00-.937 5.91l4.965 9.537a5.302 5.302 0 001.951 2.062c.825.497 1.77.759 2.732.757h4.14c4.594 0 9.174.508 13.657 1.513 1.171.216 2.333.432 3.494.629 3.616.63 8.636 1.241 13.498 1.814 3.306.404 6.5.789 8.973 1.146l1.377.197a110.976 110.976 0 0016.055 1.57 41.335 41.335 0 0011.886-1.607c8.927-2.669 14.987-9.537 17.563-19.864a56.67 56.67 0 00.787-19.413l-.14-1.588a5.28 5.28 0 002.969-1.857 5.303 5.303 0 001.161-3.31v-8.833a5.28 5.28 0 00-1.76-3.919h.037zm-28.644-1.39c-.187-.667-.496-1.88-.937-3.984l-.075-.357a67.647 67.647 0 01-1.939-12.685c-.468-9.237 1.687-15.467 6.791-19.61 3.42-2.82 9.274-5.29 14.528-3.242a10.535 10.535 0 014.872 3.791 10.578 10.578 0 011.919 5.878v30.209H77.595zm26.883 14.094a1.762 1.762 0 01-1.761 1.767H78.063c-.467 0-.915-.186-1.245-.518a1.77 1.77 0 01-.516-1.249v-8.832a1.762 1.762 0 011.761-1.767h24.654a1.767 1.767 0 011.761 1.767v8.832z"/><path d="M75.872 92.338a1.759 1.759 0 00-3.008 1.25c0 .468.186.918.516 1.25A7.935 7.935 0 0079 97.171c2.108 0 4.13-.84 5.62-2.335a7.986 7.986 0 002.328-5.638 7.986 7.986 0 00-2.328-5.637 1.761 1.761 0 00-3.007 1.25 1.773 1.773 0 00.516 1.249 4.438 4.438 0 011.295 3.138 4.45 4.45 0 01-1.295 3.139 4.424 4.424 0 01-3.129 1.3 4.414 4.414 0 01-3.128-1.3z"/><path d="M30.545 21.555l-3.447 3.458-7.428-7.423.113-.103a3.341 3.341 0 000-4.698l-1.78-1.786a3.32 3.32 0 00-4.683 0L.937 23.406a3.317 3.317 0 00-.972 2.35 3.326 3.326 0 00.972 2.349l1.77 1.775a3.32 3.32 0 004.683 0l.103-.103 7.494 7.433-3.447 3.457a3.341 3.341 0 000 4.699l1.78 1.776a3.306 3.306 0 002.341.975 3.298 3.298 0 002.342-.975l2.005-2.04c.14.204.296.396.468.574l26.958 27.042a3.806 3.806 0 005.376 0l.403-.404 5.199.63a1.503 1.503 0 001.246-.432l.29-.254 17.338 17.43a1.505 1.505 0 002.487-1.09 1.516 1.516 0 00-.36-1.043l-17.376-17.43.262-.263a1.512 1.512 0 00.459-1.269l-.628-5.215.394-.394a3.758 3.758 0 001.137-2.697 3.768 3.768 0 00-1.137-2.697l-26.93-27.024a3.438 3.438 0 00-.58-.47l2.05-2.057a3.341 3.341 0 000-4.698l-1.77-1.776a3.334 3.334 0 00-2.372-1.002 3.325 3.325 0 00-2.377.992zM4.871 27.757L3.1 25.98a.31.31 0 010-.442l12.364-12.384a.31.31 0 01.459 0l1.78 1.785a.31.31 0 010 .442L5.31 27.757a.309.309 0 01-.44 0zm5.086.188l7.906-7.93 7.109 7.131-7.906 7.93-7.109-7.131zm49.7 40.3l-1.582 1.617-2.136-.254 3.484-3.495.235 2.133zm.712-7.385l-.936.94-7.859 7.883-.937.94a.795.795 0 01-1.124 0L26.077 46.982l10.81-10.806 4.159 4.228-2.642 2.64a1.516 1.516 0 00.08 2.054 1.506 1.506 0 002.046.08l2.68-2.688 3.194 3.195-2.68 2.687a1.516 1.516 0 001.088 2.495c.38.015.75-.114 1.039-.362l2.679-2.687 3.194 3.204-2.68 2.688a1.506 1.506 0 000 2.133 1.515 1.515 0 002.127 0l2.68-2.688 3.184 3.195-2.707 2.687a1.525 1.525 0 000 2.133 1.5 1.5 0 001.639.329 1.5 1.5 0 00.487-.329l2.679-2.687 1.246 1.259a.787.787 0 01.164.863.789.789 0 01-.174.255zM33.421 32.671l1.34 1.344-10.81 10.871-1.349-1.343a.81.81 0 01-.122-.884l10.06-10.12a.795.795 0 01.881.16v-.028zm1.47-7.235a.31.31 0 010 .442l-4.28 4.294a3.248 3.248 0 00-.44.366l-9.695 9.744a4.162 4.162 0 00-.356.451l-4.28 4.285a.31.31 0 01-.44 0l-1.78-1.795a.309.309 0 01-.069-.34.309.309 0 01.068-.101l3.447-3.458 12.177-12.215 3.447-3.458a.318.318 0 01.45 0l1.752 1.785z"/></g><defs><clipPath id="clip0"><path fill="#fff" d="M0 0h108v106H0z"/></clipPath></defs></svg>