<svg width="124" height="101" fill="none" xmlns="http://www.w3.org/2000/svg"><path d="M92.973 3.263c11.934 0 13.078 12.332 13.184 13.31v7.472a7.968 7.968 0 00-3.715 1.827 7.939 7.939 0 00-2.292 3.442l-3.785 10.995a8.05 8.05 0 001.071 7.298 8.08 8.08 0 006.572 3.378h7.56a8.092 8.092 0 006.571-3.378 8.046 8.046 0 001.071-7.298l-3.784-10.995a7.95 7.95 0 00-5.999-5.27V16.42C109.075 10.709 105.185 0 92.982 0S77.232 10.913 77.1 16.72v24.2c0 4.078-1.12 7.178-3.342 9.193a12.038 12.038 0 01-7.357 2.773V35.48a8.143 8.143 0 00-2.394-5.767 8.176 8.176 0 00-5.78-2.39H8.174c-2.167 0-4.246.86-5.779 2.39A8.148 8.148 0 000 35.48v49.917c0 2.163.861 4.238 2.394 5.767a8.182 8.182 0 005.78 2.39H31.55v4.183H3.629a1.636 1.636 0 00-1.635 1.632A1.63 1.63 0 003.63 101h59.119a1.636 1.636 0 001.635-1.631 1.63 1.63 0 00-1.635-1.632h-27.93v-4.184h23.376c2.168 0 4.247-.86 5.78-2.389a8.148 8.148 0 002.394-5.767v-29.24a15.328 15.328 0 009.57-3.614c2.943-2.659 4.43-6.574 4.43-11.623V16.753c.017-.546.45-13.49 12.604-13.49zm19.363 27.111l3.777 10.987a4.794 4.794 0 01-4.545 6.362h-7.56a4.817 4.817 0 01-3.911-2.01 4.789 4.789 0 01-.634-4.344l3.776-10.995a4.808 4.808 0 014.549-3.23c1 0 1.976.311 2.791.89a4.796 4.796 0 011.757 2.34zM63.099 85.397a4.889 4.889 0 01-1.436 3.46 4.91 4.91 0 01-3.468 1.434H8.173a4.91 4.91 0 01-3.467-1.434 4.889 4.889 0 01-1.437-3.46V35.48c0-1.298.517-2.543 1.437-3.46a4.91 4.91 0 013.467-1.434h50.022c1.3 0 2.548.516 3.468 1.434a4.889 4.889 0 011.436 3.46v49.917z" fill="#87AD3B"/><path d="M117.567 56.711a1.636 1.636 0 00.478-1.157 1.62 1.62 0 00-.482-1.155 1.635 1.635 0 00-1.786-.352 1.638 1.638 0 00-.531.356 10.581 10.581 0 01-14.933 0 1.637 1.637 0 00-2.792 1.154 1.629 1.629 0 00.48 1.154 13.862 13.862 0 009.779 4.036 13.86 13.86 0 009.779-4.036h.008z" fill="#87AD3B"/><path d="M118.516 59.541a15.133 15.133 0 01-10.695 4.423 15.15 15.15 0 01-10.695-4.423 1.633 1.633 0 00-1.859-.522 1.637 1.637 0 00-1.061 1.61 1.63 1.63 0 00.606 1.188 18.411 18.411 0 0026 0 1.625 1.625 0 00-.159-2.132 1.636 1.636 0 00-2.137-.144z" fill="#87AD3B"/><path d="M123.518 64.712a1.634 1.634 0 00-1.783-.354 1.63 1.63 0 00-.53.354 19.017 19.017 0 01-13.417 5.537 19.015 19.015 0 01-13.417-5.537 1.637 1.637 0 00-2.792 1.155c0 .432.172.848.479 1.154a22.29 22.29 0 0015.73 6.494 22.29 22.29 0 0015.73-6.494 1.632 1.632 0 000-2.308zM42.437 47.16a1.63 1.63 0 00-1.527-1.177 1.638 1.638 0 00-.672.125 21.398 21.398 0 01-8.067 1.631 20.586 20.586 0 01-7.912-1.631 1.638 1.638 0 00-2.19 1.199l-5.297 24.469a1.628 1.628 0 00.973 1.843 39.884 39.884 0 0014.786 3.05h.637a40.474 40.474 0 0015.464-3.099 1.633 1.633 0 00.94-1.957L42.437 47.16zm-9.85 26.247a36.552 36.552 0 01-12.325-2.34l4.569-21.264a23.92 23.92 0 007.356 1.166 23.437 23.437 0 007.602-1.215l6.228 21.345a37.119 37.119 0 01-13.43 2.308z" fill="#87AD3B"/></svg>