<svg width="89" height="116" fill="none" xmlns="http://www.w3.org/2000/svg"><g clip-path="url(#clip0)"><path d="M74.144 35.273l-4.635-2.676 5.744-9.948.164.095a3.65 3.65 0 004.98-1.34l1.379-2.39a3.65 3.65 0 00-1.333-4.974L63.778 4.418a3.65 3.65 0 00-4.975 1.333l-1.38 2.39a3.65 3.65 0 001.33 4.982l.143.082-5.744 9.949-4.642-2.68a3.65 3.65 0 00-4.979 1.34l-1.38 2.389a3.65 3.65 0 001.334 4.975l2.76 1.594a3.733 3.733 0 00-.484.674L24.826 67.707a4.18 4.18 0 001.547 5.662l.558.322.808 5.702a1.652 1.652 0 00.816 1.196l.344.198-13.499 23.38a1.653 1.653 0 001.858 2.422 1.656 1.656 0 001.003-.77L31.747 82.46l.35.202a1.653 1.653 0 001.437.105l5.32-2.145.53.306a4.179 4.179 0 005.683-1.487L66.031 43.13c.138-.24.252-.494.342-.757l2.753 1.59a3.65 3.65 0 004.983-1.329l1.37-2.374a3.65 3.65 0 00-1.335-4.987zM60.256 9.775l1.38-2.388a.339.339 0 01.49-.108L78.791 16.9a.347.347 0 01.124.463l-1.38 2.389a.346.346 0 01-.466.13l-16.665-9.62a.337.337 0 01-.12-.47l-.028-.017zm1.233 5.48l10.663 6.157-5.504 9.534-10.635-6.14 5.476-9.55zM33.025 79.421l-2.146-1.238-.35-2.367 4.685 2.704-2.19.901zm8.01-1.354l-13.031-7.524a.826.826 0 01-.338-1.148l18.272-31.649 14.54 8.395-3.233 5.6-3.576-2.064a1.652 1.652 0 00-1.652 2.86l3.576 2.065-2.477 4.292-3.576-2.065a1.651 1.651 0 10-1.652 2.86l3.576 2.065-2.477 4.292-3.577-2.065a1.652 1.652 0 00-1.651 2.86l3.576 2.066-2.478 4.29-3.576-2.064a1.652 1.652 0 10-1.652 2.861l3.577 2.065-.97 1.68a.87.87 0 01-1.2.328zm22.136-36.589L62.13 43.28l-14.54-8.395 1.04-1.802a.825.825 0 01.892-.438l13.59 7.845a.825.825 0 01.059.988zm8.069-.481a.347.347 0 01-.47.12l-5.722-3.304a4.046 4.046 0 00-.517-.375l-13.06-7.54a3.95 3.95 0 00-.577-.257l-5.722-3.303a.346.346 0 01-.16-.483l1.38-2.39a.347.347 0 01.466-.13l25.634 14.799a.347.347 0 01.127.474l-1.38 2.389z" fill="#87AD3B"/></g><defs><clipPath id="clip0"><path fill="#fff" transform="rotate(30 28.063 104.731)" d="M0 0h36.891v112.251H0z"/></clipPath></defs></svg>