<svg width="112" height="112" fill="none" xmlns="http://www.w3.org/2000/svg"><g clip-path="url(#clip0)" fill="#87AD3B"><path d="M54.278 99.976l-.227-.045a13.888 13.888 0 01-8.21-5.239 13.992 13.992 0 01-2.777-9.36 20.55 20.55 0 011.463-5.575 22.64 22.64 0 001.054-3.358c.228-1.068 5.453-26.38 10.296-42.886 4.871-16.68 23.536-30.476 25.217-31.698.691-.648 2.218-1.935 3.517-.657 1.3 1.277.282 2.673-1.817 5.347-1.954 2.436-5.27 6.387-9.86 11.597-15.684 17.911-9.25 55.203-8.77 57.877 3.009 7.91 3.1 14.116.283 18.45-3.399 5.2-9.66 5.53-9.933 5.538l-.236.01zm11.15-77.34a40.475 40.475 0 00-6.061 11.918c-4.77 16.36-9.996 41.525-10.223 42.584a26.616 26.616 0 01-1.209 3.887 17.453 17.453 0 00-1.245 4.608 10.295 10.295 0 001.994 6.787 10.22 10.22 0 005.894 3.88c.909-.101 4.78-.712 6.843-3.897 2.062-3.184 1.871-8.559-.71-15.265l-.081-.31c-.29-1.497-6.28-33.287 4.798-54.191z"/><path d="M110.183 44.517H76.705a12.314 12.314 0 00-4.719 2.084 12.375 12.375 0 00-3.46 3.838c-2.19 4.006-1.844 9.307.937 15.704 4.034 9.288 10.786 24.8 5.388 33.688-2.89 4.772-9.16 7.509-18.628 8.129h-.446c-9.432-.593-15.739-3.33-18.628-8.13-5.398-8.887 1.354-24.398 5.388-33.687 2.79-6.388 3.108-11.67.964-15.676a12.373 12.373 0 00-3.46-3.838 12.316 12.316 0 00-4.719-2.084H1.817c-.482 0-.944.192-1.285.534a1.829 1.829 0 000 2.581c.341.342.803.535 1.285.535h32.987a8.726 8.726 0 013.156 1.457 8.763 8.763 0 012.342 2.576c1.59 2.965 1.227 7.163-1.09 12.482-4.599 10.557-11.55 26.516-5.162 37.046 3.535 5.839 10.768 9.17 21.491 9.882h.118c.115.014.23.014.346 0 .111.014.224.014.336 0h.118c10.723-.712 17.956-4.043 21.5-9.882 6.361-10.53-.572-26.461-5.161-37.046-2.308-5.292-2.726-9.49-1.118-12.446a8.73 8.73 0 012.36-2.625 8.69 8.69 0 013.201-1.472h32.978c.482 0 .944-.192 1.285-.534a1.828 1.828 0 00-1.285-3.116h-.036z"/><path d="M17.547 63.87a2.677 2.677 0 002.672-2.682 2.677 2.677 0 00-2.672-2.683 2.677 2.677 0 00-2.671 2.683 2.677 2.677 0 002.671 2.683zM3.517 79.893a2.677 2.677 0 002.671-2.682 2.677 2.677 0 00-2.671-2.683 2.677 2.677 0 00-2.672 2.683 2.677 2.677 0 002.672 2.682zm15.221 17.456a2.677 2.677 0 002.672-2.683 2.677 2.677 0 00-2.672-2.683 2.677 2.677 0 00-2.672 2.683 2.677 2.677 0 002.672 2.683zm75.996-.712a2.677 2.677 0 002.672-2.683 2.677 2.677 0 00-2.672-2.682 2.677 2.677 0 00-2.671 2.682 2.677 2.677 0 002.671 2.683zm14.022-16.032a2.678 2.678 0 002.672-2.683 2.678 2.678 0 00-2.672-2.682 2.677 2.677 0 00-2.672 2.682 2.677 2.677 0 002.672 2.683zM93.535 63.15a2.677 2.677 0 002.671-2.683 2.677 2.677 0 00-2.671-2.682 2.677 2.677 0 00-2.672 2.682 2.677 2.677 0 002.672 2.683z"/></g><defs><clipPath id="clip0"><path fill="#fff" transform="translate(0 .61)" d="M0 0h112v111H0z"/></clipPath></defs></svg>