<svg width="73" height="102" fill="none" xmlns="http://www.w3.org/2000/svg"><g clip-path="url(#clip0)"><path d="M65.94 51.46a18.27 18.27 0 00-5.63-5.3c.407-1.294.612-2.643.61-4v-.81h1.38a2 2 0 000-4H60a13.43 13.43 0 00-2.1-3.61l.9-.89a2 2 0 10-2.8-2.76l-1 1a13.08 13.08 0 00-5.46-2.08C52.14 27 55.6 26 59.81 26.1a2 2 0 002-2v-7.55a2 2 0 00-1.82-2 47.533 47.533 0 00-8.87.27 20 20 0 00-8.7-9l1.4-2.1a2 2 0 10-3.29-2.21l-2 3A15.08 15.08 0 0036 4.29c-.51 0-1 0-1.52.08V2a2 2 0 10-4 0v3.4a17 17 0 00-5.26 3.4A21.331 21.331 0 0022 12.7a4.51 4.51 0 00-4-2.48h-5.43a4.51 4.51 0 00-4.51 4.51V35a20.364 20.364 0 00-2.88 2.73C.83 42.71 0 49.22 0 53.8.05 59 1.3 64.26 3.28 67.65c.3.8.57 1.57.83 2.32a34 34 0 007.07 12.71A53.37 53.37 0 0039.4 99.85l5.26 1.24c1.448.343 2.932.518 4.42.52a19.078 19.078 0 0011.33-3.7l1.34-1a26.341 26.341 0 0010.77-19.43 41.918 41.918 0 00-.26-8.38 37 37 0 00-5.21-15.83v-.07l-1.11-1.74zM57 42.18c0 .783-.1 1.563-.3 2.32a17.781 17.781 0 00-8.75-.58 19.462 19.462 0 00-4.29-2.14A22.06 22.06 0 0146.19 33c.486-.08.977-.12 1.47-.12a9.299 9.299 0 019.34 9.3zm.94-23.71v3.67A17.74 17.74 0 0045.81 27c-4.36 4.27-5.67 10.2-6.07 13.56a56.184 56.184 0 00-6.82-1.22c-.6-.55-1.2-1.08-1.8-1.58v-.14c0-5.33 1.73-9.62 5.12-12.76 6.46-5.92 17.35-6.44 21.65-6.39h.05zm-35.47 2.74l.09-.25c2.19-7.59 7.57-12.7 13.44-12.7a10.44 10.44 0 012.93.43A14.52 14.52 0 0147 15.54c-4.61 1-9.6 2.88-13.45 6.42a19.75 19.75 0 00-6.28 13 23.999 23.999 0 00-4.81-2.32l.01-11.43zM12 14.73a.54.54 0 01.54-.54H18a.54.54 0 01.54.54v17.1a14.605 14.605 0 00-2 0 14.06 14.06 0 00-4.49.94L12 14.73zM6.12 64.5c-2.51-5.56-3.86-17.4 2-24.13 2.57-2.93 5.44-4.48 8.53-4.62 3.95-.18 8.5 2 13.18 6.22a24.37 24.37 0 01-11.42 10.89C10.81 56.31 7.57 61 6.19 64.33a1.22 1.22 0 00-.07.17zm62.42 7.23c.14 1.817.14 3.643 0 5.46a22.392 22.392 0 01-9.15 16.53l-1.34 1a15.16 15.16 0 01-9 2.94 15.37 15.37 0 01-3.51-.41L40.31 96a49.36 49.36 0 01-26.1-15.88 28.312 28.312 0 01-5.33-8.64 2 2 0 00.12-.85c0-.09-1-8.66 11.1-14.16a28 28 0 0013.52-13c9.09 1.25 12.21 3.81 12.45 4a1.84 1.84 0 001.82.52l.5-.11c6.35-1.33 12.68 2.17 15.59 8 .3.59.48.51.84 1.28a29.05 29.05 0 013.46 10.7" fill="#87AD3B"/></g><defs><clipPath id="clip0"><path fill="#fff" d="M0 0h72.63v101.61H0z"/></clipPath></defs></svg>