<svg width="95" height="101" fill="none" xmlns="http://www.w3.org/2000/svg"><g clip-path="url(#clip0)"><path d="M92.044 51.341c1.002-2.503 3.267-9.14.511-14.697-1.523-3.084-4.289-5.267-8.176-6.548a14.197 14.197 0 001.643-6.939c0-4.134-1.212-7.418-3.607-9.751a13.121 13.121 0 00-8.678-3.394 2.005 2.005 0 00-.891.25C71.373 5.737 67.475 0 59.589 0a13.225 13.225 0 00-12.094 7.489A13.204 13.204 0 0035.411 0c-7.886 0-11.784 5.737-13.257 10.232a2.006 2.006 0 00-.892-.25 13.162 13.162 0 00-8.687 3.424c-2.385 2.333-3.557 5.617-3.557 9.751a14.198 14.198 0 001.643 6.939c-3.938 1.281-6.653 3.464-8.216 6.548-2.756 5.556-.531 12.194.5 14.697C0 56.637-.73 61.613.702 66.129c1.724 5.456 6.183 8.6 8.317 9.841.21 4.816 1.743 8.49 4.55 10.933a13.253 13.253 0 008.306 3.004c1.142 4.595 4.9 11.013 13.387 11.013 2.545.045 5.05-.638 7.22-1.968a13.34 13.34 0 005.024-5.541 13.373 13.373 0 0012.255 7.509c8.477 0 12.244-6.448 13.386-11.013a13.283 13.283 0 008.307-3.004c2.805-2.443 4.329-6.117 4.549-10.933 2.124-1.241 6.573-4.385 8.307-9.841 1.413-4.516.661-9.492-2.265-14.788zM45.301 87.744c-.2 1.172-1.864 9.251-10.02 9.251-8.517 0-9.7-8.94-9.75-9.32l-.24-2.003-2.004.26s-4.169.5-7.085-2.062c-2.174-1.863-3.176-4.926-3.176-9.121v-1.292l-1.182-.53s-5.561-2.563-7.285-8.01c-1.192-3.634-.38-7.85 2.355-12.445l.551-.94-.451-.972c0-.07-3.457-7.098-.942-12.154 1.203-2.413 3.678-4.075 7.345-4.946a14.755 14.755 0 006.623 3.083 16.327 16.327 0 00-.781 7.3 15.01 15.01 0 001.593 4.935 12.278 12.278 0 00-2.425 8.42c.651 4.756 4.83 7.549 5.01 7.67a2.005 2.005 0 002.043.08 2.005 2.005 0 001.012-2.166 2.002 2.002 0 00-.86-1.269s-2.836-1.932-3.227-4.856a7.284 7.284 0 01.922-4.265 20.373 20.373 0 003.727 3.434 2.006 2.006 0 003.005-1.1 2 2 0 00-.8-2.244c-.06 0-5.321-3.594-6.083-9.18-.761-5.587 3.347-10.633 3.417-10.723a2.002 2.002 0 00-2.445-3.163c-.24.162-.441.373-.59.62a20.239 20.239 0 00-1.834 2.743c-2.305-.26-8.738-1.662-8.738-9.602 0-3.003.792-5.316 2.365-6.858a9.022 9.022 0 015.821-2.302c.104.01.208.01.311 0v4.685a2.002 2.002 0 002.004 2.003 2.005 2.005 0 002.004-2.003v-5.446c.23-1.162 1.944-9.251 9.92-9.251s9.69 8.11 9.89 9.25v74.49zm45.18-22.857c-1.693 5.416-7.244 8.01-7.295 8.01l-1.172.53v1.292c0 4.195-1.072 7.258-3.176 9.11a10.025 10.025 0 01-7.075 2.063l-2.004-.28-.25 2.002c0 .38-1.222 9.321-9.74 9.321-8.136 0-9.85-8.11-10.02-9.25v-74.43c.15-1.16 1.864-9.25 9.84-9.25s9.69 8.11 9.89 9.25v5.387a2.002 2.002 0 002.004 2.003 2.005 2.005 0 002.004-2.003v-4.625c.113.01.227.01.34 0a9.113 9.113 0 015.792 2.282c1.583 1.552 2.395 3.865 2.395 6.889 0 7.939-6.443 9.35-8.737 9.6a20.239 20.239 0 00-1.834-2.752 2.003 2.003 0 10-3.076 2.563c0 .05 4.178 5.066 3.407 10.723-.772 5.656-6.013 9.14-6.073 9.17a2.003 2.003 0 00-.57 2.754 2.004 2.004 0 001.673.9c.39.004.774-.108 1.102-.32a20.733 20.733 0 003.777-3.434 7.364 7.364 0 01.922 4.265c-.4 2.924-3.206 4.846-3.226 4.856a2.003 2.003 0 00.686 3.638c.52.109 1.063.007 1.508-.284.18-.12 4.359-2.913 5.01-7.67a12.278 12.278 0 00-2.435-8.42 14.818 14.818 0 001.603-4.935 16.176 16.176 0 00-.791-7.299 14.654 14.654 0 006.643-3.083c3.668.87 6.153 2.533 7.355 4.946 2.515 5.006-.912 12.084-.942 12.154l-.49 1.001.55.941c2.736 4.566 3.547 8.75 2.405 12.385z" fill="#87AD3B"/></g><defs><clipPath id="clip0"><path fill="#fff" d="M0 0h95v101H0z"/></clipPath></defs></svg>