<svg width="88" height="108" fill="none" xmlns="http://www.w3.org/2000/svg"><g clip-path="url(#clip0)"><path d="M68.139 67.642H56.217a7.47 7.47 0 00-2.76-4.074 26.208 26.208 0 0011.69-9.124 26.624 26.624 0 004.94-14.067 9.102 9.102 0 005.244-3.267 9.275 9.275 0 001.99-5.891 9.269 9.269 0 00-2.171-5.826 9.094 9.094 0 00-5.342-3.1A26.48 26.48 0 0060.974 6.33 25.969 25.969 0 0043.995-.005 25.969 25.969 0 0027.016 6.33a26.48 26.48 0 00-8.833 15.964 9.098 9.098 0 00-5.216 3.137 9.27 9.27 0 00-2.11 5.751 9.276 9.276 0 001.93 5.816 9.106 9.106 0 005.116 3.3 26.647 26.647 0 004.828 13.947 26.236 26.236 0 0011.474 9.157 7.458 7.458 0 00-2.894 4.211H19.87a19.7 19.7 0 00-7.612 1.535 19.868 19.868 0 00-6.45 4.364 20.107 20.107 0 00-4.305 6.526A20.276 20.276 0 000 87.733v20.286h88V87.733a20.2 20.2 0 00-5.816-14.2 19.776 19.776 0 00-14.045-5.89zm-22.186-1.618h3.203a3.439 3.439 0 012.573.959 3.542 3.542 0 010 5.092 3.44 3.44 0 01-2.573.958h-3.222l.02-7.009zm-3.858 7.01h-3.743a3.44 3.44 0 01-2.572-.96 3.542 3.542 0 010-5.092 3.466 3.466 0 012.572-.958h3.724l.019 7.01zM73.464 31.36a5.372 5.372 0 01-.916 2.994 5.286 5.286 0 01-2.422 1.958v-9.895a5.286 5.286 0 012.42 1.954c.594.88.914 1.922.918 2.989zm-58.744 0a5.355 5.355 0 01.857-2.913 5.272 5.272 0 012.297-1.961v9.748a5.301 5.301 0 01-2.292-1.965 5.383 5.383 0 01-.862-2.91zm7.012 7.633V26.408a22.721 22.721 0 011.56-8.757 22.533 22.533 0 014.796-7.461 22.262 22.262 0 017.282-5 22.07 22.07 0 0117.26 0 22.264 22.264 0 017.282 5 22.534 22.534 0 014.796 7.461 22.72 22.72 0 011.56 8.757v12.585a22.652 22.652 0 01-5.856 15.203 22.196 22.196 0 01-14.478 7.217V40.582h5.99a1.92 1.92 0 001.364-.572 1.96 1.96 0 000-2.757 1.919 1.919 0 00-1.364-.57h-9.848v24.73A22.196 22.196 0 0127.59 54.2a22.651 22.651 0 01-5.859-15.206zm62.41 65.137h-15.25V90.297a1.96 1.96 0 00-.566-1.378 1.919 1.919 0 00-2.728 0 1.96 1.96 0 00-.565 1.378v13.804H22.398V90.297a1.96 1.96 0 00-.565-1.378 1.92 1.92 0 00-1.364-.572 1.92 1.92 0 00-1.364.572 1.96 1.96 0 00-.566 1.378v13.804H3.86V87.733a16.28 16.28 0 014.689-11.445 15.937 15.937 0 0111.323-4.746H31.3a7.422 7.422 0 002.633 3.888 7.29 7.29 0 004.418 1.502h3.724v8.004l-7.07 7.36a1.962 1.962 0 00.038 2.758 1.919 1.919 0 002.73-.039l6.25-6.521 6.54 6.55c.362.363.85.566 1.36.566a1.915 1.915 0 001.07-.333c.317-.216.563-.521.708-.878a1.969 1.969 0 00-.427-2.123l-7.341-7.36v-7.984h3.203a7.29 7.29 0 004.418-1.502 7.422 7.422 0 002.633-3.888h11.951a15.938 15.938 0 0111.317 4.749 16.28 16.28 0 014.686 11.442v16.397z" fill="#87AD3B"/></g><defs><clipPath id="clip0"><path fill="#fff" d="M0 0h88v108H0z"/></clipPath></defs></svg>