<svg width="101" height="99" fill="none" xmlns="http://www.w3.org/2000/svg"><g clip-path="url(#clip0)" fill="#87AD3B"><path d="M14.87 86.361c2.561 0 4.637-2.09 4.637-4.668 0-2.578-2.076-4.668-4.636-4.668s-4.637 2.09-4.637 4.668c0 2.578 2.076 4.668 4.637 4.668z"/><path d="M98.172 12.149a17.792 17.792 0 00-6.342-6.266 17.642 17.642 0 00-8.564-2.382V2.334c0-.619-.244-1.213-.678-1.65a2.31 2.31 0 00-3.279 0 2.342 2.342 0 00-.679 1.65v6.664c0 .619.245 1.213.68 1.65a2.31 2.31 0 003.278 0 2.342 2.342 0 00.678-1.65v-.829c2.211.041 4.375.649 6.287 1.766a13.048 13.048 0 014.643 4.618 17.448 17.448 0 010 16.922L85.573 47.85a15.873 15.873 0 01-5.818 6.19 15.728 15.728 0 01-8.154 2.28c-2.874 0-5.693-.788-8.155-2.28a15.872 15.872 0 01-5.818-6.19L49.04 31.51c-3.118-5.952-3.257-12.662-.348-17.506a12.035 12.035 0 014.358-4.267 11.933 11.933 0 015.876-1.568v.829c0 .619.244 1.213.68 1.65a2.31 2.31 0 003.278 0 2.342 2.342 0 00.678-1.65V2.334c0-.619-.244-1.213-.678-1.65a2.31 2.31 0 00-3.279 0 2.342 2.342 0 00-.679 1.65v1.167a16.417 16.417 0 00-8.161 2.136 16.558 16.558 0 00-6.049 5.917c-3.732 6.255-3.65 14.728.22 22.173l8.6 16.339a20.317 20.317 0 008.844 8.8l6.955 15.066v8.473c0 3.17-1.25 6.209-3.477 8.45a11.828 11.828 0 01-8.392 3.5 11.825 11.825 0 01-8.392-3.5 11.992 11.992 0 01-3.477-8.45V57.383a16.672 16.672 0 00-4.984-11.465 16.446 16.446 0 00-11.515-4.713 16.445 16.445 0 00-11.515 4.713 16.672 16.672 0 00-4.984 11.465v9.535a14.85 14.85 0 00-9.356 5.515A15.044 15.044 0 00.092 82.88a15.013 15.013 0 004.73 9.823 14.814 14.814 0 0010.095 3.98c3.743 0 7.348-1.422 10.096-3.98a15.013 15.013 0 004.73-9.823 15.044 15.044 0 00-3.152-10.446 14.85 14.85 0 00-9.356-5.515v-9.535a11.988 11.988 0 013.603-8.208 11.826 11.826 0 018.26-3.369c3.084 0 6.046 1.209 8.26 3.37a11.988 11.988 0 013.603 8.207v24.998c0 4.408 1.739 8.635 4.834 11.751A16.448 16.448 0 0057.465 99c4.378 0 8.576-1.75 11.672-4.868a16.677 16.677 0 004.834-11.75v-8.473l6.954-15.067a20.34 20.34 0 008.855-8.8l8.589-16.338a22.143 22.143 0 00-.197-21.555zM25.105 81.693c0 2.038-.6 4.03-1.725 5.725a10.25 10.25 0 01-4.593 3.795 10.17 10.17 0 01-5.913.587 10.213 10.213 0 01-5.24-2.82 10.327 10.327 0 01-2.801-5.277 10.37 10.37 0 01.582-5.954 10.29 10.29 0 013.77-4.624 10.185 10.185 0 015.686-1.737 10.21 10.21 0 017.233 3.021 10.353 10.353 0 013.001 7.284zm46.501-13.876l-3.222-7.073c2.147.343 4.333.343 6.48 0l-3.258 7.073z"/></g><defs><clipPath id="clip0"><path fill="#fff" d="M0 0h101v99H0z"/></clipPath></defs></svg>