<svg width="75" height="109" fill="none" xmlns="http://www.w3.org/2000/svg"><g clip-path="url(#clip0)" fill="#87AD3B"><path d="M63.569 109a1.827 1.827 0 01-1.595-.916 1.844 1.844 0 01-.18-1.42c0-.119 3.174-12.431 7.966-34.114 4.572-20.781-2.415-31.264-2.488-31.328l-.128-.211L47.372 2.685A1.851 1.851 0 0148.16.202a1.823 1.823 0 011.397-.119c.463.149.849.476 1.072.91l19.717 38.261c.915 1.343 7.746 12.589 2.981 34.124-4.8 21.756-7.956 34.114-7.983 34.243a1.841 1.841 0 01-.653.995 1.82 1.82 0 01-1.121.384zm-46.824 0c-.125.009-.25.009-.375 0a1.824 1.824 0 01-1.159-.794 1.843 1.843 0 01-.259-1.385c0-.203 4.18-19.972 5.9-28.579.85-4.322.53-9.315-.961-14.841-.915-3.366-2.835-6.326-4.874-9.471a92.023 92.023 0 01-2.177-3.458L.256 29.287a1.85 1.85 0 01.636-2.524 1.822 1.822 0 012.51.639L15.977 48.55a92.292 92.292 0 002.103 3.337c2.104 3.237 4.28 6.584 5.34 10.51 1.647 6.079 1.985 11.642 1.016 16.552-1.72 8.625-5.862 28.413-5.899 28.615a1.837 1.837 0 01-.645 1.035 1.82 1.82 0 01-1.147.4z"/><path d="M43.147 65.8a12.664 12.664 0 01-3.969-.578 7.304 7.304 0 01-2.78-1.518 7.352 7.352 0 01-1.884-2.556c-.613-1.453-.43-3.457-.265-5.223.064-.643.119-1.241.119-1.664v-3.945c0-3.43-1.71-6.528-3.521-9.802l-.064-.12c-5.176-9.415-13.526-24.403-13.526-24.403l3.192-1.84S28.78 29.195 33.984 38.62l.064.12c1.957 3.558 3.978 7.236 3.978 11.576v3.936c0 .597-.064 1.278-.128 2.004-.175 1.14-.175 2.3 0 3.44a3.775 3.775 0 002.432 2.022c3.256 1.076 8.615-.11 13.325-2.869a3.482 3.482 0 001.26-1.147 3.51 3.51 0 00.57-1.611c.456-4.184-4.958-11.402-10.527-16.69C38.447 33.222 30.92 10.317 30.6 9.342a1.86 1.86 0 01.597-1.964 1.836 1.836 0 012.033-.198c.43.232.75.626.89 1.096 2.086 6.344 8.552 23.907 13.435 28.505C50.5 39.539 60.02 49.24 59.206 56.55a7.151 7.151 0 01-1.162 3.186 7.102 7.102 0 01-2.496 2.285 25.142 25.142 0 01-12.4 3.779z"/><path d="M41.007 57.277a1.821 1.821 0 01-1.445-.708 1.846 1.846 0 01.302-2.575c2.14-1.682 7.444-3.926 12.264-.377a1.836 1.836 0 01.728 1.203A1.85 1.85 0 0152 56.672a1.821 1.821 0 01-2.03-.086c-3.777-2.758-7.682.184-7.847.304-.32.249-.712.385-1.116.386zM40.01 109a1.82 1.82 0 01-1.042-.331 1.842 1.842 0 01-.458-2.556c1.62-2.345 1.162-6.18.595-9.26a19.482 19.482 0 00-2.945-6.547c-.704-1.159-1.436-2.363-2.085-3.678a30.652 30.652 0 01-2.981-9.95c0-.064-.695-7.116 2.606-9.277a4.035 4.035 0 014.472.156c3.155 1.84 8.23 1.84 12.291 1.84h2.744c2.14 0 4.572 0 6.246 3.153 1.271 2.428 1.518 5.343 1.582 7.88a46.522 46.522 0 01-1.509 12.037 92.391 92.391 0 01-4.655 14.363 1.823 1.823 0 01-3.381-.017 1.849 1.849 0 01.007-1.408 89.193 89.193 0 004.463-13.793 42.999 42.999 0 001.408-11.099c-.055-2.106-.238-4.496-1.162-6.243-.612-1.168-1.015-1.205-3.008-1.205h-2.744c-4.508 0-10.124 0-14.138-2.335a1.395 1.395 0 00-.65-.258c-.612.331-1.216 3.393-.914 5.793a27.05 27.05 0 002.652 8.717c.576 1.186 1.253 2.317 1.92 3.402a22.583 22.583 0 013.412 7.78c.704 3.779 1.207 8.569-1.18 12.036a1.824 1.824 0 01-1.546.8z"/><path d="M46.357 82.463a13.547 13.547 0 01-8.066-2.465 1.85 1.85 0 01-.297-2.588 1.826 1.826 0 012.574-.299c.21.165 4.573 3.42 11.313.46a1.824 1.824 0 012.589.853 1.847 1.847 0 01-.462 2.116c-.193.172-.419.3-.664.378a17.351 17.351 0 01-6.987 1.545zM65.635 69.59a1.75 1.75 0 01-1.079-.36 1.847 1.847 0 01-.393-2.566 3.5 3.5 0 00-.183-4.072 1.847 1.847 0 01.338-2.575 1.822 1.822 0 012.543.313 7.145 7.145 0 01.247 8.506 1.831 1.831 0 01-1.473.753z"/></g><defs><clipPath id="clip0"><path fill="#fff" d="M0 0h75v109H0z"/></clipPath></defs></svg>