<svg width="95" height="95" fill="none" xmlns="http://www.w3.org/2000/svg"><g clip-path="url(#clip0)" fill="#87AD3B"><path d="M57.043 22.106c-.025-.024-.05-.049-.074-.049-7.109-5.148-8.653-17.135-8.678-17.306a1.96 1.96 0 00-2.181-1.716 1.96 1.96 0 00-1.716 2.181c.073.54 1.667 13.287 9.732 19.611-.245.883-1.177 2.599-1.52 3.211-.27.49-.49.883-.638 1.202a.412.412 0 00-.049.122c-.392 1.103-.76 2.207-1.127 3.285-1.3 3.898-2.525 7.55-4.756 10.81-2.892 4.094-6.25 7.698-8.972 9.61-1.814 1.25-3.824 2.157-5.932 3.089-1.937.882-3.971 1.765-5.883 2.99a28.525 28.525 0 00-2.942 2.182c-1.863 1.52-3.628 2.942-5.81 3.162-.367.025-.71.074-1.054.098-2.23.197-4.56.393-7.035 1.839C-.27 71.55-.074 83.34.024 89.004a1.962 1.962 0 001.961 1.937h.025a1.983 1.983 0 001.936-1.986v-.025c-.171-7.918.515-15.688 6.398-19.145 1.692-.98 3.334-1.127 5.393-1.299.368-.025.736-.074 1.103-.098 3.334-.319 5.737-2.28 7.894-3.996a24.995 24.995 0 012.574-1.912c1.691-1.078 3.48-1.887 5.393-2.72 2.181-.981 4.461-1.986 6.57-3.457 4.46-3.138 8.432-8.433 9.952-10.59 2.55-3.726 3.947-7.845 5.27-11.816.344-1.03.711-2.083 1.079-3.137.098-.172.27-.515.466-.834 1.397-2.525 3.31-5.981 1.005-7.82z"/><path d="M90.48 28.48c-4.045-7.501-10.517-12.036-18.705-13.115h-.098c-.49-.049-.956-.049-1.397-.049-.907-.025-1.74-.025-2.23-.319-.025 0-.025-.024-.05-.024-1.569-.883-7.746-7.967-8.09-12.992A1.95 1.95 0 0057.828.167a1.95 1.95 0 00-1.814 2.083c.417 6.52 7.33 14.586 10.05 16.155 1.374.809 2.844.833 4.168.858.392 0 .76 0 1.103.049 6.962.907 12.233 4.657 15.689 11.104 2.868 5.393 4.314 12.429 4.045 19.856-.76 18.729-10.026 32.31-26.107 38.266-4.56 1.716-20.42 5.173-33.192-1.446 0 0-.024 0-.024-.025-2.354-1.176-4.51-3.137-6.864-6.201l-.025-.05c-1.838-2.475-4.339-5.883-9.266-3.946-5.466 2.059-5.466 9.977-5.466 13.335 0 1.079.882 1.961 1.96 1.961a1.967 1.967 0 001.962-1.96c0-2.354 0-8.556 2.942-9.684h.024c1.937-.76 2.672-.147 4.707 2.599l.049.049.024.024c2.697 3.555 5.32 5.884 8.212 7.33 5.54 2.868 12.012 4.314 19.219 4.314 1.005 0 2.01-.024 3.04-.073 6.618-.368 11.987-1.814 14.07-2.623 8.874-3.285 15.86-8.678 20.813-16.057 4.78-7.133 7.427-15.811 7.82-25.739.294-8.114-1.3-15.86-4.487-21.866z"/><path d="M84.596 47.184c-.319-.736-1.422-2.868-3.554-3.163h-.074c-1.054-.098-3.089.172-4.829 3.236-4.094 6.3-10.418 9.708-15.027 11.473-7.305 2.843-14.708 3.333-22.553 3.824-2.01.122-4.363.367-6.618 1.274-3.555 1.349-6.055 4.045-6.84 7.403-.784 3.359.221 6.889 2.795 9.708 1.74 1.863 4.216 3.358 7.55 4.584a36.454 36.454 0 0012.65 2.206c3.137 0 6.275-.392 9.339-1.127 6.913-1.667 13.556-5.369 19.194-10.713 4.266-4.118 7.06-8.335 8.555-12.919 1.913-5.32 1.692-11.055-.588-15.786zM81.458 61.67c0 .025-.024.05-.024.05-1.3 3.97-3.75 7.672-7.55 11.325-5.124 4.878-11.154 8.236-17.405 9.756-6.741 1.618-13.556 1.3-19.709-.956-2.697-1.005-4.731-2.206-6.006-3.58-1.667-1.813-2.353-4.044-1.863-6.128.49-2.083 2.108-3.775 4.437-4.657.025 0 .025 0 .05-.025 1.764-.71 3.725-.907 5.417-1.005 7.77-.49 15.836-1.005 23.68-4.069 9.34-3.554 14.365-9.045 16.939-13.041a.534.534 0 00.073-.123c.221-.466.564-.882.956-1.226.221.246.393.515.515.81 0 .024.025.048.05.073 1.838 3.8 2.01 8.457.44 12.796z"/></g><defs><clipPath id="clip0"><path fill="#fff" d="M0 0h95v95H0z"/></clipPath></defs></svg>