<svg width="99" height="99" fill="none" xmlns="http://www.w3.org/2000/svg"><path d="M96.688 81.396l-12.98-12.98A8.301 8.301 0 0077.877 66h-5.689v-7.956c0-5.831-3.347-10.838-8.733-13.07-5.378-2.23-11.287-1.06-15.412 3.068-3.485 3.486-7.932 3.414-10.917 2.173-2.993-1.239-6.188-4.322-6.188-9.259V33h5.689c2.17 0 4.298-.88 5.833-2.417l12.979-12.981a7.947 7.947 0 002.312-5.581c0-4.355-3.54-7.896-7.895-7.896h-.735C48.266 1.73 45.998 0 43.313 0H14.438C11.752 0 9.484 1.73 8.63 4.125h-.734C3.54 4.125 0 7.665 0 12.02c0 2.076.842 4.11 2.312 5.583l12.98 12.98A8.301 8.301 0 0021.124 33h5.688v7.956c0 5.831 3.347 10.838 8.733 13.07 5.382 2.225 11.291 1.06 15.412-3.068 3.485-3.486 7.932-3.412 10.917-2.173 2.993 1.239 6.188 4.322 6.188 9.259V66h-5.689c-2.17 0-4.298.88-5.833 2.417L43.562 81.398a7.947 7.947 0 00-2.312 5.581c0 4.355 3.54 7.896 7.895 7.896h.735C50.734 97.27 53.002 99 55.687 99h28.875c2.686 0 4.954-1.73 5.808-4.125h.734c4.355 0 7.896-3.54 7.896-7.895a7.955 7.955 0 00-2.312-5.584zM14.438 4.125h28.874c1.137 0 2.063.924 2.063 2.063a2.065 2.065 0 01-2.063 2.062H14.439a2.065 2.065 0 01-2.063-2.063c0-1.137.927-2.062 2.063-2.062zm6.687 24.75a4.161 4.161 0 01-2.917-1.209L5.228 14.69a3.814 3.814 0 01-1.103-2.668 3.775 3.775 0 013.77-3.77h.735c.854 2.395 3.122 4.124 5.808 4.124h28.874c2.686 0 4.954-1.73 5.808-4.125h.734a3.775 3.775 0 013.77 3.77c0 .992-.402 1.964-1.103 2.667l-12.979 12.98a4.161 4.161 0 01-2.916 1.208H21.125zm63.437 66H55.688a2.065 2.065 0 01-2.063-2.063c0-1.137.926-2.062 2.063-2.062h28.874c1.136 0 2.063.924 2.063 2.063a2.065 2.065 0 01-2.063 2.062zm6.543-4.125h-.735c-.854-2.396-3.122-4.125-5.808-4.125H55.688c-2.686 0-4.954 1.73-5.808 4.125h-.734a3.775 3.775 0 01-3.77-3.77c0-.992.402-1.964 1.103-2.667l12.979-12.98a4.161 4.161 0 012.916-1.208h15.502c1.083 0 2.147.44 2.916 1.208l12.98 12.978a3.815 3.815 0 011.103 2.668 3.775 3.775 0 01-3.77 3.77z" fill="#87AD3B"/></svg>