<svg width="71" height="71" fill="none" xmlns="http://www.w3.org/2000/svg"><path d="M66.733 0H5.139A4.564 4.564 0 00.576 4.557v45.565c0 1.68.924 3.133 2.282 3.923V67.21a3.424 3.424 0 003.422 3.418h59.312a3.424 3.424 0 003.422-3.418V54.045c1.357-.79 2.281-2.244 2.281-3.923V4.557A4.564 4.564 0 0066.733 0zm0 67.21a1.14 1.14 0 01-1.14 1.138H6.28a1.14 1.14 0 01-1.141-1.139V54.68h61.594v12.53zm2.281-17.088a2.282 2.282 0 01-2.281 2.278H5.139a2.282 2.282 0 01-2.281-2.278V4.557a2.282 2.282 0 012.281-2.279h61.594a2.282 2.282 0 012.281 2.279v45.565z" fill="#fff"/><path d="M14.264 66.07a4.564 4.564 0 004.563-4.556 4.564 4.564 0 00-4.563-4.557 4.564 4.564 0 00-4.563 4.557 4.564 4.564 0 004.563 4.556zm0-6.835a2.282 2.282 0 012.281 2.279 2.282 2.282 0 01-4.562 0 2.282 2.282 0 012.281-2.279zM7.42 47.844h57.031V6.835H7.421v41.009zm2.281-38.73h52.47v36.452H9.7V9.113zm25.094 50.121H23.39v6.835h11.406v-6.835zm-2.281 4.557H25.67v-2.278h6.844v2.278zm15.969-4.557H37.077v6.835h11.406v-6.835zm-2.281 4.557h-6.844v-2.278h6.844v2.278zm15.968-4.557H50.764v6.835H62.17v-6.835zm-2.281 4.557h-6.844v-2.278h6.844v2.278z" fill="#fff"/><path d="M45.95 19.304l-4.223 15.813-5.618-24.684-6.715 21.463h-1.76l-5.469-16.384-5.34 18.662h-4.842v2.278h6.563l3.786-13.233 3.656 10.955h5.083l4.692-14.99 5.788 25.438 4.903-18.36 2.418 5.634h11.017v-2.278h-9.514l-4.426-10.314z" fill="#fff"/><path d="M18.826 38.73h2.282v2.279h-2.282v-2.278zm4.563 0h2.281v2.279h-2.28v-2.278zm4.562 0h2.282v2.279H27.95v-2.278z" fill="#fff"/></svg>