<svg width="78" height="79" fill="none" xmlns="http://www.w3.org/2000/svg"><g clip-path="url(#clip0)" fill="#fff"><path d="M19.5 23.474a1.219 1.219 0 100-2.437 1.219 1.219 0 000 2.437zm7.313 0a1.219 1.219 0 100-2.437 1.219 1.219 0 000 2.437zm.961 3.24l.128-.258-2.18-1.09-.128.258a2.71 2.71 0 01-2.438 1.507 2.71 2.71 0 01-2.437-1.507l-.128-.257-2.18 1.09.127.258a5.135 5.135 0 004.618 2.853 5.133 5.133 0 004.618-2.854zm28.289-2.021c-8.065 0-14.626 6.56-14.626 14.625 0 8.064 6.561 14.625 14.626 14.625 8.064 0 14.624-6.56 14.624-14.625 0-8.065-6.56-14.625-14.624-14.625zm-10.97 19.5c0-.33.125-.629.358-.862l2.437-2.437c.234-.233.532-.357.862-.357.33 0 .628.124.862.357.232.233.357.531.357.861 0 .33-.125.63-.357.862l-2.438 2.438a1.235 1.235 0 01-1.723 0 1.196 1.196 0 01-.357-.862zm10.994 3.896a1.223 1.223 0 01.964-1.435c.61-.125 1.298.31 1.427.957l.695 3.476a12.07 12.07 0 01-2.41.382l-.676-3.38zm5.396 2.128l-.616-3.082a3.662 3.662 0 00-3.58-2.942 3.66 3.66 0 00-3.59 4.375l.557 2.789a12.153 12.153 0 01-7.004-3.643 3.628 3.628 0 001.648-.935l2.437-2.437a3.634 3.634 0 001.071-2.587 3.63 3.63 0 00-1.071-2.585c-1.38-1.38-3.79-1.38-5.17 0l-2.116 2.116a12.053 12.053 0 01-.174-1.968c0-6.72 5.467-12.188 12.188-12.188 6.72 0 12.187 5.468 12.187 12.188 0 .308-.023.61-.046.913a3.627 3.627 0 00-2.391-.913 3.66 3.66 0 00-3.657 3.656 3.659 3.659 0 003.635 3.654 12.252 12.252 0 01-4.307 3.59zm4.33-6.024a1.22 1.22 0 010-2.438 1.22 1.22 0 010 2.438z"/><path d="M75.563 39.318c0-10.752-8.749-19.5-19.5-19.5-10.095 0-18.422 7.712-19.402 17.553-.034-.007-.067-.02-.1-.028l-7.534-1.506-.72-2.88a9.796 9.796 0 003.881-4.607h.718a4.88 4.88 0 004.875-4.875c0-1.127-.4-2.153-1.045-2.98l.653-2.611c.26-1.044.392-2.117.392-3.192 0-6.581-5.355-11.937-11.936-11.937H22.42a11.995 11.995 0 00-9.549 4.775l-.315.42-.186.125a8.605 8.605 0 00-3.84 7.175c0 .704.087 1.409.257 2.091l.788 3.153a4.833 4.833 0 00-1.045 2.98 4.88 4.88 0 004.875 4.875h.718a9.796 9.796 0 003.882 4.607l-.72 2.88-7.534 1.508a12.156 12.156 0 00-7.094 4.316A12.184 12.184 0 000 49.24v9.578h2.438v19.5h41.437v-19.5h2.438v-2.639a19.355 19.355 0 004.874 1.997v15.267a4.88 4.88 0 004.876 4.875 4.88 4.88 0 004.874-4.875V58.176c8.397-2.173 14.626-9.792 14.626-18.858zm-45.609-.81l-1.44 5.041-3.393-2.035 3.31-3.31 1.523.305zm2.952-12.596h-.084c.05-.4.084-.806.084-1.22v-3.655a2.44 2.44 0 012.438 2.437 2.44 2.44 0 01-2.438 2.438zm-19.5 0a2.44 2.44 0 01-2.437-2.438 2.44 2.44 0 012.437-2.437v3.656c0 .413.034.819.084 1.219h-.084zm.134-7.313h-.134c-.603 0-1.175.124-1.708.325l-.544-2.175a6.176 6.176 0 012.57-6.647l.532-.355.565-.755a9.548 9.548 0 017.6-3.8h3.424c5.237 0 9.499 4.262 9.499 9.5 0 .876-.108 1.751-.32 2.6l-.41 1.632a4.829 4.829 0 00-1.708-.325v-.34a3.32 3.32 0 00-4.365-3.146l-1.124.376a13.138 13.138 0 01-4.151.673 2.55 2.55 0 01-2.547-2.548c0-.97.54-1.845 1.406-2.277l.356-.178-1.087-2.183-.357.178a4.956 4.956 0 00-2.712 3.794l-.875.437a7.261 7.261 0 00-3.91 5.214zm2.304 6.094v-4.765a4.845 4.845 0 012.694-4.36l.117-.058a4.993 4.993 0 004.61 3.09c1.675 0 3.33-.27 4.924-.8l1.117-.373a.887.887 0 011.163.832v6.434a7.32 7.32 0 01-7.313 7.312 7.32 7.32 0 01-7.312-7.312zm7.312 9.75c1.01 0 1.983-.155 2.9-.44l.626 2.504-3.526 3.525-3.524-3.525.626-2.504c.915.285 1.89.44 2.898.44zm-5.276 3.76l3.31 3.311-3.393 2.035-1.44-5.04 1.523-.305zM4.875 58.819H9.75V75.88H4.875V58.818zM41.438 75.88h-4.876V58.818h4.876V75.88zm2.437-19.5h-7.313v-2.15c0-1.595.377-3.191 1.091-4.617l-2.18-1.091a12.824 12.824 0 00-1.348 5.709v21.65H12.187V54.23c0-1.971-.465-3.946-1.346-5.71l-2.18 1.092A10.38 10.38 0 019.75 54.23v2.15H2.437v-7.14a9.73 9.73 0 012.125-6.056 9.705 9.705 0 015.67-3.45l3.728-.746 2.366 8.286 5.611-3.366v7.597h2.438v-7.597l5.611 3.366 2.367-8.286 3.728.745c.172.035.339.096.51.14.168 5.915 2.968 11.175 7.284 14.644v1.863zM58.5 73.443a2.44 2.44 0 01-2.438 2.437 2.44 2.44 0 01-2.437-2.437V58.649c.8.1 1.61.169 2.438.169.827 0 1.636-.068 2.437-.17v14.795zM56.062 56.38C46.654 56.38 39 48.727 39 39.318c0-9.409 7.654-17.063 17.063-17.063 9.408 0 17.062 7.654 17.062 17.063 0 9.409-7.654 17.062-17.063 17.062z"/><path d="M64.594 35.662a3.63 3.63 0 00-1.071-2.585l-2.438-2.438c-1.38-1.38-3.79-1.38-5.17 0a3.63 3.63 0 00-1.071 2.585c0 .976.38 1.895 1.071 2.585l2.438 2.438a3.63 3.63 0 002.584 1.07c.977 0 1.896-.38 2.586-1.07a3.63 3.63 0 001.07-2.585zm-2.795.861a1.235 1.235 0 01-1.723 0l-2.438-2.437a1.197 1.197 0 01-.357-.862c0-.33.125-.629.357-.861a1.2 1.2 0 01.862-.358c.33 0 .628.125.862.357l2.437 2.438c.233.233.357.531.357.862 0 .33-.124.629-.357.861zM48.75 33.224h2.438v2.438H48.75v-2.438zm6.094 6.094h2.437v2.437h-2.437v-2.437z"/></g><defs><clipPath id="clip0"><path fill="#fff" transform="translate(0 .618)" d="M0 0h78v78H0z"/></clipPath></defs></svg>