<svg width="86" height="86" fill="none" xmlns="http://www.w3.org/2000/svg"><path d="M84.567 83.133h-8.6v-47.3c0-.791-.642-1.433-1.434-1.433H54.467V1.433C54.467.642 53.825 0 53.033 0H15.767c-.792 0-1.434.642-1.434 1.433v81.7h-12.9a1.433 1.433 0 000 2.867h83.134a1.433 1.433 0 000-2.867zm-54.467 0h-5.733v-12.9c0-.791.641-1.433 1.433-1.433h2.867c.791 0 1.433.642 1.433 1.433v12.9zm5.733-47.3v47.3h-2.866v-12.9a4.3 4.3 0 00-4.3-4.3H25.8a4.3 4.3 0 00-4.3 4.3v12.9h-4.3V2.867h34.4V34.4H37.267c-.792 0-1.434.642-1.434 1.433zm37.267 47.3H38.7V37.267h34.4v45.866z" fill="#fff"/><path d="M45.867 20.067h-8.6c-.792 0-1.434.641-1.434 1.433v8.6c0 .791.642 1.433 1.434 1.433h8.6c.791 0 1.433-.642 1.433-1.433v-8.6c0-.792-.642-1.433-1.433-1.433zm-1.434 8.6H38.7v-5.734h5.733v5.734zm1.434-22.934h-8.6c-.792 0-1.434.642-1.434 1.434v8.6c0 .791.642 1.433 1.434 1.433h8.6c.791 0 1.433-.642 1.433-1.433v-8.6c0-.792-.642-1.434-1.433-1.434zm-1.434 8.6H38.7V8.6h5.733v5.733zm-12.9 5.734h-8.6c-.791 0-1.433.641-1.433 1.433v8.6c0 .791.642 1.433 1.433 1.433h8.6c.792 0 1.434-.642 1.434-1.433v-8.6c0-.792-.642-1.433-1.434-1.433zm-1.433 8.6h-5.733v-5.734H30.1v5.734zm1.433-22.934h-8.6c-.791 0-1.433.642-1.433 1.434v8.6c0 .791.642 1.433 1.433 1.433h8.6c.792 0 1.434-.642 1.434-1.433v-8.6c0-.792-.642-1.434-1.434-1.434zm-1.433 8.6h-5.733V8.6H30.1v5.733zM31.533 34.4h-8.6c-.791 0-1.433.642-1.433 1.434v8.6c0 .791.642 1.433 1.433 1.433h8.6c.792 0 1.434-.642 1.434-1.433v-8.6c0-.792-.642-1.434-1.434-1.434zM30.1 43h-5.733v-5.733H30.1V43zm1.433 5.733h-8.6c-.791 0-1.433.642-1.433 1.434v8.6c0 .791.642 1.433 1.433 1.433h8.6c.792 0 1.434-.642 1.434-1.433v-8.6c0-.792-.642-1.434-1.434-1.434zm-1.433 8.6h-5.733V51.6H30.1v5.733zm28.667 8.6h8.6c.791 0 1.433-.641 1.433-1.433v-8.6c0-.791-.642-1.433-1.433-1.433h-8.6c-.792 0-1.434.642-1.434 1.433v8.6c0 .792.642 1.433 1.434 1.433zm1.433-8.6h5.733v5.734H60.2v-5.733zM58.767 51.6h8.6c.791 0 1.433-.642 1.433-1.433v-8.6c0-.792-.642-1.434-1.433-1.434h-8.6c-.792 0-1.434.642-1.434 1.434v8.6c0 .791.642 1.433 1.434 1.433zM60.2 43h5.733v5.733H60.2V43zm-1.433 37.267h8.6c.791 0 1.433-.642 1.433-1.434v-8.6c0-.791-.642-1.433-1.433-1.433h-8.6c-.792 0-1.434.642-1.434 1.433v8.6c0 .792.642 1.434 1.434 1.434zm1.433-8.6h5.733V77.4H60.2v-5.733zm-15.767-5.734h8.6c.792 0 1.434-.641 1.434-1.433v-8.6c0-.791-.642-1.433-1.434-1.433h-8.6c-.791 0-1.433.642-1.433 1.433v8.6c0 .792.642 1.433 1.433 1.433zm1.434-8.6H51.6v5.734h-5.733v-5.733zM44.433 51.6h8.6c.792 0 1.434-.642 1.434-1.433v-8.6c0-.792-.642-1.434-1.434-1.434h-8.6c-.791 0-1.433.642-1.433 1.434v8.6c0 .791.642 1.433 1.433 1.433zm1.434-8.6H51.6v5.733h-5.733V43zm-1.434 37.267h8.6c.792 0 1.434-.642 1.434-1.434v-8.6c0-.791-.642-1.433-1.434-1.433h-8.6c-.791 0-1.433.642-1.433 1.433v8.6c0 .792.642 1.434 1.433 1.434zm1.434-8.6H51.6V77.4h-5.733v-5.733z" fill="#fff"/></svg>