<svg width="71" height="71" fill="none" xmlns="http://www.w3.org/2000/svg"><g clip-path="url(#clip0)" fill="#fff"><path d="M59.212.279H11.787c-4.435 0-8.043 3.572-8.043 7.963v50.803c0 2.27 1.866 4.119 4.16 4.119h18.212a1.38 1.38 0 001.387-1.373 1.38 1.38 0 00-1.387-1.373H7.904a1.381 1.381 0 01-1.386-1.373V8.242c0-2.877 2.364-5.217 5.27-5.217h41.356a7.884 7.884 0 00-1.975 5.217v44.249c0 1.267-1.04 2.297-2.32 2.297-1 0-1.884-.631-2.201-1.57l-2.09-6.21a4.319 4.319 0 00-4.106-2.93c-2.387 0-4.328 1.923-4.328 4.286v1.07h-7.188a1.38 1.38 0 00-1.386 1.372c0 .759.62 1.373 1.386 1.373h7.188v6.831c0 2.028.4 4.005 1.187 5.875l2.04 4.848a1.387 1.387 0 001.813.74 1.368 1.368 0 00.747-1.796l-2.04-4.848a12.36 12.36 0 01-.974-4.818V48.364c0-.849.698-1.54 1.555-1.54.67 0 1.263.424 1.475 1.053l2.09 6.209a5.084 5.084 0 004.832 3.448c2.809 0 5.094-2.262 5.094-5.043V28.95l1.853 1.83c3.306 3.268 5.127 7.615 5.127 12.24v14.595c0 3.78-.865 7.585-2.501 11a1.367 1.367 0 00.659 1.83 1.392 1.392 0 001.847-.653 28.367 28.367 0 002.768-12.177V43.021c0-5.36-2.11-10.397-5.94-14.184l-3.813-3.767v-1.312h9.152c2.294 0 4.16-1.848 4.16-4.12V8.242c0-4.39-3.607-7.963-8.043-7.963zm5.27 19.36c0 .756-.622 1.373-1.387 1.373h-9.152V8.242c0-2.877 2.364-5.217 5.27-5.217 2.905 0 5.269 2.34 5.269 5.217v11.396z"/><path d="M32.172 60.417a1.378 1.378 0 00-1.387 1.373 1.376 1.376 0 001.387 1.374c.364 0 .722-.147.98-.403.258-.255.407-.609.407-.97a1.378 1.378 0 00-1.387-1.373zM22.835 10.44c0-1.515-1.244-2.747-2.774-2.747H13.96c-1.53 0-2.774 1.232-2.774 2.746v6.042c0 1.514 1.244 2.746 2.774 2.746h6.101c1.53 0 2.774-1.232 2.774-2.746v-6.042zm-2.774 6.04H13.96v-6.04h6.101l.002 6.04h-.002zm2.774 10.436c0-1.514-1.244-2.746-2.774-2.746H13.96c-1.53 0-2.774 1.232-2.774 2.746v6.041c0 1.514 1.244 2.746 2.774 2.746h6.101c1.53 0 2.774-1.232 2.774-2.746v-6.041zm-2.774 6.041H13.96v-6.041h6.101l.002 6.041h-.002zm0 7.689H13.96c-1.53 0-2.774 1.232-2.774 2.746v6.041c0 1.515 1.244 2.746 2.774 2.746h6.101c1.53 0 2.774-1.231 2.774-2.746v-6.04c0-1.515-1.244-2.747-2.774-2.747zm0 8.787H13.96v-6.04h6.101l.002 6.04h-.002zm24.776-30.206a1.38 1.38 0 001.387-1.373 1.38 1.38 0 00-1.387-1.373h-9.56a1.38 1.38 0 00-1.386 1.372c0 .759.62 1.374 1.386 1.374h9.56zm-15.901 0c.366 0 .723-.147.98-.403.259-.255.407-.61.407-.97a1.377 1.377 0 00-1.387-1.373c-.366 0-.722.146-.98.402-.259.255-.406.61-.406.97 0 .361.147.716.406.971a1.4 1.4 0 00.98.403zm0 16.476h15.901a1.38 1.38 0 001.387-1.373 1.38 1.38 0 00-1.387-1.373H28.936a1.38 1.38 0 00-1.387 1.373 1.38 1.38 0 001.387 1.373z"/></g><defs><clipPath id="clip0"><path fill="#fff" transform="translate(0 .279)" d="M0 0h71v70.3H0z"/></clipPath></defs></svg>