<svg width="86" height="86" viewBox="0 0 86 86" fill="none" xmlns="http://www.w3.org/2000/svg">
<path d="M84.5667 83.1333H75.9667V35.8333C75.9667 35.0418 75.3249 34.4 74.5333 34.4H54.4667V1.43333C54.4667 0.641775 53.8249 0 53.0333 0H15.7667C14.9751 0 14.3333 0.641775 14.3333 1.43333V83.1333H1.43333C0.641775 83.1333 0 83.7751 0 84.5667C0 85.3582 0.641775 86 1.43333 86H84.5667C85.3582 86 86 85.3582 86 84.5667C86 83.7751 85.3582 83.1333 84.5667 83.1333ZM30.1 83.1333H24.3667V70.2333C24.3667 69.4418 25.0084 68.8 25.8 68.8H28.6667C29.4582 68.8 30.1 69.4418 30.1 70.2333V83.1333ZM35.8333 35.8333V83.1333H32.9667V70.2333C32.9667 67.8585 31.0415 65.9333 28.6667 65.9333H25.8C23.4251 65.9333 21.5 67.8585 21.5 70.2333V83.1333H17.2V2.86667H51.6V34.4H37.2667C36.4751 34.4 35.8333 35.0418 35.8333 35.8333ZM73.1 83.1333H38.7V37.2667H73.1V83.1333Z" fill="white"/>
<path d="M45.8666 20.0667H37.2666C36.4751 20.0667 35.8333 20.7084 35.8333 21.5V30.1C35.8333 30.8915 36.4751 31.5333 37.2666 31.5333H45.8666C46.6582 31.5333 47.3 30.8915 47.3 30.1V21.5C47.3 20.7084 46.6582 20.0667 45.8666 20.0667ZM44.4333 28.6667H38.7V22.9333H44.4333V28.6667Z" fill="white"/>
<path d="M45.8666 5.7334H37.2666C36.4751 5.7334 35.8333 6.37517 35.8333 7.16673V15.7667C35.8333 16.5583 36.4751 17.2001 37.2666 17.2001H45.8666C46.6582 17.2001 47.3 16.5583 47.3 15.7667V7.16673C47.3 6.37517 46.6582 5.7334 45.8666 5.7334ZM44.4333 14.3334H38.7V8.60007H44.4333V14.3334Z" fill="white"/>
<path d="M31.5333 20.0667H22.9333C22.1418 20.0667 21.5 20.7084 21.5 21.5V30.1C21.5 30.8915 22.1418 31.5333 22.9333 31.5333H31.5333C32.3249 31.5333 32.9667 30.8915 32.9667 30.1V21.5C32.9667 20.7084 32.3249 20.0667 31.5333 20.0667ZM30.1 28.6667H24.3667V22.9333H30.1V28.6667Z" fill="white"/>
<path d="M31.5333 5.7334H22.9333C22.1418 5.7334 21.5 6.37517 21.5 7.16673V15.7667C21.5 16.5583 22.1418 17.2001 22.9333 17.2001H31.5333C32.3249 17.2001 32.9667 16.5583 32.9667 15.7667V7.16673C32.9667 6.37517 32.3249 5.7334 31.5333 5.7334ZM30.1 14.3334H24.3667V8.60007H30.1V14.3334Z" fill="white"/>
<path d="M31.5333 34.4001H22.9333C22.1418 34.4001 21.5 35.0419 21.5 35.8335V44.4335C21.5 45.225 22.1418 45.8668 22.9333 45.8668H31.5333C32.3249 45.8668 32.9667 45.225 32.9667 44.4335V35.8335C32.9667 35.0419 32.3249 34.4001 31.5333 34.4001ZM30.1 43.0001H24.3667V37.2668H30.1V43.0001Z" fill="white"/>
<path d="M31.5333 48.7334H22.9333C22.1418 48.7334 21.5 49.3752 21.5 50.1667V58.7667C21.5 59.5583 22.1418 60.2001 22.9333 60.2001H31.5333C32.3249 60.2001 32.9667 59.5583 32.9667 58.7667V50.1667C32.9667 49.3752 32.3249 48.7334 31.5333 48.7334ZM30.1 57.3334H24.3667V51.6001H30.1V57.3334Z" fill="white"/>
<path d="M58.7666 65.9335H67.3666C68.1582 65.9335 68.8 65.2917 68.8 64.5001V55.9001C68.8 55.1086 68.1582 54.4668 67.3666 54.4668H58.7666C57.9751 54.4668 57.3333 55.1086 57.3333 55.9001V64.5001C57.3333 65.2917 57.9751 65.9335 58.7666 65.9335ZM60.2 57.3335H65.9333V63.0668H60.2V57.3335Z" fill="white"/>
<path d="M58.7666 51.6H67.3666C68.1582 51.6 68.8 50.9582 68.8 50.1666V41.5666C68.8 40.7751 68.1582 40.1333 67.3666 40.1333H58.7666C57.9751 40.1333 57.3333 40.7751 57.3333 41.5666V50.1666C57.3333 50.9582 57.9751 51.6 58.7666 51.6ZM60.2 43H65.9333V48.7333H60.2V43Z" fill="white"/>
<path d="M58.7666 80.2667H67.3666C68.1582 80.2667 68.8 79.6249 68.8 78.8334V70.2334C68.8 69.4418 68.1582 68.8 67.3666 68.8H58.7666C57.9751 68.8 57.3333 69.4418 57.3333 70.2334V78.8334C57.3333 79.6249 57.9751 80.2667 58.7666 80.2667ZM60.2 71.6667H65.9333V77.4H60.2V71.6667Z" fill="white"/>
<path d="M44.4333 65.9335H53.0333C53.8249 65.9335 54.4667 65.2917 54.4667 64.5001V55.9001C54.4667 55.1086 53.8249 54.4668 53.0333 54.4668H44.4333C43.6418 54.4668 43 55.1086 43 55.9001V64.5001C43 65.2917 43.6418 65.9335 44.4333 65.9335ZM45.8667 57.3335H51.6V63.0668H45.8667V57.3335Z" fill="white"/>
<path d="M44.4333 51.6H53.0333C53.8249 51.6 54.4667 50.9582 54.4667 50.1666V41.5666C54.4667 40.7751 53.8249 40.1333 53.0333 40.1333H44.4333C43.6418 40.1333 43 40.7751 43 41.5666V50.1666C43 50.9582 43.6418 51.6 44.4333 51.6ZM45.8667 43H51.6V48.7333H45.8667V43Z" fill="white"/>
<path d="M44.4333 80.2667H53.0333C53.8249 80.2667 54.4667 79.6249 54.4667 78.8334V70.2334C54.4667 69.4418 53.8249 68.8 53.0333 68.8H44.4333C43.6418 68.8 43 69.4418 43 70.2334V78.8334C43 79.6249 43.6418 80.2667 44.4333 80.2667ZM45.8667 71.6667H51.6V77.4H45.8667V71.6667Z" fill="white"/>
</svg>
