<svg width="71" height="71" viewBox="0 0 71 71" fill="none" xmlns="http://www.w3.org/2000/svg">
<path d="M66.7327 0H5.13898C2.62276 0 0.576477 2.04362 0.576477 4.55656V50.1222C0.576477 51.8012 1.50038 53.2548 2.85773 54.0453V67.2092C2.85773 69.0934 4.39301 70.6267 6.2796 70.6267H65.5921C67.4787 70.6267 69.014 69.0934 69.014 67.2092V54.0453C70.3713 53.2548 71.2952 51.8012 71.2952 50.1222V4.55656C71.2952 2.04362 69.2489 0 66.7327 0ZM66.7327 67.2092C66.7327 67.8381 66.2217 68.3484 65.5921 68.3484H6.2796C5.64998 68.3484 5.13898 67.8381 5.13898 67.2092V54.6787H66.7327V67.2092ZM69.014 50.1222C69.014 51.3786 67.9908 52.4004 66.7327 52.4004H5.13898C3.88087 52.4004 2.85773 51.3786 2.85773 50.1222V4.55656C2.85773 3.30009 3.88087 2.27828 5.13898 2.27828H66.7327C67.9908 2.27828 69.014 3.30009 69.014 4.55656V50.1222Z" fill="white"/>
<path d="M14.264 66.0701C16.7802 66.0701 18.8265 64.0265 18.8265 61.5136C18.8265 59.0006 16.7802 56.957 14.264 56.957C11.7478 56.957 9.70148 59.0006 9.70148 61.5136C9.70148 64.0265 11.7478 66.0701 14.264 66.0701ZM14.264 59.2353C15.5221 59.2353 16.5452 60.2571 16.5452 61.5136C16.5452 62.7701 15.5221 63.7919 14.264 63.7919C13.0059 63.7919 11.9827 62.7701 11.9827 61.5136C11.9827 60.2571 13.0059 59.2353 14.264 59.2353Z" fill="white"/>
<path d="M7.42023 47.844H64.4515V6.83496H7.42023V47.844ZM9.70148 9.11324H62.1702V45.5657H9.70148V9.11324Z" fill="white"/>
<path d="M34.7952 59.2354H23.389V66.0702H34.7952V59.2354ZM32.514 63.7919H25.6702V61.5136H32.514V63.7919Z" fill="white"/>
<path d="M48.4827 59.2354H37.0765V66.0702H48.4827V59.2354ZM46.2015 63.7919H39.3577V61.5136H46.2015V63.7919Z" fill="white"/>
<path d="M62.1702 59.2354H50.764V66.0702H62.1702V59.2354ZM59.889 63.7919H53.0452V61.5136H59.889V63.7919Z" fill="white"/>
<path d="M45.9494 19.3038L41.7268 35.1174L36.1092 10.4333L29.3944 31.8959H27.6332L22.1651 15.5116L16.8258 34.1742H11.9827V36.4524H18.5459L22.3316 23.2191L25.9885 34.1742H31.0711L35.7625 19.1842L41.5511 44.6224L46.4536 26.2617L48.8717 31.8959H59.889V29.6176H50.375L45.9494 19.3038Z" fill="white"/>
<path d="M18.8265 38.7307H21.1077V41.009H18.8265V38.7307Z" fill="white"/>
<path d="M23.389 38.7307H25.6702V41.009H23.389V38.7307Z" fill="white"/>
<path d="M27.9515 38.7307H30.2327V41.009H27.9515V38.7307Z" fill="white"/>
</svg>
