<svg width="71" height="71" viewBox="0 0 71 71" fill="none" xmlns="http://www.w3.org/2000/svg">
<g clip-path="url(#clip0)">
<path d="M59.2123 0.278564H11.7871C7.35232 0.278564 3.74414 3.85117 3.74414 8.24225V59.0445C3.74414 61.3159 5.61025 63.1636 7.9043 63.1636H26.1164C26.8823 63.1636 27.5031 62.549 27.5031 61.7906C27.5031 61.0322 26.8823 60.4175 26.1164 60.4175H7.9043C7.13943 60.4175 6.51758 59.8018 6.51758 59.0445V8.24225C6.51758 5.36528 8.8815 3.02466 11.7871 3.02466H53.1438C51.9158 4.42345 51.1694 6.24757 51.1694 8.24225V52.4909C51.1694 53.7577 50.1288 54.7881 48.8493 54.7881C47.8494 54.7881 46.9648 54.1568 46.6479 53.2176L44.5581 47.0089C43.9682 45.2561 42.3177 44.0788 40.4521 44.0788C38.0654 44.0788 36.124 46.0011 36.124 48.3637V49.4332H28.9364C28.1704 49.4332 27.5497 50.0484 27.5497 50.8062C27.5497 51.5646 28.1704 52.1793 28.9364 52.1793H36.124V59.0102C36.124 61.0376 36.5232 63.0145 37.3109 64.8853L39.3509 69.7334C39.5729 70.2606 40.0881 70.5786 40.6314 70.5786C40.8091 70.5786 40.99 70.5449 41.1639 70.473C41.8713 70.1812 42.2055 69.3772 41.9109 68.6773L39.8709 63.8293C39.2252 62.2948 38.8975 60.6734 38.8975 59.0107V48.3642C38.8975 47.5152 39.5946 46.8249 40.4521 46.8249C41.1222 46.8249 41.7153 47.2475 41.9271 47.8772L44.0169 54.086C44.7114 56.1482 46.6533 57.5341 48.8493 57.5341C51.658 57.5341 53.9428 55.2718 53.9428 52.4909V28.9501L55.7959 30.7812C59.1024 34.0486 60.923 38.3957 60.923 43.0206V57.6162C60.923 61.3969 60.0579 65.2007 58.422 68.6167C58.0938 69.3016 58.389 70.1206 59.0807 70.4456C59.7725 70.7707 60.5996 70.4789 60.9279 69.7934C62.7387 66.0122 63.6964 61.8013 63.6964 57.6162V43.0206C63.6964 37.6609 61.5866 32.624 57.7552 28.8374L53.9428 25.0696V23.7577H63.0952C65.3892 23.7577 67.2553 21.91 67.2553 19.6385V8.24225C67.2553 3.85117 63.6477 0.278564 59.2123 0.278564V0.278564ZM64.4819 19.6385C64.4819 20.3953 63.86 21.0116 63.0952 21.0116H53.9428V8.24225C53.9428 5.36528 56.3067 3.02466 59.2123 3.02466C62.118 3.02466 64.4819 5.36528 64.4819 8.24225V19.6385Z" fill="white"/>
<path d="M32.1719 60.4175C31.8068 60.4175 31.4493 60.5644 31.1914 60.8197C30.9336 61.0756 30.7852 61.4296 30.7852 61.7905C30.7852 62.152 30.9336 62.506 31.1914 62.7613C31.4493 63.0166 31.8068 63.1636 32.1719 63.1636C32.5364 63.1636 32.8939 63.0166 33.1523 62.7613C33.4102 62.506 33.5586 62.152 33.5586 61.7905C33.5586 61.4296 33.4102 61.0756 33.1523 60.8197C32.8939 60.5644 32.5364 60.4175 32.1719 60.4175Z" fill="white"/>
<path d="M22.8348 10.4392C22.8348 8.9251 21.5906 7.69312 20.0614 7.69312H13.9598C12.4301 7.69312 11.1864 8.9251 11.1864 10.4392V16.4806C11.1864 17.9947 12.4301 19.2267 13.9598 19.2267H20.0614C21.5906 19.2267 22.8348 17.9947 22.8348 16.4806V10.4392ZM20.0614 16.4806H13.9598V10.4392H20.0614L20.063 16.4806C20.063 16.4806 20.0625 16.4806 20.0614 16.4806Z" fill="white"/>
<path d="M22.8348 26.9158C22.8348 25.4017 21.5906 24.1697 20.0614 24.1697H13.9598C12.4301 24.1697 11.1864 25.4017 11.1864 26.9158V32.9572C11.1864 34.4713 12.4301 35.7033 13.9598 35.7033H20.0614C21.5906 35.7033 22.8348 34.4713 22.8348 32.9572V26.9158ZM20.0614 32.9572H13.9598V26.9158H20.0614L20.063 32.9572C20.063 32.9572 20.0625 32.9572 20.0614 32.9572Z" fill="white"/>
<path d="M20.0614 40.6462H13.9598C12.4301 40.6462 11.1864 41.8777 11.1864 43.3923V49.4332C11.1864 50.9479 12.4301 52.1793 13.9598 52.1793H20.0614C21.5906 52.1793 22.8348 50.9479 22.8348 49.4332V43.3923C22.8348 41.8777 21.5906 40.6462 20.0614 40.6462ZM20.0614 49.4332H13.9598V43.3923H20.0614L20.063 49.4332C20.063 49.4332 20.0625 49.4332 20.0614 49.4332Z" fill="white"/>
<path d="M44.837 19.2266C45.603 19.2266 46.2238 18.6119 46.2238 17.8535C46.2238 17.0951 45.603 16.4805 44.837 16.4805H35.2773C34.5114 16.4805 33.8906 17.0951 33.8906 17.8535C33.8906 18.6119 34.5114 19.2266 35.2773 19.2266H44.837Z" fill="white"/>
<path d="M28.9364 19.2266C29.3015 19.2266 29.659 19.0796 29.9169 18.8243C30.1747 18.569 30.3231 18.2145 30.3231 17.8535C30.3231 17.4926 30.1747 17.138 29.9169 16.8827C29.659 16.6274 29.3015 16.4805 28.9364 16.4805C28.5702 16.4805 28.2138 16.6274 27.9559 16.8827C27.697 17.138 27.5497 17.4926 27.5497 17.8535C27.5497 18.2145 27.697 18.569 27.9559 18.8243C28.2138 19.0796 28.5702 19.2266 28.9364 19.2266Z" fill="white"/>
<path d="M28.9359 35.7031H44.8371C45.603 35.7031 46.2238 35.0885 46.2238 34.3301C46.2238 33.5717 45.603 32.957 44.8371 32.957H28.9359C28.1704 32.957 27.5491 33.5717 27.5491 34.3301C27.5491 35.0885 28.1704 35.7031 28.9359 35.7031Z" fill="white"/>
</g>
<defs>
<clipPath id="clip0">
<rect width="71" height="70.3001" fill="white" transform="translate(0 0.278564)"/>
</clipPath>
</defs>
</svg>
