<svg width="78" height="79" viewBox="0 0 78 79" fill="none" xmlns="http://www.w3.org/2000/svg">
<g clip-path="url(#clip0)">
<path d="M19.5 23.4741C20.1731 23.4741 20.7188 22.9285 20.7188 22.2554C20.7188 21.5823 20.1731 21.0366 19.5 21.0366C18.8269 21.0366 18.2812 21.5823 18.2812 22.2554C18.2812 22.9285 18.8269 23.4741 19.5 23.4741Z" fill="white"/>
<path d="M26.8125 23.4741C27.4856 23.4741 28.0312 22.9285 28.0312 22.2554C28.0312 21.5823 27.4856 21.0366 26.8125 21.0366C26.1394 21.0366 25.5938 21.5823 25.5938 22.2554C25.5938 22.9285 26.1394 23.4741 26.8125 23.4741Z" fill="white"/>
<path d="M27.7741 26.7137L27.9021 26.4565L25.7217 25.3657L25.5938 25.6241C25.1294 26.5528 24.1959 27.1305 23.1563 27.1305C22.1167 27.1305 21.1831 26.5528 20.7188 25.6241L20.5908 25.3669L18.4105 26.4577L18.5384 26.7149C19.4184 28.4748 21.188 29.568 23.1563 29.568C25.1246 29.568 26.8942 28.4748 27.7741 26.7137Z" fill="white"/>
<path d="M56.0625 24.6929C47.998 24.6929 41.4375 31.2534 41.4375 39.3179C41.4375 47.3823 47.998 53.9429 56.0625 53.9429C64.127 53.9429 70.6875 47.3823 70.6875 39.3179C70.6875 31.2534 64.127 24.6929 56.0625 24.6929ZM45.0938 44.1929C45.0938 43.8626 45.2181 43.564 45.4508 43.3312L47.8883 40.8937C48.1223 40.6609 48.4197 40.5366 48.75 40.5366C49.0803 40.5366 49.3777 40.6609 49.6117 40.8937C49.8444 41.1265 49.9688 41.4251 49.9688 41.7554C49.9688 42.0857 49.8444 42.3842 49.6117 42.617L47.1742 45.0545C46.7062 45.5213 45.9188 45.5213 45.4508 45.0545C45.2181 44.8217 45.0938 44.5232 45.0938 44.1929ZM56.0869 48.0892C55.9553 47.4311 56.3843 46.7876 57.0509 46.6535C57.6603 46.5292 58.3489 46.9631 58.4781 47.6115L59.1727 51.0873C58.3964 51.2933 57.592 51.4213 56.7633 51.4688L56.0869 48.0892ZM61.4835 50.2172L60.8668 47.1349C60.5268 45.4299 59.0216 44.1929 57.2861 44.1929C57.0387 44.1929 56.7925 44.2185 56.5622 44.266C54.5866 44.6621 53.2996 46.5926 53.6957 48.5682L54.2539 51.3567C51.5166 50.9472 49.0754 49.6297 47.2497 47.7138C47.8652 47.5505 48.4356 47.241 48.8975 46.7791L51.335 44.3416C52.026 43.6505 52.4062 42.7316 52.4062 41.7554C52.4062 40.7792 52.026 39.8602 51.335 39.1704C49.9541 37.7896 47.5459 37.7896 46.165 39.1704L44.0493 41.2862C43.9433 40.6439 43.875 39.9894 43.875 39.3179C43.875 32.5977 49.3423 27.1304 56.0625 27.1304C62.7827 27.1304 68.25 32.5977 68.25 39.3179C68.25 39.6262 68.2268 39.9285 68.2037 40.2307C67.5614 39.6701 66.7302 39.3179 65.8125 39.3179C63.7967 39.3179 62.1562 40.9583 62.1562 42.9741C62.1562 44.9826 63.7845 46.6157 65.7906 46.6279C64.6559 48.1343 63.1837 49.3677 61.4835 50.2172ZM65.8125 44.1929C65.141 44.1929 64.5938 43.6469 64.5938 42.9741C64.5938 42.3014 65.141 41.7554 65.8125 41.7554C66.484 41.7554 67.0312 42.3014 67.0312 42.9741C67.0312 43.6469 66.484 44.1929 65.8125 44.1929Z" fill="white"/>
<path d="M75.5625 39.3179C75.5625 28.5661 66.8143 19.8179 56.0625 19.8179C45.9676 19.8179 37.6411 27.5301 36.6612 37.3715C36.6271 37.3642 36.5942 37.3508 36.5601 37.3435L29.027 35.8371L28.3067 32.9572C30.0398 31.8725 31.4108 30.265 32.1884 28.3503H32.9062C35.5948 28.3503 37.7812 26.1639 37.7812 23.4753C37.7812 22.348 37.3803 21.3218 36.7356 20.4943L37.3888 17.8837C37.6496 16.8405 37.7812 15.7667 37.7812 14.6918C37.7812 8.11056 32.4261 2.75537 25.8448 2.75537H22.4213C18.6847 2.75537 15.1149 4.54084 12.8724 7.53043L12.5568 7.9509L12.3715 8.07522C9.96694 9.67787 8.53125 12.3603 8.53125 15.25C8.53125 15.9544 8.61778 16.6589 8.78841 17.3414L9.57572 20.4943C8.93222 21.3206 8.53125 22.3468 8.53125 23.4741C8.53125 26.1627 10.7177 28.3491 13.4062 28.3491H14.1241C14.9017 30.2638 16.2727 31.8713 18.0058 32.956L17.2855 35.8359L9.75244 37.3435C6.95906 37.9017 4.43869 39.4361 2.65809 41.6603C0.944531 43.8041 0 46.4951 0 49.2409V58.8179H2.4375V78.3179H43.875V58.8179H46.3125V56.1793C47.8225 57.0556 49.4581 57.7283 51.1875 58.1756V73.4429C51.1875 76.1314 53.3739 78.3179 56.0625 78.3179C58.7511 78.3179 60.9375 76.1314 60.9375 73.4429V58.1756C69.3335 56.0026 75.5625 48.3842 75.5625 39.3179ZM29.9544 38.5086L28.5139 43.5494L25.1209 41.5141L28.431 38.2039L29.9544 38.5086ZM32.9062 25.9116H32.8222C32.8721 25.5119 32.9062 25.106 32.9062 24.6929V21.0366C34.2505 21.0366 35.3438 22.1298 35.3438 23.4741C35.3438 24.8184 34.2505 25.9116 32.9062 25.9116ZM13.4062 25.9116C12.062 25.9116 10.9688 24.8184 10.9688 23.4741C10.9688 22.1298 12.062 21.0366 13.4062 21.0366V24.6929C13.4062 25.106 13.4404 25.5119 13.4903 25.9116H13.4062ZM13.5403 18.5991H13.4062C12.803 18.5991 12.2314 18.7234 11.6976 18.9245L11.154 16.7491C11.0309 16.2603 10.9688 15.7558 10.9688 15.25C10.9688 13.1769 11.9986 11.2525 13.7231 10.102L14.2557 9.74734L14.8212 8.99172C16.6067 6.61272 19.4476 5.19287 22.4213 5.19287H25.8448C31.0818 5.19287 35.3438 9.45362 35.3438 14.6918C35.3438 15.5681 35.2365 16.4432 35.0232 17.2926L34.6149 18.9245C34.0811 18.7234 33.5095 18.5991 32.9062 18.5991V18.2591C32.9062 16.431 31.4182 14.9429 29.59 14.9429C29.2366 14.9429 28.8868 14.9989 28.5407 15.1135L27.417 15.4889C26.0752 15.9349 24.6785 16.1616 23.2659 16.1616C21.8619 16.1616 20.7188 15.0197 20.7188 13.6144C20.7188 12.6431 21.2587 11.7692 22.1252 11.3366L22.4811 11.1587L21.3939 8.97587L21.0368 9.15381C19.539 9.90334 18.5408 11.3195 18.3251 12.9478L17.4501 13.3853C15.3611 14.431 13.9486 16.3627 13.5403 18.5991ZM15.8438 24.6929V19.9276C15.8438 18.069 16.876 16.3981 18.5384 15.5681L18.6554 15.5096C19.4025 17.3207 21.188 18.5991 23.2659 18.5991C24.9405 18.5991 26.5956 18.3298 28.1885 17.8008L29.3061 17.4267C29.8837 17.2329 30.4688 17.6802 30.4688 18.2591V24.6929C30.4688 28.7257 27.1891 32.0054 23.1562 32.0054C19.1234 32.0054 15.8438 28.7257 15.8438 24.6929ZM23.1562 34.4429C24.1654 34.4429 25.1392 34.2881 26.0557 34.0029L26.6821 36.5074L23.1562 40.0321L19.6316 36.5074L20.2581 34.0029C21.1733 34.2881 22.1471 34.4429 23.1562 34.4429ZM17.8803 38.2039L21.1904 41.5141L17.7974 43.5494L16.3568 38.5086L17.8803 38.2039ZM4.875 58.8179H9.75V75.8804H4.875V58.8179ZM41.4375 75.8804H36.5625V58.8179H41.4375V75.8804ZM43.875 56.3804H36.5625V54.2305C36.5625 52.6352 36.9391 51.0386 37.6533 49.6127L35.4729 48.5219C34.5906 50.2854 34.125 52.2598 34.125 54.2305V75.8804H12.1875V54.2305C12.1875 52.2598 11.7219 50.2854 10.8408 48.5219L8.66044 49.6127C9.37341 51.0386 9.75 52.6364 9.75 54.2305V56.3804H2.4375V49.2409C2.4375 47.0472 3.19191 44.8961 4.56178 43.1838C5.98406 41.4056 7.99744 40.1795 10.2314 39.7335L13.9596 38.9876L16.3264 47.2739L21.9375 43.9077V51.5054H24.375V43.9077L29.9861 47.2739L32.3529 38.9876L36.0811 39.7335C36.2529 39.7676 36.4199 39.8285 36.5905 39.8736C36.7587 45.7882 39.5594 51.0483 43.875 54.5169V56.3804ZM58.5 73.4429C58.5 74.7872 57.4068 75.8804 56.0625 75.8804C54.7182 75.8804 53.625 74.7872 53.625 73.4429V58.6485C54.4257 58.7496 55.235 58.8179 56.0625 58.8179C56.89 58.8179 57.6993 58.7496 58.5 58.6485V73.4429ZM56.0625 56.3804C46.6537 56.3804 39 48.7266 39 39.3179C39 29.9091 46.6537 22.2554 56.0625 22.2554C65.4712 22.2554 73.125 29.9091 73.125 39.3179C73.125 48.7266 65.4712 56.3804 56.0625 56.3804Z" fill="white"/>
<path d="M64.5938 35.6616C64.5938 34.6854 64.2135 33.7665 63.5225 33.0767L61.085 30.6391C59.7041 29.2583 57.2959 29.2583 55.915 30.6391C55.224 31.329 54.8438 32.2479 54.8438 33.2241C54.8438 34.2003 55.224 35.1193 55.915 35.8091L58.3525 38.2466C59.0423 38.9376 59.9613 39.3179 60.9375 39.3179C61.9137 39.3179 62.8327 38.9364 63.5225 38.2466C64.2135 37.5568 64.5938 36.6378 64.5938 35.6616ZM61.7992 36.5233C61.3312 36.9901 60.5438 36.9901 60.0758 36.5233L57.6383 34.0858C57.4056 33.853 57.2812 33.5544 57.2812 33.2241C57.2812 32.8938 57.4056 32.5952 57.6383 32.3625C57.8723 32.1297 58.1697 32.0054 58.5 32.0054C58.8303 32.0054 59.1277 32.1297 59.3617 32.3625L61.7992 34.8C62.0319 35.0327 62.1562 35.3313 62.1562 35.6616C62.1562 35.9919 62.0319 36.2905 61.7992 36.5233Z" fill="white"/>
<path d="M48.75 33.2241H51.1875V35.6616H48.75V33.2241Z" fill="white"/>
<path d="M54.8438 39.3179H57.2812V41.7554H54.8438V39.3179Z" fill="white"/>
</g>
<defs>
<clipPath id="clip0">
<rect width="78" height="78" fill="white" transform="translate(0 0.618408)"/>
</clipPath>
</defs>
</svg>
