<svg width="54" height="54" viewBox="0 0 54 54" fill="none" xmlns="http://www.w3.org/2000/svg">
<path d="M35.7619 15.2163L38.3199 16.6958C38.8305 16.9911 39.276 17.3963 39.4626 17.9558C40.074 19.7886 40.6119 24.7234 33.5574 32.7384C26.5029 40.7534 21.5396 40.8464 19.6441 40.4727C19.0654 40.3586 18.6069 39.9682 18.2492 39.4992L16.4569 37.1497C15.1226 35.4004 12.6228 35.0641 10.8735 36.3985L4.21734 41.4759C2.6905 42.6406 2.2119 44.7288 3.07911 46.4422L4.10832 48.4757C4.89016 50.0204 6.19424 51.238 7.78891 51.9122C9.1212 52.4755 10.5127 52.8892 11.959 52.8651C16.5168 52.7891 27.6487 51.0792 39.3241 37.8141C50.9996 24.5491 51.2824 13.2902 50.7791 8.75965C50.6194 7.32202 50.0324 5.99426 49.3045 4.74426C48.4333 3.24809 47.06 2.10915 45.4285 1.52975L43.2808 0.767029C41.4711 0.124371 39.4606 0.86421 38.4992 2.52656L34.3079 9.77348C33.2064 11.678 33.8574 14.1149 35.7619 15.2163Z" fill="white"/>
</svg>
