<svg width="77" height="77" viewBox="0 0 77 77" fill="none" xmlns="http://www.w3.org/2000/svg">
<path d="M63 31.2857C63 43.5938 49.9523 53.5714 33.8571 53.5714C29.5793 53.5714 25.5167 52.8666 21.8571 51.6005C18.9897 50.6084 7.61461 55.1012 4.06427 56.5573C3.65908 56.7235 3.24108 56.331 3.38611 55.9178C4.58794 52.4936 8.11373 41.9952 6.94779 39.8571C5.50887 37.2185 4.71427 34.3231 4.71427 31.2857C4.71427 18.9777 17.762 9 33.8571 9C49.9523 9 63 18.9777 63 31.2857Z" stroke="white" stroke-width="4"/>
<circle cx="23.5" cy="32.5" r="2.5" fill="white"/>
<circle cx="32.5" cy="32.5" r="2.5" fill="white"/>
<circle cx="41.5" cy="32.5" r="2.5" fill="white"/>
</svg>
