<svg width="47" height="47" viewBox="0 0 47 47" fill="none" xmlns="http://www.w3.org/2000/svg">
<path d="M29.0139 10.8209L25.6763 10.8154C21.9266 10.8154 19.5034 13.3693 19.5034 17.322V20.322H16.1476C15.8576 20.322 15.6228 20.5635 15.6228 20.8613V25.208C15.6228 25.5058 15.8579 25.747 16.1476 25.747H19.5034V36.7149C19.5034 37.0128 19.7382 37.254 20.0282 37.254H24.4066C24.6965 37.254 24.9314 37.0125 24.9314 36.7149V25.747H28.8551C29.1451 25.747 29.3799 25.5058 29.3799 25.208L29.3815 20.8613C29.3815 20.7183 29.3261 20.5813 29.2278 20.4801C29.1295 20.3789 28.9956 20.322 28.8564 20.322H24.9314V17.7789C24.9314 16.5565 25.2149 15.936 26.765 15.936L29.0133 15.9352C29.303 15.9352 29.5379 15.6937 29.5379 15.3961V11.36C29.5379 11.0627 29.3033 10.8215 29.0139 10.8209Z" fill="white"/>
<circle cx="23.4342" cy="23.4342" r="22.4342" stroke="white" stroke-width="2"/>
</svg>
