<svg width="47" height="47" viewBox="0 0 47 47" fill="none" xmlns="http://www.w3.org/2000/svg">
<path fill-rule="evenodd" clip-rule="evenodd" d="M12.4035 21.3033C12.4035 17.1786 12.4035 15.1163 13.4539 13.6705C13.7931 13.2036 14.2038 12.793 14.6707 12.4537C16.1164 11.4033 18.1788 11.4033 22.3035 11.4033H26.5386C30.6633 11.4033 32.7256 11.4033 34.1714 12.4537C34.6383 12.793 35.0489 13.2036 35.3882 13.6705C36.4386 15.1163 36.4386 17.1786 36.4386 21.3033V25.5384C36.4386 29.6631 36.4386 31.7255 35.3882 33.1712C35.0489 33.6381 34.6383 34.0488 34.1714 34.388C32.7256 35.4384 30.6633 35.4384 26.5386 35.4384H22.3035C18.1788 35.4384 16.1164 35.4384 14.6707 34.388C14.2038 34.0488 13.7931 33.6381 13.4539 33.1712C12.4035 31.7255 12.4035 29.6631 12.4035 25.5384V21.3033ZM24.421 17.0586C20.9075 17.0586 18.0588 19.9073 18.0588 23.4209C18.0588 26.9344 20.9075 29.7831 24.421 29.7831C27.9346 29.7831 30.7833 26.9344 30.7833 23.4209C30.7833 19.9073 27.9346 17.0586 24.421 17.0586ZM24.421 27.3973C22.2293 27.3973 20.4447 25.6127 20.4447 23.4209C20.4447 21.2275 22.2293 19.4445 24.421 19.4445C26.6128 19.4445 28.3974 21.2275 28.3974 23.4209C28.3974 25.6127 26.6128 27.3973 24.421 27.3973ZM32.1082 16.5815C32.1082 17.0497 31.7287 17.4292 31.2605 17.4292C30.7922 17.4292 30.4127 17.0497 30.4127 16.5815C30.4127 16.1133 30.7922 15.7337 31.2605 15.7337C31.7287 15.7337 32.1082 16.1133 32.1082 16.5815Z" fill="white"/>
<circle cx="23.5658" cy="23.4342" r="22.4342" stroke="white" stroke-width="2"/>
</svg>
