<svg width="20" height="20" viewBox="0 0 20 20" fill="none" xmlns="http://www.w3.org/2000/svg">
<circle cx="10" cy="10" r="10" fill="white"/>
<path d="M13.3619 6H6.63809C6.07857 6 5.625 6.45357 5.625 7.01309C5.625 7.32084 5.7649 7.61192 6.00522 7.80417L8.00098 9.40078L8.00098 9.40078C8.71441 9.97153 9.07113 10.2569 9.46674 10.3663C9.81569 10.4629 10.1843 10.4629 10.5333 10.3663C10.9289 10.2569 11.2856 9.97153 11.999 9.40078L13.9948 7.80417C14.2351 7.61192 14.375 7.32084 14.375 7.01309C14.375 6.45357 13.9214 6 13.3619 6Z" fill="#414042"/>
<path d="M8.825 14H11.175C12.2951 14 12.8552 14 13.283 13.782C13.6593 13.5903 13.9653 13.2843 14.157 12.908C14.375 12.4802 14.375 11.9201 14.375 10.8V8.25L12.9985 9.35117C11.9284 10.2073 11.3933 10.6354 10.7999 10.7995C10.2765 10.9443 9.72354 10.9443 9.20011 10.7995C8.6067 10.6354 8.07162 10.2073 7.00147 9.35117L7.00146 9.35117L5.625 8.25V10.8C5.625 11.9201 5.625 12.4802 5.84299 12.908C6.03473 13.2843 6.34069 13.5903 6.71702 13.782C7.14484 14 7.70489 14 8.825 14Z" fill="#414042"/>
</svg>
