<svg width="20" height="20" viewBox="0 0 20 20" fill="none" xmlns="http://www.w3.org/2000/svg">
<path fill-rule="evenodd" clip-rule="evenodd" d="M10 20C15.5228 20 20 15.5228 20 10C20 4.47715 15.5228 0 10 0C4.47715 0 0 4.47715 0 10C0 15.5228 4.47715 20 10 20ZM13.2315 11.3615L14.7758 12.9095C15.0826 13.218 15.0734 13.7285 14.7552 14.0481L14.3143 14.4809L14.3048 14.4724C14.1187 14.6184 13.9041 14.7404 13.6745 14.8303C13.4607 14.9135 13.2504 14.966 13.031 14.9923C12.9302 15.003 10.5948 15.2225 7.69672 12.318C5.60017 10.2167 4.82763 8.66816 5.03155 6.97378C5.05537 6.76249 5.10746 6.55163 5.19112 6.33066C5.28187 6.09852 5.40383 5.88325 5.54977 5.69661L5.53788 5.68477L5.97313 5.24603C6.29194 4.92641 6.80157 4.91708 7.10845 5.22461L8.6528 6.7728C8.95968 7.08075 8.95089 7.59116 8.63208 7.91078L8.37536 8.1684L7.85318 8.69099C7.87656 8.73198 7.90019 8.77484 7.92462 8.81914C7.92868 8.8265 7.93276 8.83389 7.93686 8.84133L7.93842 8.84413C8.21135 9.33664 8.58476 10.0105 9.29315 10.7204C10.0008 11.4301 10.6732 11.8041 11.1646 12.077C11.2181 12.107 11.2689 12.1354 11.3181 12.1626L12.0961 11.3829C12.4145 11.0638 12.9239 11.0544 13.2315 11.3615Z" fill="#E89A04"/>
</svg>
