<svg width="20" height="20" viewBox="0 0 20 20" fill="none" xmlns="http://www.w3.org/2000/svg">
<circle cx="10" cy="10" r="10" fill="white"/>
<path fill-rule="evenodd" clip-rule="evenodd" d="M14 9.02266C14 9.87634 13.7356 10.6679 13.2846 11.3191H13.2857L10.4818 15.7346C10.257 16.0885 9.74308 16.0884 9.51847 15.7345L6.72786 11.3369C6.2693 10.6824 6 9.88417 6 9.02266C6 6.801 7.79086 5 10 5C12.2091 5 14 6.801 14 9.02266ZM10 11.3213C11.2624 11.3213 12.2857 10.2922 12.2857 9.02266C12.2857 7.75314 11.2624 6.72399 10 6.72399C8.73764 6.72399 7.71429 7.75314 7.71429 9.02266C7.71429 10.2922 8.73764 11.3213 10 11.3213Z" fill="#414042"/>
</svg>
