<svg width="24" height="25" viewBox="0 0 24 25" fill="none" xmlns="http://www.w3.org/2000/svg">
<path fill-rule="evenodd" clip-rule="evenodd" d="M19.2634 10.1892C19.2634 15.5192 14.996 19.84 9.73182 19.84C4.46765 19.84 0.200195 15.5192 0.200195 10.1892C0.200195 4.85925 4.46765 0.538452 9.73182 0.538452C14.996 0.538452 19.2634 4.85925 19.2634 10.1892ZM2.58294 10.1893C2.58294 14.1868 5.78352 17.4274 9.73165 17.4274C13.6798 17.4274 16.8804 14.1868 16.8804 10.1893C16.8804 6.1918 13.6798 2.95121 9.73165 2.95121C5.78352 2.95121 2.58294 6.1918 2.58294 10.1893Z" fill="#414042"/>
<path fill-rule="evenodd" clip-rule="evenodd" d="M21.3787 24.2898C21.8318 24.7728 22.586 24.7925 23.0631 24.3336C23.5402 23.8747 23.5595 23.1112 23.1063 22.6281L16.5533 15.6433C16.1002 15.1603 15.346 15.1407 14.8689 15.5995C14.3918 16.0584 14.3725 16.8219 14.8257 17.305L21.3787 24.2898Z" fill="#414042"/>
</svg>
